<svg width="24" height="24" viewBox="0 0 24 25" fill="none" xmlns="http://www.w3.org/2000/svg">
<path d="M21.9999 17.6747V20.6747C22.0011 20.9532 21.944 21.2289 21.8324 21.4841C21.7209 21.7393 21.5572 21.9683 21.352 22.1566C21.1468 22.3449 20.9045 22.4882 20.6407 22.5774C20.3769 22.6667 20.0973 22.6998 19.8199 22.6747C16.7428 22.3404 13.7869 21.2889 11.1899 19.6047C8.77376 18.0694 6.72527 16.0209 5.18993 13.6047C3.49991 10.9959 2.44818 8.02573 2.11993 4.93474C2.09494 4.6582 2.12781 4.3795 2.21643 4.11636C2.30506 3.85322 2.4475 3.61142 2.6347 3.40636C2.82189 3.20129 3.04974 3.03744 3.30372 2.92526C3.55771 2.81307 3.83227 2.755 4.10993 2.75474H7.10993C7.59524 2.74996 8.06572 2.92181 8.43369 3.23827C8.80166 3.55472 9.04201 3.99418 9.10993 4.47474C9.23656 5.4348 9.47138 6.37746 9.80993 7.28474C9.94448 7.64266 9.9736 8.03165 9.89384 8.40562C9.81408 8.77958 9.6288 9.12285 9.35993 9.39474L8.08993 10.6647C9.51349 13.1683 11.5864 15.2412 14.0899 16.6647L15.3599 15.3947C15.6318 15.1259 15.9751 14.9406 16.3491 14.8608C16.723 14.7811 17.112 14.8102 17.4699 14.9447C18.3772 15.2833 19.3199 15.5181 20.2799 15.6447C20.7657 15.7133 21.2093 15.9579 21.5265 16.3322C21.8436 16.7065 22.0121 17.1843 21.9999 17.6747Z" stroke="#72DDF7" stroke-width="2" stroke-linecap="round" stroke-linejoin="round"/>
</svg>
