<svg width="133" height="143" viewBox="0 0 133 143" fill="none" xmlns="http://www.w3.org/2000/svg">
<g clip-path="url(#clip0_16454_1020)">
<path fill-rule="evenodd" clip-rule="evenodd" d="M111.734 137.039L3.65533 123.999C2.34441 122.004 1.76391 119.711 2.14654 117.374L20.6718 4.21542C20.9632 2.43526 22.782 1.17951 24.7301 1.41456L128.298 13.9101C130.247 14.1451 131.585 15.7819 131.294 17.562L111.734 137.039Z" fill="#E15C42"/>
<path fill-rule="evenodd" clip-rule="evenodd" d="M3.66829 124.001L3.65533 123.999C2.34441 122.004 1.76391 119.711 2.14654 117.374L20.6718 4.21542C20.9632 2.43526 22.782 1.17951 24.7301 1.41456L28.1419 1.82619C26.4114 11.8691 24.5581 21.8942 22.6889 31.9174C20.2748 44.8803 17.998 57.8613 15.6316 70.8315C13.4688 82.6866 10.9079 94.4834 8.72634 106.335C8.70336 106.457 8.80201 106.542 8.91282 106.556C8.98343 106.564 9.05897 106.543 9.11135 106.484C11.5485 103.762 15.3974 102.91 19.0502 102.706C21.4984 102.569 23.9575 102.716 26.3943 103.01C28.2897 103.238 30.1717 103.556 32.0244 103.9C35.9552 104.629 39.8199 105.591 43.7104 106.467C47.4335 107.308 51.2191 107.895 55.0266 108.354C56.7816 108.566 58.5418 108.75 60.3017 108.921C67.2564 109.591 74.2431 109.996 81.1886 110.732C82.5651 110.878 83.939 111.035 85.3126 111.201C90.862 111.871 96.3923 112.68 101.923 113.447C106.376 114.064 110.836 114.676 115.305 115.227L114.625 119.381L17.8244 107.702L17.8187 107.738C10.0209 107.235 3.12618 111.39 2.14919 117.358C1.7663 119.696 2.34681 121.989 3.65771 123.985C3.66133 123.99 3.66467 123.995 3.66829 124.001Z" fill="#E0553D"/>
<path fill-rule="evenodd" clip-rule="evenodd" d="M114.625 119.381L110.918 142.024L14.1175 130.345L14.1226 130.314C9.47109 129.483 5.68739 127.08 3.65769 123.985C2.34679 121.989 1.76627 119.696 2.14917 117.357C3.12616 111.39 10.0209 107.235 17.8186 107.737L17.8244 107.702L114.625 119.381Z" fill="#BF503B"/>
<path fill-rule="evenodd" clip-rule="evenodd" d="M88.5913 13.9031C88.5913 13.9031 89.4713 13.9429 91.0047 14.0466C92.5366 14.165 94.7325 14.292 97.3539 14.5202C99.9772 14.7368 103.033 15.0205 106.302 15.3575C107.936 15.533 109.627 15.6915 111.338 15.8935C113.051 16.089 114.792 16.2871 116.532 16.4859C117.4 16.5937 118.268 16.7013 119.135 16.8089C120.092 16.9102 121.049 17.1911 121.904 17.5972C122.769 18.0036 123.547 18.5815 124.145 19.2852C124.764 19.9849 125.105 20.8232 125.35 21.6359C125.764 23.2804 125.433 24.9312 125.165 26.2331C124.895 27.5937 124.64 28.8799 124.404 30.067C123.929 32.441 123.463 34.411 123.169 35.7942C122.859 37.1753 122.66 37.962 122.66 37.962C122.636 38.056 122.533 38.116 122.432 38.0955C122.339 38.0775 122.278 38.0008 122.284 37.9167C122.284 37.9167 122.346 37.1134 122.491 35.7124C122.653 34.3134 122.838 32.3094 123.143 29.915C123.298 28.718 123.465 27.4212 123.642 26.0494C123.689 25.7066 123.736 25.3596 123.784 25.0073C123.822 24.6645 123.834 24.3437 123.862 24.0056C123.902 23.6694 123.832 23.3457 123.832 23.0116C123.821 22.6776 123.71 22.3667 123.66 22.0391C123.442 21.4252 123.183 20.8136 122.715 20.3253C122.262 19.8328 121.689 19.4207 121.027 19.1082C120.357 18.7992 119.636 18.5853 118.856 18.51C117.989 18.4084 117.12 18.3064 116.251 18.2046C114.514 17.9837 112.777 17.7623 111.067 17.545C109.358 17.3342 107.681 17.0864 106.055 16.8686C102.804 16.4188 99.7755 15.9684 97.1843 15.5559C94.5912 15.155 92.4396 14.7575 90.9291 14.5088C89.4217 14.2456 88.563 14.0756 88.563 14.0756C88.5119 14.065 88.4795 14.0187 88.492 13.9717C88.5031 13.9297 88.546 13.9013 88.5913 13.9031Z" fill="#FFFFFE"/>
<path fill-rule="evenodd" clip-rule="evenodd" d="M114.302 121.356L111.155 140.579L16.8109 129.196L16.8163 129.163C12.5797 128.44 9.05034 126.564 6.94379 124.147C6.87578 124.075 6.81309 123.999 6.75055 123.923C6.00282 123.01 5.45064 122.029 5.13649 121.009C5.11215 120.938 5.0923 120.87 5.07444 120.8C4.82906 119.908 4.75834 118.985 4.89883 118.056L4.93115 117.859C5.09383 116.936 5.45809 116.066 5.98031 115.266C6.01997 115.204 6.06159 115.139 6.10677 115.082C6.73675 114.173 7.58299 113.358 8.59105 112.661C8.67535 112.604 8.76247 112.55 8.84702 112.492C11.6476 110.668 15.6436 109.695 19.9536 110L19.9579 109.974L114.302 121.356Z" fill="#DBD5C3"/>
<path fill-rule="evenodd" clip-rule="evenodd" d="M113.682 125.14L113.65 125.336L8.59122 112.661C8.67553 112.604 8.76265 112.55 8.8472 112.492L113.682 125.14Z" fill="#D6BCB4"/>
<path fill-rule="evenodd" clip-rule="evenodd" d="M113.213 128.004L113.181 128.2L5.98038 115.266C6.02004 115.204 6.06166 115.139 6.10684 115.081L113.213 128.004Z" fill="#D6BCB4"/>
<path fill-rule="evenodd" clip-rule="evenodd" d="M4.89883 118.056L112.712 131.064L112.745 130.867L4.93115 117.859L4.89883 118.056Z" fill="#D6BCB4"/>
<path fill-rule="evenodd" clip-rule="evenodd" d="M112.275 133.733L112.243 133.931L5.13645 121.009C5.11211 120.938 5.09226 120.871 5.0744 120.8L112.275 133.733Z" fill="#D6BCB4"/>
<path fill-rule="evenodd" clip-rule="evenodd" d="M111.807 136.597L111.774 136.795L6.94396 124.147C6.87596 124.075 6.81326 123.998 6.75073 123.922L111.807 136.597Z" fill="#D6BCB4"/>
<path fill-rule="evenodd" clip-rule="evenodd" d="M100.773 26.9339L97.7986 45.1018C97.6613 45.9401 96.8081 46.5292 95.8915 46.4186L42.1584 39.9357C41.2418 39.8251 40.6155 39.0575 40.7527 38.2193L43.727 20.0513C43.8635 19.2176 44.7122 18.6264 45.6289 18.737L99.3619 25.2199C100.279 25.3305 100.909 26.1002 100.773 26.9339Z" fill="#EB926E"/>
<path fill-rule="evenodd" clip-rule="evenodd" d="M49.7043 35.2708C50.2327 35.709 50.793 35.9629 51.3832 36.0341C52.1224 36.1233 52.7781 35.9131 53.3573 35.4042C53.9354 34.8923 54.3009 34.174 54.4522 33.2497C54.5657 32.5564 54.4615 32.0069 54.1407 31.6057C53.8199 31.2031 53.4762 30.8722 53.1094 30.6118C52.5901 30.7653 52.0484 30.8953 51.4809 31.0044C50.9152 31.1121 50.3905 31.1382 49.9059 31.0798C49.8368 31.7606 49.7857 32.442 49.7491 33.1238C49.712 33.8084 49.6913 34.4935 49.6848 35.1803C49.7037 35.2036 49.7105 35.2327 49.7043 35.2708ZM54.2152 26.6179C54.3258 25.9421 54.1732 25.3986 53.7568 24.983C53.3416 24.5704 52.8495 24.329 52.28 24.2603C51.7936 24.2016 51.4004 24.2825 51.0971 24.501C50.7906 24.7191 50.5869 25.1464 50.4827 25.7827C50.3627 26.5155 50.2698 27.2128 50.2043 27.8717C50.14 28.5336 50.0778 29.1734 50.0182 29.7957C50.2978 29.6728 50.6358 29.5809 51.0323 29.5197C51.4287 29.4603 51.8337 29.3466 52.2476 29.1802C52.6632 29.0141 53.0451 28.7425 53.3979 28.3614C53.7506 27.9803 54.0233 27.4002 54.2152 26.6179ZM57.558 32.003C57.791 32.5427 57.8596 33.1105 57.7619 33.7073C57.6388 34.459 57.3489 35.1132 56.8931 35.6667C56.4368 36.2218 55.9021 36.6689 55.2874 37.0065C54.6723 37.3452 54.006 37.5797 53.2868 37.7091C52.566 37.8369 51.891 37.8645 51.2576 37.788C50.8994 37.7448 50.5404 37.6761 50.1785 37.5847C49.8185 37.4921 49.4931 37.3483 49.2016 37.1565C48.9807 37.1896 48.7681 37.2028 48.5651 37.1977C48.362 37.1925 48.1654 37.1778 47.9768 37.1551C47.5129 37.0991 47.1615 37.0134 46.9211 36.8978C46.6843 36.7798 46.5131 36.6397 46.4101 36.4813C46.3076 36.3212 46.2517 36.134 46.2435 35.9153C46.2367 35.698 46.2314 35.4707 46.226 35.2345C46.2366 32.8193 46.4391 30.3961 46.8366 27.968C47.0071 26.9266 47.1773 26.0864 47.3469 25.4491C47.5151 24.8102 47.7026 24.3226 47.9082 23.9836C48.1121 23.6442 48.3489 23.4237 48.6143 23.3169C48.8781 23.21 49.1929 23.16 49.5576 23.1637C50.147 22.9813 50.7393 22.8708 51.3357 22.8339C51.932 22.7984 52.5261 22.8163 53.1164 22.8876C53.5178 22.936 53.9963 23.0326 54.5531 23.1772C55.1096 23.3249 55.6316 23.5446 56.1217 23.8393C56.6101 24.134 57.0041 24.5171 57.3027 24.9842C57.6028 25.453 57.6966 26.0355 57.5831 26.7289C57.4696 27.4221 57.1496 28.0324 56.6214 28.5579C56.0964 29.0852 55.5024 29.5147 54.8474 29.8489C55.3901 30.0709 55.9153 30.3506 56.4199 30.6859C56.9227 31.0226 57.3026 31.4608 57.558 32.003Z" fill="#FCF9CE"/>
<path fill-rule="evenodd" clip-rule="evenodd" d="M63.5812 37.3578C64.0225 37.4111 64.4682 37.1801 64.9179 36.6645C65.3677 36.149 65.7897 35.5152 66.1794 34.7673C66.5713 34.018 66.9069 33.2532 67.1864 32.4724C67.4632 31.6884 67.6447 31.0481 67.7269 30.5464C67.7932 30.1412 67.8114 29.6616 67.7846 29.108C67.7558 28.5556 67.6764 28.0256 67.5443 27.5173C67.4118 27.0106 67.2277 26.5708 66.9873 26.1957C66.748 25.8252 66.4589 25.6173 66.1214 25.5766C66.0367 25.5664 65.8815 25.5879 65.6595 25.6387C65.092 25.8268 64.6211 26.1429 64.2465 26.5884C63.873 27.0355 63.5593 27.5466 63.3015 28.1255C63.047 28.7034 62.8428 29.3231 62.6907 29.9835C62.5404 30.6425 62.4175 31.2735 62.3201 31.8689C62.2442 32.3326 62.1985 32.8714 62.1821 33.4885C62.1672 34.1072 62.1988 34.6912 62.2819 35.2413C62.3648 35.7912 62.5064 36.2707 62.7088 36.6784C62.9094 37.0859 63.202 37.3121 63.5812 37.3578ZM65.7849 24.4739C66.7236 24.529 67.5674 24.7248 68.3167 25.0598C69.0689 25.3967 69.6883 25.8488 70.1756 26.4192C70.6629 26.9897 71.0018 27.6689 71.1954 28.459C71.3889 29.249 71.4039 30.1339 71.2428 31.1181C71.0754 32.1407 70.7735 33.129 70.3373 34.0891C69.9012 35.0494 69.3498 35.8867 68.6845 36.6029C68.0192 37.3191 67.236 37.8689 66.3366 38.2512C65.4357 38.6332 64.4364 38.7588 63.3407 38.6266C62.3714 38.5096 61.5602 38.2342 60.9116 37.8025C60.2628 37.3722 59.7548 36.8276 59.3888 36.1735C59.0227 35.5206 58.7917 34.7992 58.6956 34.0121C58.5996 33.2234 58.6191 32.4068 58.7582 31.557C58.9002 30.6897 59.1459 29.8168 59.4941 28.9341C59.8424 28.0529 60.3044 27.2731 60.8773 26.5936C61.4496 25.9168 62.14 25.3767 62.9467 24.9728C63.7548 24.5692 64.7006 24.4013 65.7849 24.4739Z" fill="#FCF9CE"/>
<path fill-rule="evenodd" clip-rule="evenodd" d="M76.5118 38.9179C76.9532 38.9712 77.4005 38.7404 77.8501 38.2248C78.2999 37.7093 78.7219 37.0755 79.1119 36.3277C79.5037 35.5783 79.8377 34.8133 80.117 34.0325C80.3955 33.2487 80.5753 32.6082 80.6575 32.1065C80.7238 31.7013 80.742 31.2217 80.7152 30.6681C80.688 30.1159 80.607 29.5857 80.4765 29.0776C80.3442 28.5709 80.1585 28.1309 79.9197 27.756C79.6786 27.3853 79.3897 27.1774 79.0538 27.1369C78.969 27.1267 78.8138 27.1482 78.5919 27.199C78.0228 27.3869 77.5519 27.703 77.1787 28.1488C76.8038 28.5956 76.4901 29.1067 76.2339 29.6858C75.9778 30.2636 75.7752 30.8834 75.6231 31.5438C75.4727 32.2028 75.3467 32.8335 75.2492 33.4288C75.1733 33.8925 75.1291 34.4315 75.1128 35.0486C75.098 35.6673 75.1329 36.2517 75.2141 36.8016C75.2954 37.3513 75.437 37.8308 75.6394 38.2385C75.8419 38.6462 76.1326 38.8722 76.5118 38.9179ZM78.7173 26.0343C79.6542 26.0891 80.4967 26.2848 81.2506 26.6203C81.9997 26.9569 82.619 27.4089 83.1078 27.9795C83.5935 28.5498 83.9324 29.229 84.1261 30.0191C84.3197 30.8091 84.3363 31.6942 84.1752 32.6785C84.0078 33.701 83.7057 34.6893 83.2697 35.6494C82.8334 36.6097 82.282 37.447 81.6169 38.1632C80.9514 38.8794 80.1682 39.4292 79.2674 39.8113C78.3663 40.1933 77.3672 40.3189 76.2729 40.1869C75.3021 40.0698 74.4925 39.7945 73.8422 39.3626C73.1934 38.9323 72.6856 38.3877 72.3196 37.7336C71.9549 37.0809 71.7225 36.3593 71.6262 35.5722C71.5302 34.7835 71.5514 33.9671 71.6905 33.1173C71.8325 32.25 72.0765 31.3769 72.4265 30.4944C72.7731 29.613 73.235 28.8332 73.8096 28.1539C74.3804 27.477 75.0708 26.9368 75.8789 26.5331C76.6872 26.1295 77.6345 25.9618 78.7173 26.0343Z" fill="#FCF9CE"/>
<path fill-rule="evenodd" clip-rule="evenodd" d="M93.7329 41.2612C93.7524 41.4009 93.7856 41.5465 93.8369 41.7018C93.8871 41.8542 93.8992 42.0092 93.8741 42.1627C93.8269 42.451 93.6118 42.6084 93.2329 42.6314C92.8543 42.6528 92.4854 42.6441 92.1272 42.6009C91.4314 42.5169 90.9818 42.3643 90.7829 42.1434C90.5826 41.9222 90.4235 41.5794 90.3058 41.1133C90.0863 40.2217 89.7878 39.3548 89.41 38.5143C89.0308 37.6721 88.5931 36.8779 88.0909 36.1297C87.965 36.899 87.8862 37.68 87.8525 38.4726C87.8204 39.2667 87.7912 40.0625 87.7691 40.8653C87.75 40.9824 87.6711 41.0653 87.5334 41.1188C87.3963 41.1695 87.2387 41.2056 87.0645 41.2235C86.8885 41.2423 86.6992 41.2435 86.4994 41.2283C86.2962 41.2142 86.1226 41.1977 85.9755 41.1799C85.5533 41.129 85.2211 41.0562 84.9795 40.9569C84.7363 40.859 84.5642 40.7442 84.455 40.6147C84.3474 40.4839 84.2799 40.3386 84.2525 40.1771C84.2268 40.0159 84.2165 39.8386 84.2274 39.6431C84.2455 38.4863 84.3366 37.3026 84.5019 36.0933C84.6669 34.8857 84.846 33.7022 85.0354 32.5451C85.1585 31.7934 85.282 31.0386 85.4068 30.2765C85.5313 29.5159 85.705 28.7747 85.9318 28.0563C85.9541 27.9203 86.0249 27.8064 86.148 27.7124C86.2707 27.6199 86.416 27.5494 86.5869 27.5013C86.7549 27.4516 86.9172 27.4175 87.0708 27.3957C87.2242 27.3754 87.3552 27.3719 87.4593 27.3844C87.6064 27.4022 87.7919 27.4245 88.0127 27.4512C88.2334 27.4778 88.4471 27.5171 88.6549 27.5734C88.8599 27.6264 89.0311 27.6964 89.1688 27.7816C89.3032 27.8679 89.3618 27.978 89.3398 28.1125C89.3367 28.1314 89.3279 28.1453 89.3167 28.1544C89.3037 28.1632 89.2952 28.1757 89.292 28.1947C89.2827 28.2518 89.2932 28.2977 89.3184 28.3322C89.3475 28.364 89.3565 28.3994 89.3502 28.4373C89.2554 29.0166 89.1454 29.5983 89.0155 30.1824C88.889 30.7668 88.7746 31.3556 88.6766 31.9538C89.0965 31.6316 89.506 31.3021 89.9034 30.9667C90.3024 30.6314 90.7022 30.2919 91.1029 29.9466C91.2784 29.7916 91.4677 29.6117 91.6733 29.4112C91.8794 29.2094 92.1011 29.0302 92.3424 28.8714C92.5833 28.7155 92.8457 28.5861 93.1322 28.4805C93.4182 28.3778 93.7301 28.3467 94.066 28.3873C94.3824 28.4254 94.6441 28.5317 94.8523 28.7045C95.0608 28.8757 95.1371 29.1266 95.0835 29.4542C95.0741 29.5112 95.0582 29.5496 95.0342 29.5661C94.717 30.0589 94.3368 30.5082 93.8947 30.9173C93.4511 31.326 92.9827 31.726 92.4875 32.1197C91.9928 32.512 91.4945 32.9039 90.9903 33.295C90.4842 33.6858 90.0136 34.1094 89.5731 34.5678C90.1033 34.8675 90.5797 35.2649 91.0064 35.7579C91.4294 36.2521 91.8123 36.8024 92.1541 37.4149C92.4944 38.0257 92.7918 38.6613 93.0489 39.3218C93.3064 39.9808 93.5348 40.6287 93.7329 41.2612Z" fill="#FCF9CE"/>
<path fill-rule="evenodd" clip-rule="evenodd" d="M111.753 136.924L111.822 136.503C111.83 136.504 111.837 136.505 111.845 136.506C111.813 136.645 111.783 136.784 111.753 136.924Z" fill="#D7D5CB"/>
<path fill-rule="evenodd" clip-rule="evenodd" d="M111.082 141.021C110.163 140.905 109.242 140.791 108.325 140.676C99.3938 139.555 90.4654 138.437 81.5341 137.316C67.1209 135.507 52.7057 133.699 38.2922 131.891C31.1334 130.992 23.9718 130.093 16.811 129.197L111.155 140.579C111.131 140.726 111.106 140.873 111.082 141.021Z" fill="#B74E39"/>
<path fill-rule="evenodd" clip-rule="evenodd" d="M111.155 140.579L16.8109 129.196L16.8163 129.163C12.5797 128.44 9.05034 126.564 6.94379 124.147L14.4581 125.054C15.2079 125.535 15.9994 125.947 16.8003 126.271C19.5602 127.393 22.5535 127.965 25.5798 128.33C27.5342 128.566 29.5026 128.716 31.4302 128.871C32.9217 128.99 34.4065 129.146 35.8883 129.324C38.2991 129.615 40.7008 129.966 43.1021 130.317C45.5045 130.668 47.9067 131.019 50.3193 131.31C50.6297 131.348 50.941 131.384 51.2517 131.42C60.6799 132.492 70.2052 132.811 79.6245 133.948C79.8505 133.975 80.0776 134.004 80.3036 134.031C84.05 134.5 87.777 135.1 91.5265 135.552C93.16 135.749 94.7981 135.918 96.4435 136.035C96.7301 136.057 97.0176 136.075 97.304 136.088C100.351 136.248 103.425 136.115 106.481 136.156L111.774 136.795L111.753 136.925C111.499 138.125 111.34 139.369 111.152 140.579L111.155 140.579ZM111.806 136.598L108.721 136.225C109.611 136.271 110.5 136.341 111.384 136.448C111.53 136.465 111.676 136.484 111.822 136.504L111.806 136.598ZM14.0879 124.808L6.75055 123.923C6.00282 123.01 5.45064 122.029 5.13649 121.009L10.8819 121.702C11.702 122.876 12.8253 123.941 14.0879 124.808ZM10.733 121.482L5.07444 120.8C4.82906 119.908 4.75834 118.985 4.89883 118.056L9.91717 118.662C9.85968 119.57 10.1034 120.526 10.731 121.479C10.7317 121.48 10.7325 121.481 10.733 121.482ZM9.93471 118.463L4.93115 117.859C5.09383 116.936 5.45809 116.066 5.98031 115.266L11.1035 115.884C10.4593 116.654 10.0393 117.531 9.93471 118.463ZM11.2609 115.704L6.10677 115.082C6.73675 114.173 7.58299 113.358 8.59105 112.661L14.9103 113.423C14.7977 113.461 14.6858 113.5 14.5752 113.541C13.2554 114.026 12.0946 114.78 11.2609 115.704ZM15.3715 113.279L8.84702 112.492C11.6476 110.668 15.6436 109.695 19.9536 110L19.9579 109.974L114.302 121.356L113.934 123.601C113.493 123.588 113.054 123.56 112.617 123.507C112.508 123.494 112.4 123.479 112.291 123.463C107.614 122.761 102.923 122.151 98.2225 121.584C96.7532 121.407 95.2824 121.234 93.8119 121.063C88.5679 120.456 83.3177 119.875 78.0699 119.3C68.4544 118.244 58.835 117.212 49.2292 116.086C49.0547 116.065 48.8807 116.044 48.7062 116.023C45.575 115.646 42.4358 115.178 39.2918 114.71C36.148 114.242 32.9992 113.773 29.8476 113.393C27.0696 113.058 24.2895 112.791 21.509 112.655C19.5213 112.556 17.3205 112.709 15.3715 113.279Z" fill="#D0C9B4"/>
<path fill-rule="evenodd" clip-rule="evenodd" d="M14.9103 113.423L8.59129 112.66C8.67557 112.604 8.76266 112.55 8.84719 112.492L15.3714 113.279C15.216 113.324 15.0622 113.372 14.9103 113.423Z" fill="#CCB3A8"/>
<path fill-rule="evenodd" clip-rule="evenodd" d="M11.1035 115.884L5.98045 115.266C6.02008 115.203 6.06168 115.138 6.10684 115.081L11.2607 115.703C11.207 115.763 11.1545 115.823 11.1035 115.884Z" fill="#CCB3A8"/>
<path fill-rule="evenodd" clip-rule="evenodd" d="M9.91706 118.661L4.8989 118.056L4.93115 117.859L9.93454 118.463C9.92708 118.529 9.92127 118.595 9.91706 118.661Z" fill="#CCB3A8"/>
<path fill-rule="evenodd" clip-rule="evenodd" d="M10.8817 121.701L5.13652 121.008C5.11215 120.938 5.09228 120.87 5.0744 120.8L10.7327 121.482C10.7813 121.556 10.8308 121.629 10.8817 121.701Z" fill="#CCB3A8"/>
<path fill-rule="evenodd" clip-rule="evenodd" d="M111.774 136.795L106.481 136.156C107.229 136.166 107.976 136.187 108.721 136.225L111.807 136.597L111.774 136.795ZM14.4583 125.054L6.94396 124.147C6.87596 124.075 6.81326 123.998 6.75073 123.922L14.0881 124.808C14.2103 124.892 14.3336 124.973 14.4583 125.054Z" fill="#CCB3A8"/>
<path fill-rule="evenodd" clip-rule="evenodd" d="M99.7806 107.499C96.458 107.099 93.1344 106.622 89.85 106.189C77.4121 104.548 65.0251 102.656 52.4959 101.145C46.1729 100.382 40.0337 99.3742 33.8721 98.3624C31.0101 97.8914 27.944 97.0217 24.9111 96.6557C22.5392 96.3696 20.1879 96.3916 17.9708 97.1538C18.4998 91.7599 20.0898 86.2629 21.5059 81.0193C23.7576 72.686 25.3778 64.1542 26.7757 55.615C28.6536 44.1445 29.9821 32.323 32.716 20.9842C33.5327 17.5998 34.9849 15.0648 39.0443 14.6299C44.2894 14.0664 50.2493 14.3365 55.5649 14.3081C58.7683 14.2899 62.028 14.5691 65.2922 14.963C69.5111 15.472 73.7374 16.1725 77.8558 16.6694C85.999 17.6518 93.8234 19.1582 101.733 20.639C106.898 21.6051 115.036 23.151 117.64 27.9145C119.127 30.6385 117.645 33.1415 117.209 35.917C116.653 39.4521 116.321 43.1335 115.729 46.7479C114.396 54.8907 112.521 62.7592 111.187 70.9034C110.078 77.6815 108.968 84.4582 107.859 91.2363C107.364 94.2568 106.809 97.2281 106.968 100.213C107.106 102.819 107.641 105.592 106.805 108.192C104.473 108.028 102.127 107.783 99.7806 107.499ZM45.6289 18.7372C44.7122 18.6266 43.8635 19.2178 43.727 20.0515L40.7527 38.2195C40.6155 39.0577 41.2418 39.8253 42.1584 39.9359L95.8915 46.4188C96.8081 46.5294 97.6614 45.9403 97.7986 45.1021L100.773 26.9341C100.909 26.1004 100.279 25.3307 99.3619 25.2201L45.6289 18.7372Z" fill="#E3674B"/>
<path fill-rule="evenodd" clip-rule="evenodd" d="M95.8915 46.4186L42.1584 39.9357C41.2418 39.8251 40.6155 39.0575 40.7527 38.2193L43.727 20.0513C43.8635 19.2176 44.7122 18.6264 45.6289 18.737L99.3619 25.2199C100.279 25.3305 100.909 26.1002 100.773 26.9339L97.7986 45.1018C97.6613 45.9401 96.8081 46.5292 95.8915 46.4186ZM49.2016 37.1563C49.4931 37.3481 49.8186 37.4919 50.1786 37.5845C50.5404 37.6759 50.8995 37.7446 51.2576 37.7879C51.8911 37.8643 52.566 37.8367 53.2868 37.7089C54.0061 37.5796 54.6724 37.3451 55.2874 37.0063C55.9021 36.6687 56.4368 36.2216 56.8931 35.6665C57.349 35.113 57.6389 34.4589 57.762 33.7071C57.8597 33.1103 57.7911 32.5425 57.558 32.0028C57.3026 31.4606 56.9227 31.0224 56.4199 30.6857C55.9154 30.3504 55.3902 30.0707 54.8475 29.8487C55.5025 29.5146 56.0964 29.085 56.6215 28.5577C57.1496 28.0322 57.4697 27.4219 57.5831 26.7287C57.6966 26.0354 57.6029 25.4528 57.3028 24.984C57.0041 24.5169 56.6102 24.1338 56.1218 23.8392C55.6317 23.5444 55.1097 23.3247 54.5532 23.1771C53.9963 23.0324 53.5178 22.9358 53.1165 22.8874C52.5262 22.8162 51.932 22.7982 51.3358 22.8337C50.7394 22.8706 50.1471 22.9812 49.5576 23.1635C49.193 23.1598 48.8781 23.2098 48.6144 23.3167C48.349 23.4235 48.1122 23.644 47.9083 23.9834C47.7026 24.3225 47.5152 24.81 47.347 25.4489C47.1774 26.0862 47.0072 26.9264 46.8367 27.9679C46.4392 30.3959 46.2367 32.8191 46.2261 35.2343C46.2315 35.4705 46.2368 35.6979 46.2435 35.9151C46.2518 36.1338 46.3077 36.321 46.4102 36.4811C46.5131 36.6396 46.6844 36.7796 46.9212 36.8976C47.1616 37.0132 47.513 37.0989 47.9768 37.1549C48.1655 37.1777 48.3621 37.1924 48.5651 37.1976C48.7682 37.2026 48.9808 37.1894 49.2016 37.1563ZM88.0909 36.1298C88.5931 36.878 89.0307 37.6721 89.4099 38.5143C89.7877 39.3548 90.0862 40.2217 90.3057 41.1134C90.4234 41.5795 90.5826 41.9223 90.7829 42.1434C90.9817 42.3643 91.4313 42.5169 92.1272 42.6009C92.4854 42.6441 92.8542 42.6528 93.2328 42.6314C93.6117 42.6084 93.8268 42.451 93.874 42.1628C93.8992 42.0092 93.887 41.8542 93.8368 41.7018C93.7856 41.5465 93.7523 41.4009 93.7329 41.2613C93.5348 40.6287 93.3064 39.9808 93.0488 39.3218C92.7917 38.6613 92.4943 38.0257 92.1541 37.4149C91.8123 36.8024 91.4293 36.2521 91.0063 35.7579C90.5797 35.265 90.1032 34.8675 89.5731 34.5678C90.0136 34.1094 90.4841 33.6858 90.9902 33.295C91.4945 32.904 91.9927 32.512 92.4875 32.1197C92.9826 31.726 93.451 31.3261 93.8946 30.9173C94.3367 30.5082 94.7169 30.0589 95.0341 29.5661C95.0581 29.5496 95.0741 29.5113 95.0834 29.4542C95.1371 29.1267 95.0608 28.8758 94.8523 28.7046C94.644 28.5317 94.3824 28.4255 94.0659 28.3873C93.73 28.3468 93.4181 28.3779 93.1321 28.4805C92.8457 28.5862 92.5833 28.7155 92.3423 28.8714C92.101 29.0302 91.8794 29.2094 91.6732 29.4112C91.4677 29.6117 91.2784 29.7916 91.1028 29.9466C90.7021 30.292 90.3024 30.6315 89.9033 30.9668C89.5059 31.3021 89.0964 31.6316 88.6766 31.9538C88.7745 31.3556 88.889 30.7668 89.0155 30.1824C89.1454 29.5984 89.2554 29.0166 89.3502 28.4374C89.3564 28.3994 89.3475 28.364 89.3184 28.3322C89.2932 28.2978 89.2826 28.2518 89.292 28.1948C89.2951 28.1757 89.3037 28.1633 89.3167 28.1544C89.3279 28.1454 89.3367 28.1314 89.3398 28.1125C89.3618 27.978 89.3031 27.8679 89.1688 27.7816C89.0311 27.6964 88.8599 27.6265 88.6548 27.5734C88.4471 27.5171 88.2334 27.4779 88.0126 27.4512C87.7918 27.4246 87.6063 27.4022 87.4592 27.3844C87.3552 27.3719 87.2242 27.3754 87.0707 27.3957C86.9172 27.4175 86.7549 27.4516 86.5869 27.5013C86.416 27.5494 86.2707 27.6199 86.1479 27.7124C86.0249 27.8064 85.954 27.9203 85.9317 28.0563C85.705 28.7747 85.5312 29.5159 85.4067 30.2765C85.282 31.0386 85.1584 31.7934 85.0353 32.5452C84.8459 33.7022 84.6669 34.8858 84.5018 36.0934C84.3365 37.3026 84.2455 38.4864 84.2274 39.6431C84.2164 39.8387 84.2268 40.0159 84.2524 40.1772C84.2799 40.3386 84.3473 40.4839 84.455 40.6147C84.5642 40.7443 84.7362 40.859 84.9795 40.9569C85.221 41.0562 85.5533 41.129 85.9755 41.18C86.1226 41.1977 86.2961 41.2142 86.4994 41.2283C86.6991 41.2435 86.8885 41.2424 87.0645 41.2235C87.2386 41.2056 87.3962 41.1695 87.5334 41.1189C87.671 41.0654 87.7499 40.9824 87.7691 40.8653C87.7912 40.0625 87.8204 39.2667 87.8525 38.4726C87.8861 37.68 87.9649 36.8991 88.0909 36.1298ZM79.2447 26.0812C79.0723 26.0604 78.8965 26.0447 78.7172 26.0343C77.6345 25.9618 76.6872 26.1295 75.8789 26.5331C75.0707 26.9368 74.3804 27.477 73.8095 28.1539C73.235 28.8333 72.773 29.613 72.4265 30.4944C72.0765 31.3769 71.8324 32.25 71.6904 33.1173C71.5513 33.9671 71.5302 34.7835 71.6262 35.5722C71.7225 36.3593 71.9549 37.081 72.3196 37.7336C72.6855 38.3877 73.1933 38.9323 73.8422 39.3626C74.4924 39.7945 75.3021 40.0698 76.2729 40.1869C77.3672 40.3189 78.3663 40.1933 79.2673 39.8113C80.1682 39.4292 80.9514 38.8794 81.6169 38.1633C82.282 37.4471 82.8334 36.6097 83.2697 35.6494C83.7057 34.6893 84.0078 33.701 84.1752 32.6785C84.3363 31.6942 84.3197 30.8091 84.1261 30.0192C83.9324 29.229 83.5935 28.5498 83.1078 27.9795C82.619 27.4089 81.9996 26.9569 81.2506 26.6204C80.6408 26.349 79.9734 26.1692 79.2447 26.0812ZM66.3134 24.5211C66.1407 24.5002 65.9645 24.4845 65.7849 24.474C64.7007 24.4014 63.7549 24.5692 62.9467 24.9729C62.14 25.3767 61.4496 25.9169 60.8773 26.5936C60.3044 27.2732 59.8425 28.0529 59.4942 28.9341C59.1459 29.8168 58.9002 30.6897 58.7583 31.5571C58.6191 32.4068 58.5996 33.2234 58.6956 34.0122C58.7918 34.7992 59.0227 35.5207 59.3889 36.1735C59.7548 36.8277 60.2628 37.3722 60.9116 37.8026C61.5603 38.2343 62.3714 38.5097 63.3407 38.6266C64.4365 38.7588 65.4358 38.6333 66.3366 38.2512C67.236 37.869 68.0192 37.3191 68.6845 36.603C69.3498 35.8868 69.9012 35.0494 70.3373 34.0891C70.7735 33.129 71.0754 32.1407 71.2428 31.1182C71.404 30.1339 71.389 29.249 71.1954 28.4591C71.0018 27.669 70.6629 26.9897 70.1756 26.4192C69.6883 25.8489 69.0689 25.3968 68.3167 25.0599C67.7108 24.789 67.0432 24.6091 66.3134 24.5211ZM51.3832 36.0339C50.7931 35.9627 50.2327 35.7088 49.7043 35.2706C49.7106 35.2325 49.7038 35.2034 49.6848 35.1801C49.6913 34.4933 49.7121 33.8082 49.7492 33.1237C49.7858 32.4418 49.8369 31.7604 49.906 31.0796C50.3906 31.1381 50.9153 31.112 51.481 31.0042C52.0484 30.8951 52.5901 30.7651 53.1094 30.6116C53.4762 30.872 53.82 31.203 54.1407 31.6055C54.4616 32.0067 54.5658 32.5563 54.4523 33.2495C54.301 34.1739 53.9355 34.8921 53.3574 35.404C52.7782 35.9129 52.1224 36.1231 51.3832 36.0339ZM76.5118 38.918C76.1326 38.8722 75.8418 38.6462 75.6394 38.2385C75.437 37.8308 75.2954 37.3513 75.2141 36.8016C75.1329 36.2517 75.098 35.6674 75.1127 35.0486C75.129 34.4315 75.1733 33.8925 75.2492 33.4288C75.3466 32.8335 75.4726 32.2029 75.623 31.5438C75.7752 30.8834 75.9778 30.2636 76.2339 29.6858C76.4901 29.1067 76.8037 28.5957 77.1787 28.1488C77.5518 27.703 78.0227 27.387 78.5918 27.1991C78.8138 27.1482 78.9689 27.1267 79.0538 27.1369C79.3897 27.1775 79.6785 27.3853 79.9197 27.756C80.1584 28.1309 80.3442 28.5709 80.4765 29.0777C80.6069 29.5857 80.688 30.1159 80.7151 30.6681C80.742 31.2217 80.7238 31.7014 80.6574 32.1065C80.5753 32.6082 80.3955 33.2487 80.117 34.0325C79.8377 34.8133 79.5037 35.5783 79.1118 36.3277C78.7219 37.0755 78.2999 37.7093 77.8501 38.2248C77.4004 38.7405 76.9532 38.9712 76.5118 38.918ZM63.5812 37.3579C63.202 37.3121 62.9095 37.086 62.7089 36.6785C62.5064 36.2707 62.3648 35.7912 62.2819 35.2413C62.1989 34.6912 62.1673 34.1073 62.1822 33.4885C62.1985 32.8714 62.2442 32.3326 62.3201 31.8689C62.4176 31.2736 62.5405 30.6426 62.6907 29.9835C62.8428 29.3231 63.0471 28.7035 63.3015 28.1256C63.5594 27.5467 63.873 27.0356 64.2465 26.5885C64.6211 26.1429 65.092 25.8269 65.6595 25.6388C65.8816 25.588 66.0368 25.5664 66.1215 25.5766C66.459 25.6174 66.748 25.8252 66.9873 26.1957C67.2277 26.5709 67.4118 27.0107 67.5443 27.5174C67.6764 28.0256 67.7558 28.5557 67.7846 29.1081C67.8115 29.6616 67.7932 30.1413 67.7269 30.5464C67.6448 31.0481 67.4633 31.6884 67.1864 32.4724C66.9069 33.2532 66.5713 34.0181 66.1795 34.7674C65.7897 35.5153 65.3677 36.1491 64.9179 36.6645C64.4682 37.1802 64.0225 37.4111 63.5812 37.3579ZM50.0183 29.7955C50.0778 29.1733 50.1401 28.5334 50.2044 27.8715C50.2699 27.2126 50.3628 26.5154 50.4828 25.7825C50.5869 25.1462 50.7906 24.7189 51.0972 24.5009C51.4005 24.2823 51.7937 24.2014 52.2801 24.2601C52.8495 24.3288 53.3417 24.5702 53.7569 24.9828C54.1733 25.3984 54.3259 25.9419 54.2152 26.6177C54.0234 27.4 53.7506 27.9802 53.398 28.3612C53.0452 28.7423 52.6632 29.0139 52.2477 29.18C51.8338 29.3464 51.4288 29.4601 51.0324 29.5196C50.6358 29.5807 50.2979 29.6727 50.0183 29.7955Z" fill="#ED9A76"/>
<path fill-rule="evenodd" clip-rule="evenodd" d="M51.2576 37.788C50.8994 37.7448 50.5404 37.6761 50.1785 37.5847C49.8185 37.4921 49.4931 37.3483 49.2016 37.1565C48.9807 37.1896 48.7681 37.2028 48.5651 37.1977C48.362 37.1925 48.1654 37.1778 47.9768 37.1551C47.5129 37.0991 47.1615 37.0134 46.9211 36.8978C46.6843 36.7798 46.5131 36.6397 46.4101 36.4813C46.3076 36.3212 46.2517 36.134 46.2435 35.9153C46.2367 35.698 46.2314 35.4707 46.226 35.2345C46.2366 32.8193 46.4391 30.3961 46.8366 27.968C47.0071 26.9266 47.1773 26.0864 47.3469 25.4491C47.5151 24.8102 47.7026 24.3226 47.9082 23.9836C48.1121 23.6442 48.3489 23.4237 48.6143 23.3169C48.8781 23.21 49.1929 23.16 49.5576 23.1637C50.147 22.9813 50.7393 22.8708 51.3357 22.8339C51.932 22.7984 52.5261 22.8163 53.1164 22.8876C53.5178 22.936 53.9963 23.0326 54.5531 23.1772C55.1096 23.3249 55.6316 23.5446 56.1217 23.8393C56.6101 24.134 57.0041 24.5171 57.3027 24.9842C57.6028 25.453 57.6966 26.0355 57.5831 26.7289C57.4696 27.4221 57.1496 28.0324 56.6214 28.5579C56.0964 29.0852 55.5024 29.5147 54.8474 29.8489C55.3901 30.0709 55.9153 30.3506 56.4199 30.6859C56.9227 31.0226 57.3026 31.4608 57.558 32.003C57.791 32.5427 57.8596 33.1105 57.7619 33.7073C57.6388 34.459 57.3489 35.1132 56.8931 35.6667C56.4368 36.2218 55.9021 36.6689 55.2874 37.0065C54.6723 37.3452 54.006 37.5797 53.2868 37.7091C52.566 37.8369 51.891 37.8645 51.2576 37.788ZM53.1094 30.6118C52.5901 30.7653 52.0484 30.8953 51.4809 31.0044C50.9152 31.1121 50.3905 31.1382 49.9059 31.0798C49.8368 31.7606 49.7857 32.442 49.7491 33.1238C49.712 33.8084 49.6913 34.4935 49.6848 35.1803C49.7037 35.2036 49.7105 35.2327 49.7043 35.2708C50.2327 35.709 50.793 35.9629 51.3832 36.0341C52.1224 36.1233 52.7781 35.9131 53.3573 35.4042C53.9354 34.8923 54.3009 34.174 54.4522 33.2497C54.5657 32.5564 54.4615 32.0069 54.1407 31.6057C53.8199 31.2031 53.4762 30.8722 53.1094 30.6118ZM52.28 24.2603C51.7936 24.2016 51.4004 24.2825 51.0971 24.501C50.7906 24.7191 50.5869 25.1464 50.4827 25.7827C50.3627 26.5155 50.2698 27.2128 50.2043 27.8717C50.14 28.5336 50.0778 29.1734 50.0182 29.7957C50.2978 29.6728 50.6358 29.5809 51.0323 29.5197C51.4287 29.4603 51.8337 29.3466 52.2476 29.1802C52.6632 29.0141 53.0451 28.7425 53.3979 28.3614C53.7506 27.9803 54.0233 27.4002 54.2152 26.6179C54.3258 25.9421 54.1732 25.3986 53.7568 24.983C53.3416 24.5704 52.8495 24.329 52.28 24.2603Z" fill="#FDF9D1"/>
<path fill-rule="evenodd" clip-rule="evenodd" d="M63.3406 38.6266C62.3713 38.5097 61.5602 38.2342 60.9115 37.8025C60.2627 37.3722 59.7547 36.8276 59.3888 36.1735C59.0226 35.5207 58.7917 34.7992 58.6956 34.0121C58.5995 33.2234 58.6191 32.4068 58.7582 31.557C58.9002 30.6897 59.1458 29.8168 59.4941 28.9341C59.8424 28.0529 60.3043 27.2732 60.8773 26.5936C61.4496 25.9169 62.1399 25.3767 62.9466 24.9728C63.7548 24.5692 64.7006 24.4013 65.7848 24.474C65.9644 24.4845 66.1406 24.5002 66.3133 24.521C67.0431 24.6091 67.7107 24.789 68.3167 25.0599C69.0688 25.3968 69.6882 25.8488 70.1755 26.4192C70.6628 26.9897 71.0017 27.6689 71.1953 28.459C71.3889 29.249 71.4039 30.1339 71.2427 31.1182C71.0753 32.1407 70.7734 33.129 70.3372 34.0891C69.9011 35.0494 69.3497 35.8868 68.6844 36.6029C68.0191 37.3191 67.2359 37.8689 66.3365 38.2512C65.4357 38.6332 64.4364 38.7588 63.3406 38.6266ZM66.1214 25.5766C66.0367 25.5664 65.8815 25.5879 65.6594 25.6387C65.0919 25.8268 64.621 26.1429 64.2464 26.5885C63.8729 27.0355 63.5593 27.5466 63.3014 28.1255C63.047 28.7035 62.8427 29.3231 62.6906 29.9835C62.5404 30.6426 62.4175 31.2736 62.32 31.8689C62.2441 32.3326 62.1984 32.8714 62.1821 33.4885C62.1672 34.1072 62.1988 34.6912 62.2818 35.2413C62.3647 35.7912 62.5063 36.2707 62.7088 36.6784C62.9094 37.0859 63.202 37.3121 63.5811 37.3579C64.0224 37.4111 64.4681 37.1802 64.9178 36.6645C65.3676 36.149 65.7896 35.5152 66.1794 34.7674C66.5712 34.018 66.9069 33.2532 67.1863 32.4724C67.4632 31.6884 67.6447 31.0481 67.7268 30.5464C67.7931 30.1413 67.8114 29.6616 67.7845 29.108C67.7557 28.5556 67.6763 28.0256 67.5442 27.5174C67.4117 27.0106 67.2276 26.5708 66.9872 26.1957C66.7479 25.8252 66.4589 25.6173 66.1214 25.5766Z" fill="#FDF9D1"/>
<path fill-rule="evenodd" clip-rule="evenodd" d="M76.273 40.1869C75.3022 40.0698 74.4925 39.7945 73.8423 39.3626C73.1934 38.9323 72.6856 38.3878 72.3197 37.7336C71.955 37.081 71.7226 36.3593 71.6263 35.5723C71.5303 34.7835 71.5514 33.9671 71.6905 33.1173C71.8325 32.25 72.0766 31.3769 72.4266 30.4944C72.7731 29.613 73.2351 28.8333 73.8096 28.1539C74.3805 27.477 75.0708 26.9368 75.879 26.5331C76.6873 26.1295 77.6346 25.9618 78.7173 26.0343C78.8966 26.0447 79.0724 26.0605 79.2448 26.0812C79.9735 26.1692 80.6409 26.349 81.2507 26.6204C81.9997 26.9569 82.6191 27.409 83.1079 27.9795C83.5935 28.5498 83.9325 29.229 84.1262 30.0192C84.3198 30.8091 84.3364 31.6942 84.1753 32.6785C84.0079 33.701 83.7058 34.6893 83.2698 35.6494C82.8335 36.6097 82.2821 37.4471 81.617 38.1633C80.9515 38.8794 80.1683 39.4292 79.2674 39.8113C78.3664 40.1933 77.3673 40.3189 76.273 40.1869ZM79.0539 27.1369C78.969 27.1267 78.8139 27.1482 78.5919 27.1991C78.0228 27.387 77.5519 27.703 77.1788 28.1488C76.8038 28.5957 76.4902 29.1068 76.234 29.6859C75.9779 30.2636 75.7753 30.8834 75.6231 31.5438C75.4727 32.2029 75.3467 32.8335 75.2493 33.4288C75.1734 33.8925 75.1291 34.4315 75.1128 35.0486C75.0981 35.6674 75.133 36.2517 75.2142 36.8016C75.2955 37.3513 75.4371 37.8308 75.6395 38.2385C75.8419 38.6463 76.1327 38.8722 76.5119 38.918C76.9533 38.9712 77.4005 38.7405 77.8502 38.2248C78.3 37.7093 78.722 37.0756 79.1119 36.3277C79.5038 35.5784 79.8378 34.8133 80.1171 34.0325C80.3956 33.2487 80.5754 32.6082 80.6575 32.1065C80.7239 31.7014 80.7421 31.2217 80.7152 30.6681C80.6881 30.1159 80.607 29.5857 80.4766 29.0777C80.3443 28.571 80.1585 28.131 79.9198 27.756C79.6786 27.3853 79.3898 27.1775 79.0539 27.1369Z" fill="#FDF9D1"/>
<path fill-rule="evenodd" clip-rule="evenodd" d="M92.1272 42.6009C91.4314 42.5169 90.9818 42.3643 90.7829 42.1434C90.5826 41.9222 90.4235 41.5794 90.3058 41.1133C90.0863 40.2217 89.7878 39.3548 89.41 38.5143C89.0308 37.6721 88.5931 36.8779 88.0909 36.1297C87.965 36.899 87.8862 37.68 87.8525 38.4726C87.8204 39.2667 87.7912 40.0625 87.7691 40.8653C87.75 40.9824 87.6711 41.0653 87.5334 41.1188C87.3963 41.1695 87.2387 41.2056 87.0645 41.2235C86.8885 41.2423 86.6992 41.2435 86.4994 41.2283C86.2962 41.2142 86.1226 41.1977 85.9755 41.1799C85.5533 41.129 85.2211 41.0562 84.9795 40.9569C84.7363 40.859 84.5642 40.7442 84.455 40.6147C84.3474 40.4839 84.2799 40.3386 84.2525 40.1771C84.2268 40.0159 84.2165 39.8386 84.2274 39.6431C84.2455 38.4863 84.3366 37.3026 84.5019 36.0933C84.6669 34.8857 84.846 33.7022 85.0354 32.5451C85.1585 31.7934 85.282 31.0386 85.4068 30.2765C85.5313 29.5159 85.705 28.7747 85.9318 28.0563C85.9541 27.9203 86.0249 27.8064 86.148 27.7124C86.2707 27.6199 86.416 27.5494 86.5869 27.5013C86.7549 27.4516 86.9172 27.4175 87.0708 27.3957C87.2242 27.3754 87.3552 27.3719 87.4593 27.3844C87.6064 27.4022 87.7919 27.4245 88.0127 27.4512C88.2334 27.4778 88.4471 27.5171 88.6549 27.5734C88.8599 27.6264 89.0311 27.6964 89.1688 27.7816C89.3032 27.8679 89.3618 27.978 89.3398 28.1125C89.3367 28.1314 89.3279 28.1453 89.3167 28.1544C89.3037 28.1632 89.2952 28.1757 89.292 28.1947C89.2827 28.2518 89.2932 28.2977 89.3184 28.3322C89.3475 28.364 89.3565 28.3994 89.3502 28.4373C89.2554 29.0166 89.1454 29.5983 89.0155 30.1824C88.889 30.7668 88.7746 31.3556 88.6766 31.9538C89.0965 31.6316 89.506 31.3021 89.9034 30.9667C90.3024 30.6314 90.7022 30.2919 91.1029 29.9466C91.2784 29.7916 91.4677 29.6117 91.6733 29.4112C91.8794 29.2094 92.1011 29.0302 92.3424 28.8714C92.5833 28.7155 92.8457 28.5861 93.1322 28.4805C93.4182 28.3778 93.7301 28.3467 94.066 28.3873C94.3824 28.4254 94.6441 28.5317 94.8523 28.7045C95.0608 28.8757 95.1371 29.1266 95.0835 29.4542C95.0741 29.5112 95.0582 29.5496 95.0342 29.5661C94.717 30.0589 94.3368 30.5082 93.8947 30.9173C93.4511 31.326 92.9827 31.726 92.4875 32.1197C91.9928 32.512 91.4945 32.9039 90.9903 33.295C90.4842 33.6858 90.0136 34.1094 89.5731 34.5678C90.1033 34.8675 90.5797 35.2649 91.0064 35.7579C91.4294 36.2521 91.8123 36.8024 92.1541 37.4149C92.4944 38.0257 92.7918 38.6613 93.0489 39.3218C93.3064 39.9808 93.5348 40.6287 93.7329 41.2612C93.7524 41.4009 93.7856 41.5465 93.8369 41.7018C93.8871 41.8542 93.8992 42.0092 93.8741 42.1627C93.8269 42.451 93.6118 42.6084 93.2329 42.6314C92.8543 42.6528 92.4854 42.6441 92.1272 42.6009Z" fill="#FDF9D1"/>
</g>
<defs>
<clipPath id="clip0_16454_1020">
<rect width="111.607" height="129.444" fill="white" transform="matrix(0.9928 0.119782 -0.16156 0.986863 21.2 0.988647)"/>
</clipPath>
</defs>
</svg>
