<svg width="212" height="201" viewBox="0 0 212 201" fill="none" xmlns="http://www.w3.org/2000/svg">
<path fill-rule="evenodd" clip-rule="evenodd" d="M45.9279 80.1614C45.9279 46.9843 72.823 20.0908 106 20.0908C139.176 20.0908 166.071 46.9843 166.071 80.1614C166.071 113.337 139.176 140.232 106 140.232C72.823 140.232 45.9279 113.337 45.9279 80.1614ZM40.7822 89.2622L29.9414 110.187L51.9317 118.662L52.0589 142.23L75.4688 139.515L86.5335 160.323L106 147.04L125.467 160.323L136.53 139.515L159.94 142.23L160.067 118.662L182.057 110.187L171.218 89.2622L186.75 71.5373L167.428 58.0456L172.945 35.1343L149.565 32.168L143.802 9.31613L121.722 17.5553L106 0L90.2766 17.5553L68.198 9.31613L62.435 32.168L39.0557 35.1343L44.5711 58.0456L25.2485 71.5373L40.7822 89.2622Z" fill="#F0A64D"/>
<path fill-rule="evenodd" clip-rule="evenodd" d="M106 26.7368C135.505 26.7368 159.424 50.6555 159.424 80.1608C159.424 109.666 135.505 133.585 106 133.585C76.4949 133.585 52.5762 109.666 52.5762 80.1608C52.5762 50.6555 76.4949 26.7368 106 26.7368Z" fill="#F0A64D"/>
<path fill-rule="evenodd" clip-rule="evenodd" d="M166.071 80.1614C166.071 46.9843 139.175 20.0908 106 20.0908V0L121.722 17.5553L143.802 9.31613L149.565 32.168L172.945 35.1343L167.427 58.0456L186.75 71.5373L171.218 89.2622L182.057 110.187L160.067 118.662L159.94 142.23L136.53 139.515L125.467 160.323L106 147.04V140.232C139.175 140.232 166.071 113.337 166.071 80.1614Z" fill="#EB8C3C"/>
<path fill-rule="evenodd" clip-rule="evenodd" d="M159.424 80.1608C159.424 109.666 135.505 133.585 106 133.585V26.7368C135.505 26.7368 159.424 50.6555 159.424 80.1608Z" fill="#EB8C3C"/>
<path d="M182.772 117.004V118.504H184.272H184.292C198.703 118.504 210.5 130.302 210.5 144.712C210.5 159.124 198.703 170.919 184.292 170.919H147.396H145.896V172.419C145.896 186.831 134.099 198.627 119.688 198.627H55.6203C41.2101 198.627 29.4128 186.831 29.4128 172.419V170.919H27.9128H27.7076C13.2957 170.919 1.5 159.124 1.5 144.712C1.5 130.302 13.2958 118.504 27.7076 118.504H64.7906H66.2906V117.004C66.2906 102.594 78.0864 90.7968 92.4981 90.7968H156.565C170.975 90.7968 182.772 102.594 182.772 117.004Z" fill="#FFFFFE" stroke="#DBDCD6" stroke-width="3"/>
<path fill-rule="evenodd" clip-rule="evenodd" d="M184.292 117.004H184.272C184.272 101.766 171.803 89.2968 156.565 89.2968H106V200.127H119.688C134.927 200.127 147.396 187.66 147.396 172.419H184.292C199.531 172.419 212 159.952 212 144.712C212 129.473 199.531 117.004 184.292 117.004Z" fill="#DBDCD6"/>
</svg>
