<svg width="20" height="20" viewBox="0 0 20 20" fill="none" xmlns="http://www.w3.org/2000/svg">
<path d="M18.7416 10.2606C18.7449 11.5805 18.4435 12.8825 17.8618 14.0606C17.1721 15.4724 16.1118 16.6598 14.7996 17.4899C13.4875 18.32 11.9753 18.76 10.4326 18.7606C9.14236 18.7641 7.86961 18.4557 6.71797 17.8606L1.14606 19.7606L3.00336 14.0606C2.42166 12.8825 2.12022 11.5805 2.12358 10.2606C2.12418 8.68241 2.5543 7.1355 3.36575 5.7932C4.1772 4.4509 5.33795 3.36622 6.71797 2.66065C7.86961 2.06558 9.14236 1.75721 10.4326 1.76065H10.9213C12.9588 1.87564 14.8833 2.75541 16.3262 4.23151C17.7692 5.70761 18.6292 7.6763 18.7416 9.76065V10.2606Z" stroke="#6A7889" stroke-width="2" stroke-linecap="round" stroke-linejoin="round"/>
</svg>
