<svg width="56" height="57" viewBox="0 0 56 57" fill="none" xmlns="http://www.w3.org/2000/svg">
<path d="M37.3635 31.1529C39.4065 30.1825 41.4407 29.4746 43.4389 29.041C44.0153 28.916 44.3836 28.3356 44.2617 27.7446C44.1398 27.1537 43.5743 26.7759 42.9972 26.901C40.6842 27.4028 38.3351 28.2421 35.9857 29.4019C34.6733 27.797 33.1709 26.119 31.55 24.457C29.8275 22.6911 28.0871 21.0611 26.4338 19.6579C27.8645 17.803 29.0322 15.7262 29.9157 13.4532C31.2932 9.90938 31.9917 5.86054 31.9917 1.41882C31.9917 0.814745 31.514 0.325073 30.925 0.325073C30.3359 0.325073 29.8582 0.814745 29.8582 1.41882C29.8582 8.26263 28.1467 13.9267 24.7669 18.2976C24.1291 17.7987 23.5107 17.3402 22.9201 16.9319C19.7586 14.7456 17.8756 14.2332 16.8231 15.2736C16.8157 15.2807 16.8079 15.2877 16.8006 15.295C16.7996 15.2961 16.7985 15.2971 16.7974 15.2981C16.7968 15.2987 16.7963 15.2995 16.7956 15.3C16.5261 15.5771 16.3596 15.9121 16.2966 16.3119L0.551777 54.8085C0.384299 55.218 0.474972 55.6908 0.781234 56.0048C0.985409 56.2141 1.25828 56.3252 1.53585 56.3252C1.67474 56.3252 1.81491 56.2974 1.94815 56.2401C1.95113 56.2388 1.94815 56.2401 1.95113 56.2388L39.4942 40.0963C39.8502 40.0373 40.1526 39.8881 40.4083 39.6522C40.4269 39.6363 40.4443 39.6195 40.4617 39.6026C40.4685 39.5957 40.4758 39.59 40.4826 39.583C40.4836 39.5819 40.4845 39.5807 40.4854 39.5798C40.4928 39.5723 40.4996 39.5642 40.5067 39.5565C41.5212 38.4773 41.0215 36.5467 38.8892 33.3053C38.4385 32.6202 37.9263 31.899 37.3635 31.1529ZM8.92966 48.5332C8.70703 49.9565 8.21196 50.8921 7.97375 51.2771L3.52767 53.1887L8.04309 42.1486C8.92657 44.4194 9.23283 46.5946 8.92966 48.5332ZM15.494 44.8324C15.0639 47.3463 13.9231 48.558 13.5987 48.8586L10.7877 50.0672C11.4126 47.7863 11.5769 44.1656 9.16189 39.4131L12.3587 31.5972C15.6755 38.0449 15.9244 42.3171 15.494 44.8324ZM19.2992 46.4074L16.9999 47.3961C17.219 46.8286 17.4122 46.1822 17.5522 45.4497C18.406 40.9814 17.0122 35.4566 13.4116 29.023L14.5658 26.201C15.4794 27.3281 16.5203 28.9234 16.9419 29.9292C17.1154 30.3434 17.5089 30.5914 17.9224 30.5914C18.0629 30.5914 18.2059 30.5627 18.3431 30.5023C18.8844 30.2637 19.1346 29.6206 18.902 29.0655C18.2765 27.5732 16.6903 25.2512 15.477 23.9731L17.2407 19.661C17.5496 20.2418 17.9322 20.8782 18.3911 21.5758C18.7071 22.0561 19.0533 22.5541 19.4256 23.066C23.0746 28.7432 22.992 34.5542 22.2787 38.4314C21.5201 42.5554 19.8958 45.5747 19.2992 46.4074ZM27.5187 42.8734L22.4545 45.0508C23.1857 43.4062 23.9317 41.2473 24.375 38.837C24.8702 36.1448 25.088 32.6046 24.1717 28.7816C24.677 29.3289 25.1969 29.8774 25.7301 30.4242C27.3258 32.0601 28.9363 33.5781 30.4793 34.9086C30.3263 40.0725 28.0163 42.4256 27.5187 42.8734ZM31.1958 41.2924C31.7668 40.081 32.2711 38.5199 32.496 36.5701C33.1398 37.0741 33.7642 37.5372 34.3601 37.9492C35.0408 38.4199 35.6613 38.8121 36.228 39.1288L31.1958 41.2924ZM34.9478 35.7063C32.6287 34.0216 29.8909 31.5964 27.2388 28.8772C24.5869 26.1581 22.2214 23.351 20.5784 20.9732C18.9895 18.6738 18.5613 17.4997 18.4485 16.9911C18.9446 17.1068 20.0897 17.5458 22.3323 19.1749C22.6649 19.4165 23.0067 19.6747 23.3549 19.9454C23.2801 20.0244 23.2063 20.1041 23.1303 20.1821C22.7137 20.6092 22.7137 21.3018 23.1303 21.729C23.3386 21.9425 23.6116 22.0494 23.8846 22.0494C24.1575 22.0494 24.4306 21.9425 24.6389 21.729C24.7728 21.5916 24.9048 21.4524 25.0353 21.3118C26.6534 22.6833 28.3643 24.2845 30.0414 26.004C31.4835 27.4827 32.8394 28.9868 34.0421 30.4341C33.8494 30.5439 33.6569 30.6554 33.4643 30.7694C32.9541 31.0715 32.7793 31.7404 33.0739 32.2634C33.2715 32.6143 33.63 32.8105 33.9988 32.8105C34.1797 32.8105 34.3632 32.7632 34.5311 32.6638C34.8272 32.4883 35.1236 32.32 35.4198 32.1556C35.8833 32.7591 36.3134 33.3459 36.7018 33.9081C38.2908 36.2075 38.7189 37.3816 38.8317 37.8902C38.3354 37.7744 37.1903 37.3354 34.9478 35.7063Z" fill="#6A7889"/>
<path d="M19.7643 31.8843C19.5224 31.3334 18.891 31.0877 18.3537 31.3357C17.8331 31.5758 17.592 32.1912 17.7975 32.7303C17.959 33.1637 18.3628 33.4336 18.7938 33.4336C18.9108 33.4336 19.0296 33.4137 19.1463 33.3719C19.7023 33.1724 19.9954 32.5484 19.8007 31.9782C19.7906 31.9486 19.7768 31.9129 19.7643 31.8843Z" fill="#6A7889"/>
<path d="M40.3043 17.2452C40.5126 17.4587 40.7856 17.5656 41.0586 17.5656C41.3316 17.5656 41.6045 17.4587 41.8129 17.2452C44.1963 14.8015 48.0578 13.6815 50.8771 13.4482C51.4643 13.3996 51.9019 12.872 51.8545 12.27C51.8071 11.6679 51.2937 11.221 50.7055 11.2678C47.5081 11.5323 43.0968 12.8352 40.3043 15.6984C39.8877 16.1256 39.8877 16.8181 40.3043 17.2452Z" fill="#6A7889"/>
<path d="M54.2958 11.4782C54.2656 11.4699 54.2349 11.4617 54.2039 11.4537C53.6322 11.3076 53.0534 11.6647 52.911 12.2509C52.7687 12.837 53.1167 13.4306 53.6884 13.5765L53.7429 13.5909C53.8355 13.6164 53.9285 13.6287 54.0201 13.6287C54.4909 13.6287 54.9219 13.3066 55.0497 12.8181C55.2024 12.2347 54.865 11.6349 54.2958 11.4782Z" fill="#6A7889"/>
<path d="M48.7391 19.3157C46.9745 19.3157 45.5389 20.7876 45.5389 22.5969C45.5389 24.4062 46.9745 25.8782 48.7391 25.8782C50.5037 25.8782 51.9394 24.4062 51.9394 22.5969C51.9394 20.7876 50.5036 19.3157 48.7391 19.3157ZM48.7391 23.6907C48.1509 23.6907 47.6724 23.2 47.6724 22.5969C47.6724 21.9938 48.1509 21.5032 48.7391 21.5032C49.3273 21.5032 49.8059 21.9938 49.8059 22.5969C49.8059 23.2 49.3273 23.6907 48.7391 23.6907Z" fill="#6A7889"/>
<path d="M21.6446 10.7846C23.4092 10.7846 24.8448 9.31258 24.8448 7.5033C24.8448 5.69402 23.4092 4.22205 21.6446 4.22205C19.88 4.22205 18.4443 5.69402 18.4443 7.5033C18.4443 9.31258 19.88 10.7846 21.6446 10.7846ZM21.6446 6.40955C22.2328 6.40955 22.7113 6.90021 22.7113 7.5033C22.7113 8.10639 22.2328 8.59705 21.6446 8.59705C21.0564 8.59705 20.5778 8.10639 20.5778 7.5033C20.5778 6.90032 21.0564 6.40955 21.6446 6.40955Z" fill="#6A7889"/>
<path d="M48.3863 32.4885C48.3863 31.8861 47.9071 31.3948 47.3196 31.3948C46.732 31.3948 46.2528 31.8861 46.2528 32.4885C46.2528 33.091 46.732 33.5823 47.3196 33.5823C47.9071 33.5823 48.3863 33.0909 48.3863 32.4885Z" fill="#6A7889"/>
<path d="M36.2249 10.7231C36.8125 10.7231 37.2917 10.2318 37.2917 9.62939C37.2917 9.02696 36.8125 8.53564 36.2249 8.53564C35.6374 8.53564 35.1582 9.02696 35.1582 9.62939C35.1583 10.2317 35.6375 10.7231 36.2249 10.7231Z" fill="#6A7889"/>
<path d="M50.5193 39.5979C49.9317 39.5979 49.4525 40.0893 49.4525 40.6918C49.4525 41.2942 49.9317 41.7855 50.5193 41.7855C51.1068 41.7855 51.5861 41.2942 51.5861 40.6918C51.5861 40.0893 51.1068 39.5979 50.5193 39.5979Z" fill="#6A7889"/>
<path d="M15.3176 3.60754C15.9051 3.60754 16.3843 3.11623 16.3843 2.51379C16.3843 1.91136 15.9051 1.42004 15.3176 1.42004C14.73 1.42004 14.2508 1.91136 14.2508 2.51379C14.2508 3.11623 14.73 3.60754 15.3176 3.60754Z" fill="#6A7889"/>
<path d="M12.0112 10.3L10.5514 9.79431C10.4104 9.74542 10.2977 9.62992 10.2501 9.48533L9.75691 7.98864C9.62634 7.59238 9.2645 7.32605 8.85658 7.32605C8.44866 7.32605 8.08682 7.59227 7.95625 7.98853L7.46309 9.48511C7.41541 9.62981 7.30265 9.74532 7.16163 9.79421L5.702 10.2998C5.31542 10.4337 5.05577 10.8047 5.05577 11.2231C5.05577 11.6413 5.31542 12.0123 5.7019 12.1462L7.16163 12.6518C7.30265 12.7007 7.41541 12.8163 7.46309 12.9609L7.95625 14.4575C8.08682 14.8538 8.44866 15.1201 8.85658 15.1201C9.2645 15.1201 9.62634 14.8539 9.75691 14.4576L10.2501 12.9609C10.2977 12.8163 10.4104 12.7007 10.5514 12.652L12.0112 12.1463C12.3976 12.0124 12.6574 11.6414 12.6574 11.2232C12.6573 10.8047 12.3975 10.4337 12.0112 10.3ZM8.85647 12.227C8.65422 11.788 8.3055 11.4306 7.87731 11.2231C8.3055 11.0157 8.65411 10.6582 8.85647 10.2191C9.05883 10.6582 9.40744 11.0156 9.83563 11.2231C9.40755 11.4306 9.05883 11.788 8.85647 12.227Z" fill="#6A7889"/>
<path d="M38.5731 18.0656L37.1133 17.5599C36.9723 17.511 36.8597 17.3956 36.812 17.251L36.3188 15.7543C36.1883 15.358 35.8264 15.0917 35.4185 15.0917C35.0106 15.0917 34.6487 15.3579 34.5182 15.7542L34.025 17.2507C33.9773 17.3954 33.8646 17.5109 33.7235 17.5598L32.2639 18.0655C31.8773 18.1993 31.6177 18.5703 31.6177 18.9887C31.6177 19.407 31.8773 19.778 32.2638 19.9118L33.7235 20.4175C33.8646 20.4664 33.9773 20.582 34.025 20.7266L34.5182 22.2231C34.6487 22.6194 35.0106 22.8857 35.4185 22.8857C35.8264 22.8857 36.1883 22.6195 36.3188 22.2233L36.812 20.7266C36.8597 20.582 36.9723 20.4664 37.1133 20.4176L38.5731 19.9119C38.9595 19.7781 39.2193 19.4071 39.2193 18.9888C39.2192 18.5703 38.9594 18.1993 38.5731 18.0656ZM35.4184 19.9927C35.2161 19.5536 34.8674 19.1962 34.4392 18.9887C34.8674 18.7813 35.216 18.4238 35.4184 17.9848C35.6207 18.4238 35.9694 18.7812 36.3975 18.9887C35.9695 19.1962 35.6207 19.5536 35.4184 19.9927Z" fill="#6A7889"/>
<path d="M48.4938 46.175L47.034 45.6693C46.893 45.6204 46.7804 45.5049 46.7327 45.3603L46.2395 43.8636C46.109 43.4674 45.7471 43.201 45.3392 43.201C44.9313 43.201 44.5694 43.4673 44.4389 43.8635L43.9457 45.3601C43.898 45.5048 43.7853 45.6203 43.6443 45.6692L42.1846 46.1748C41.7981 46.3087 41.5384 46.6797 41.5384 47.0981C41.5384 47.5163 41.7981 47.8873 42.1845 48.0212L43.6443 48.5268C43.7853 48.5757 43.898 48.6913 43.9457 48.8359L44.4389 50.3325C44.5694 50.7288 44.9313 50.9951 45.3392 50.9951C45.7471 50.9951 46.109 50.7289 46.2395 50.3326L46.7327 48.8359C46.7804 48.6913 46.893 48.5757 47.034 48.527L48.4938 48.0213C48.8803 47.8874 49.14 47.5164 49.14 47.0982C49.1399 46.6797 48.8802 46.3087 48.4938 46.175ZM45.3391 48.102C45.1368 47.663 44.7881 47.3056 44.3599 47.0981C44.7881 46.8907 45.1367 46.5332 45.3391 46.0941C45.5415 46.5332 45.8901 46.8906 46.3183 47.0981C45.8902 47.3056 45.5415 47.663 45.3391 48.102Z" fill="#6A7889"/>
</svg>
