<svg width="65" height="73" viewBox="0 0 65 73" fill="none" xmlns="http://www.w3.org/2000/svg">
<path d="M58.0673 36.1262L30.2988 42.471L31.6558 38.0412C31.8261 37.4855 31.5247 36.8935 30.9827 36.719L23.1891 34.2091C22.9289 34.1253 22.647 34.151 22.4049 34.2803C22.163 34.4098 21.9812 34.6323 21.8995 34.8992L18.6883 45.3821C18.3121 45.0309 17.863 44.7646 17.3633 44.6037C15.4965 44.0025 13.5004 45.0706 12.9143 46.9848C12.6194 47.9474 12.7366 48.9433 13.163 49.7721C13.1579 49.7748 13.1526 49.7772 13.1475 49.7799C12.3072 50.2296 11.6879 50.9879 11.4039 51.9152C11.1198 52.8424 11.2049 53.8277 11.6435 54.6892C12.0821 55.5508 12.8218 56.1857 13.7262 56.477C14.2261 56.638 14.7431 56.6816 15.2476 56.614L12.0358 67.098C11.954 67.3649 11.979 67.6541 12.1053 67.902C12.2316 68.15 12.4486 68.3364 12.7089 68.4202L20.5025 70.9301C20.681 70.9876 20.8632 70.9926 21.0336 70.9537C21.3806 70.8744 21.6779 70.6127 21.7921 70.24L28.4849 48.3924L32.5801 67.2346C32.7037 67.8031 33.2533 68.1613 33.8078 68.0346L63.5265 61.2442C64.0811 61.1175 64.4304 60.5539 64.3068 59.9854L59.295 36.9262C59.1715 36.3576 58.6218 35.9995 58.0673 36.1262V36.1262ZM23.5539 36.5375L29.3848 38.4153L25.8092 50.0874L19.9783 48.2096L23.5539 36.5375ZM24.3297 54.9172L18.4988 53.0394L19.3618 50.2219L25.1928 52.0997L24.3297 54.9172ZM14.8768 47.6168C15.0422 47.0769 15.4744 46.6972 15.9779 46.5822C16.2248 46.5257 16.4887 46.533 16.7468 46.616C17.5314 46.8687 17.9691 47.7287 17.7229 48.5332L17.2759 49.9924L15.8529 49.5341C15.0682 49.2814 14.6303 48.4213 14.8768 47.6168V47.6168ZM16.2123 53.4638C15.9659 54.2682 15.1272 54.7173 14.3423 54.4646C13.5577 54.2119 13.1199 53.3519 13.3663 52.5473C13.4858 52.1576 13.7459 51.8389 14.0992 51.6498C14.2171 51.5868 14.3407 51.5406 14.4671 51.5117C14.7193 51.4541 14.9831 51.465 15.2363 51.5465L16.6593 52.0048L16.2123 53.4638ZM20.1376 68.6017L14.3067 66.7239L17.8823 55.0518L23.7132 56.9296L20.1376 68.6017ZM29.8001 44.746L40.2418 42.3602L44.8061 63.3605L34.3644 65.7463L29.8001 44.746ZM62.0751 59.4148L51.6334 61.8006L50.4195 56.2157C50.2959 55.6472 49.7463 55.289 49.1918 55.4157C48.6372 55.5424 48.2879 56.106 48.4115 56.6745L49.6253 62.2594L46.8141 62.9017L42.2498 41.9014L45.061 41.259L46.3978 47.4097C46.5214 47.9782 47.0711 48.3364 47.6256 48.2097C48.1801 48.083 48.5294 47.5194 48.4058 46.9509L47.069 40.8002L57.5107 38.4144L62.0751 59.4148Z" fill="#6A7889"/>
<path d="M42.4912 36.2209C43.0457 36.0942 43.395 35.5306 43.2714 34.962L40.8524 23.8322C40.7289 23.2637 40.1792 22.9055 39.6247 23.0322C39.0702 23.1589 38.7208 23.7225 38.8444 24.291L41.2634 35.4209C41.387 35.9894 41.9367 36.3476 42.4912 36.2209Z" fill="#6A7889"/>
<path d="M48.5846 34.8293C49.1392 34.7026 49.4885 34.139 49.3649 33.5704C48.5109 29.6411 49.2004 25.606 51.3063 22.2085C51.611 21.7169 51.4694 21.065 50.9899 20.7525C50.5105 20.4401 49.8747 20.5854 49.57 21.0769C47.1694 24.9501 46.3833 29.55 47.3569 34.0292C47.4805 34.5978 48.0301 34.956 48.5846 34.8293Z" fill="#6A7889"/>
<path d="M35.1695 36.8134C35.2931 37.382 35.8428 37.7401 36.3973 37.6134C36.9518 37.4867 37.3011 36.9231 37.1776 36.3546C36.204 31.8753 33.5875 28.0528 29.81 25.5914C29.3306 25.279 28.6948 25.4242 28.3901 25.9159C28.0854 26.4075 28.2271 27.0593 28.7067 27.3717C32.0202 29.5309 34.3155 32.8841 35.1695 36.8134Z" fill="#6A7889"/>
<path d="M23.4939 25.5534C25.2655 25.1486 26.3856 23.3415 25.9908 21.5251C25.596 19.7086 23.8336 18.5602 22.062 18.965C20.2904 19.3698 19.1703 21.1768 19.5651 22.9933C19.9599 24.8097 21.7223 25.9582 23.4939 25.5534ZM22.5095 21.0239C23.1738 20.8721 23.8347 21.3027 23.9828 21.9839C24.1308 22.6651 23.7108 23.3427 23.0464 23.4945C22.3821 23.6463 21.7212 23.2156 21.5731 22.5345C21.4251 21.8533 21.8452 21.1756 22.5095 21.0239Z" fill="#6A7889"/>
<path d="M32.5583 19.9475C32.8224 19.8872 33.0577 19.7189 33.2026 19.4837C33.3477 19.2495 33.3977 18.9604 33.3386 18.6887C33.2797 18.4179 33.1146 18.1769 32.8862 18.0281C32.6579 17.8793 32.3749 17.8283 32.1108 17.8886C31.8468 17.949 31.6116 18.1183 31.4655 18.3527C31.3204 18.5868 31.2717 18.8767 31.3306 19.1475C31.3894 19.4182 31.5535 19.6595 31.7819 19.8083C32.0114 19.9579 32.2933 20.0081 32.5583 19.9475Z" fill="#6A7889"/>
<path d="M53.3831 29.8139C53.6115 29.9627 53.8944 30.0137 54.1585 29.9534C54.4226 29.893 54.6577 29.7237 54.8028 29.4895C54.9489 29.2552 54.9976 28.9653 54.9388 28.6945C54.8799 28.4238 54.7158 28.1825 54.4864 28.0339C54.2581 27.8851 53.9751 27.8342 53.711 27.8945C53.447 27.9548 53.2119 28.1242 53.0667 28.3583C52.9216 28.5925 52.8719 28.8826 52.9307 29.1533C52.9895 29.4241 53.1547 29.6651 53.3831 29.8139Z" fill="#6A7889"/>
<path d="M54.0106 17.4592C54.2747 17.3989 54.5098 17.2296 54.6549 16.9954C54.8 16.7613 54.8497 16.4711 54.7909 16.2004C54.7318 15.9286 54.5669 15.6886 54.3383 15.5388C54.1099 15.39 53.8272 15.34 53.5631 15.4004C53.2991 15.4607 53.0638 15.629 52.9186 15.8631C52.7737 16.0983 52.7238 16.3874 52.7829 16.6592C52.8417 16.9299 53.0069 17.171 53.2352 17.3198C53.4636 17.4686 53.7465 17.5196 54.0106 17.4592Z" fill="#6A7889"/>
<path d="M48.1853 50.7832C47.9212 50.8435 47.6859 51.0118 47.541 51.247C47.3959 51.4811 47.3459 51.7702 47.405 52.042C47.4639 52.3127 47.629 52.5538 47.8574 52.7026C48.0857 52.8514 48.3687 52.9024 48.6328 52.842C48.8968 52.7817 49.1319 52.6124 49.2771 52.3782C49.4222 52.1441 49.4719 51.8539 49.413 51.5832C49.354 51.3114 49.189 51.0714 48.9607 50.9226C48.7321 50.7728 48.4493 50.7228 48.1853 50.7832Z" fill="#6A7889"/>
<path d="M44.2099 5.27286L42.7326 5.11087C42.5899 5.09518 42.4602 5.0107 42.3858 4.88487L41.6154 3.58224C41.4115 3.23736 41.0165 3.06451 40.6325 3.15223C40.2486 3.23996 39.9625 3.56833 39.9206 3.96938L39.7626 5.48401C39.7474 5.63045 39.6649 5.76341 39.5421 5.83976L38.2718 6.62956C37.9353 6.8387 37.7668 7.24372 37.8524 7.63748C37.938 8.03113 38.2582 8.32448 38.6494 8.36737L40.1267 8.52936C40.2694 8.54504 40.3992 8.62961 40.4737 8.75544L41.244 10.058C41.4479 10.4028 41.843 10.5757 42.2269 10.488C42.6108 10.4003 42.8969 10.0719 42.9388 9.67083L43.0968 8.1561C43.1121 8.00975 43.1944 7.87672 43.3172 7.80048L44.5876 7.01065C44.924 6.80153 45.0926 6.39649 45.007 6.00283C44.9213 5.60899 44.601 5.31567 44.2099 5.27286ZM41.635 7.76504C41.3548 7.39532 40.9535 7.1339 40.508 7.0307C40.8686 6.74343 41.1236 6.33194 41.2242 5.87521C41.5045 6.2449 41.9057 6.50635 42.3512 6.60955C41.9907 6.8969 41.7356 7.30831 41.635 7.76504Z" fill="#6A7889"/>
</svg>
