<svg width="9" height="9" viewBox="0 0 9 9" fill="none" xmlns="http://www.w3.org/2000/svg">
<path d="M7.75354 3.29983L6.29381 2.79419C6.15279 2.7453 6.04014 2.6298 5.99246 2.48521L5.4993 0.98852C5.36873 0.592254 5.0069 0.325928 4.59897 0.325928C4.19105 0.325928 3.82921 0.592147 3.69864 0.988413L3.20549 2.48499C3.1578 2.62969 3.04505 2.74519 2.90403 2.79409L1.4444 3.29972C1.05782 3.4336 0.798172 3.8046 0.798172 4.22296C0.798172 4.64121 1.05782 5.01221 1.4443 5.14608L2.90403 5.65172C3.04505 5.70061 3.1578 5.81622 3.20549 5.96082L3.69864 7.4574C3.82921 7.85366 4.19105 8.11999 4.59897 8.11999C5.0069 8.11999 5.36873 7.85377 5.4993 7.45751L5.99246 5.96082C6.04014 5.81622 6.15279 5.70062 6.29381 5.65183L7.75354 5.14619C8.14002 5.01232 8.39977 4.64132 8.39977 4.22307C8.39967 3.8046 8.13992 3.4336 7.75354 3.29983ZM4.59887 5.22691C4.39661 4.78788 4.04789 4.43044 3.6197 4.22296C4.04789 4.01558 4.39651 3.65804 4.59887 3.219C4.80123 3.65804 5.14984 4.01548 5.57803 4.22296C5.14995 4.43044 4.80123 4.78788 4.59887 5.22691Z" fill="#6A7889"/>
</svg>
