<svg width="24" height="24" viewBox="0 0 24 24" fill="none" xmlns="http://www.w3.org/2000/svg">
<path d="M20.5908 12V22H4.59082V12" stroke="#25282B" stroke-width="2" stroke-linecap="round" stroke-linejoin="round"/>
<path d="M22.5908 7H2.59082V12H22.5908V7Z" stroke="#25282B" stroke-width="2" stroke-linecap="round" stroke-linejoin="round"/>
<path d="M12.5908 22V7" stroke="#25282B" stroke-width="2" stroke-linecap="round" stroke-linejoin="round"/>
<path d="M12.5908 7H8.09082C7.42778 7 6.79189 6.73661 6.32305 6.26777C5.85421 5.79893 5.59082 5.16304 5.59082 4.5C5.59082 3.83696 5.85421 3.20107 6.32305 2.73223C6.79189 2.26339 7.42778 2 8.09082 2C11.5908 2 12.5908 7 12.5908 7Z" stroke="#25282B" stroke-width="2" stroke-linecap="round" stroke-linejoin="round"/>
<path d="M12.5908 7H17.0908C17.7539 7 18.3897 6.73661 18.8586 6.26777C19.3274 5.79893 19.5908 5.16304 19.5908 4.5C19.5908 3.83696 19.3274 3.20107 18.8586 2.73223C18.3897 2.26339 17.7539 2 17.0908 2C13.5908 2 12.5908 7 12.5908 7Z" stroke="#25282B" stroke-width="2" stroke-linecap="round" stroke-linejoin="round"/>
</svg>
