<svg width="24" height="24" viewBox="0 0 24 24" fill="none" xmlns="http://www.w3.org/2000/svg">
<path d="M19.5506 12.7606V22.7606H3.91011V12.7606" fill="#FADB5E"/>
<path d="M19.5506 12.7606V22.7606H3.91011V12.7606" stroke="#6A7889" stroke-width="2" stroke-linecap="round" stroke-linejoin="round"/>
<path d="M21.5056 7.76062H1.95506V12.7606H21.5056V7.76062Z" fill="#FF6E75" stroke="#6A7889" stroke-width="2" stroke-linecap="round" stroke-linejoin="round"/>
<path d="M11.7303 22.7606V7.76062" stroke="#6A7889" stroke-width="2" stroke-linecap="round" stroke-linejoin="round"/>
<path d="M11.7303 7.76062H7.33146C6.68332 7.76062 6.06173 7.49723 5.60342 7.02839C5.14511 6.55955 4.88764 5.92366 4.88764 5.26062C4.88764 4.59758 5.14511 3.96169 5.60342 3.49285C6.06173 3.02401 6.68332 2.76062 7.33146 2.76062C10.7528 2.76062 11.7303 7.76062 11.7303 7.76062Z" stroke="#6A7889" stroke-width="2" stroke-linecap="round" stroke-linejoin="round"/>
<path d="M11.7303 7.76062H16.1292C16.7773 7.76062 17.3989 7.49723 17.8572 7.02839C18.3156 6.55955 18.573 5.92366 18.573 5.26062C18.573 4.59758 18.3156 3.96169 17.8572 3.49285C17.3989 3.02401 16.7773 2.76062 16.1292 2.76062C12.7079 2.76062 11.7303 7.76062 11.7303 7.76062Z" stroke="#6A7889" stroke-width="2" stroke-linecap="round" stroke-linejoin="round"/>
</svg>
