<svg width="25" height="24" viewBox="0 0 25 24" fill="none" xmlns="http://www.w3.org/2000/svg">
<g clip-path="url(#clip0_211_4874)">
<path d="M21.4308 4.60999C20.9201 4.099 20.3136 3.69364 19.6462 3.41708C18.9787 3.14052 18.2633 2.99817 17.5408 2.99817C16.8183 2.99817 16.1029 3.14052 15.4355 3.41708C14.768 3.69364 14.1616 4.099 13.6508 4.60999L12.5908 5.66999L11.5308 4.60999C10.4991 3.5783 9.09985 2.9987 7.64082 2.9987C6.18178 2.9987 4.78251 3.5783 3.75082 4.60999C2.71913 5.64169 2.13953 7.04096 2.13953 8.49999C2.13953 9.95903 2.71913 11.3583 3.75082 12.39L4.81082 13.45L12.5908 21.23L20.3708 13.45L21.4308 12.39C21.9418 11.8792 22.3472 11.2728 22.6237 10.6053C22.9003 9.93789 23.0426 9.22248 23.0426 8.49999C23.0426 7.77751 22.9003 7.0621 22.6237 6.39464C22.3472 5.72718 21.9418 5.12075 21.4308 4.60999V4.60999Z" stroke="#25282B" stroke-width="2" stroke-linecap="round" stroke-linejoin="round"/>
</g>
<defs>
<clipPath id="clip0_211_4874">
<rect width="24" height="24" fill="white" transform="translate(0.59082)"/>
</clipPath>
</defs>
</svg>
