<svg width="212" height="140" viewBox="0 0 212 140" fill="none" xmlns="http://www.w3.org/2000/svg">
<path d="M182.773 27.7073V29.2073H184.273H184.293C198.703 29.2073 210.5 41.0042 210.5 55.4164C210.5 69.8269 198.703 81.6238 184.293 81.6238H147.397H145.897V83.1238C145.897 97.5341 134.101 109.331 119.688 109.331H55.623C41.2108 109.331 29.4139 97.5341 29.4139 83.1238V81.6238H27.9139H27.7073C13.2969 81.6238 1.5 69.8269 1.5 55.4164C1.5 41.0042 13.297 29.2073 27.7073 29.2073H64.7912H66.2912V27.7073C66.2912 13.2969 78.0881 1.5 92.4985 1.5H156.566C170.976 1.5 182.773 13.2969 182.773 27.7073Z" fill="#FFFFFE" stroke="#DBDCD6" stroke-width="3"/>
<path fill-rule="evenodd" clip-rule="evenodd" d="M184.293 27.7073H184.273C184.273 12.4685 171.804 0 156.566 0H106V110.831H119.688C134.929 110.831 147.397 98.3626 147.397 83.1238H184.293C199.532 83.1238 212 70.6553 212 55.4164C212 40.1758 199.532 27.7073 184.293 27.7073Z" fill="#DBDCD6"/>
<path fill-rule="evenodd" clip-rule="evenodd" d="M148.906 40.2869L123.527 100.434C116.001 118.274 128.346 138.59 147.694 139.375C148.096 139.391 148.5 139.4 148.906 139.4C149.312 139.4 149.717 139.391 150.117 139.375C169.465 138.59 181.811 118.274 174.283 100.434L148.906 40.2869Z" fill="#98D1D8"/>
<path fill-rule="evenodd" clip-rule="evenodd" d="M174.283 100.434L148.906 40.2869V139.4C149.312 139.4 149.717 139.391 150.117 139.375C169.465 138.59 181.811 118.274 174.283 100.434Z" fill="#87B3BB"/>
</svg>
