<svg width="173" height="175" viewBox="0 0 173 175" fill="none" xmlns="http://www.w3.org/2000/svg">
<mask id="path-1-inside-1_1376_42" fill="white">
<path fill-rule="evenodd" clip-rule="evenodd" d="M168.044 83.2515H159.447L166.337 77.2969C168.112 75.7623 168.306 73.079 166.773 71.3048C165.235 69.5289 162.555 69.3352 160.78 70.8681L146.455 83.2515H140.118L150.692 73.8182C152.442 72.2565 152.597 69.5714 151.034 67.821C149.473 66.0707 146.787 65.9143 145.036 67.4795L127.354 83.2515H96.5816L118.426 60.9589L141.845 59.3513C144.187 59.1898 145.954 57.1608 145.793 54.8224C145.631 52.4806 143.59 50.715 141.264 50.873L127.373 51.8264L131.931 47.1751L150.636 45.5913C152.974 45.3942 154.709 43.3379 154.512 40.9995C154.313 38.6629 152.293 36.9295 149.92 37.1232L141.041 37.8761L147.184 31.6053C148.826 29.9297 148.799 27.2396 147.123 25.5962C145.444 23.9529 142.759 23.9835 141.114 25.6574L135.19 31.7039L135.919 22.7243C136.109 20.3859 134.366 18.3364 132.028 18.1444C129.728 17.9881 127.64 19.6977 127.449 22.0377L125.896 41.1899L121.518 45.6576L122.446 31.5611C122.599 29.2194 120.827 27.1971 118.487 27.0441C116.165 26.881 114.121 28.6602 113.968 31.0037L112.391 54.9736L90.7221 77.0895V45.695L106.21 27.6117C107.736 25.8308 107.529 23.1491 105.746 21.6214C103.969 20.0953 101.282 20.3026 99.7578 22.0853L90.7221 32.6334V26.2029L102.89 11.5389C104.389 9.73242 104.139 7.05418 102.334 5.55531C100.528 4.05475 97.8459 4.30626 96.3505 6.11101L90.7221 12.8967V4.24848C90.7221 1.90162 88.8188 0 86.4736 0C84.1267 0 82.2251 1.90162 82.2251 4.24848V12.895L76.5984 6.11271C75.0996 4.30456 72.4179 4.05475 70.6183 5.55531C68.8101 7.05248 68.562 9.73072 70.0592 11.5372L82.2251 26.2012V32.6334L73.1878 22.0853C71.6634 20.3009 68.9801 20.0919 67.1991 21.6214C65.4164 23.1491 65.2091 25.8308 66.7352 27.6117L82.2251 45.695V77.0946L60.5596 54.9838L58.9808 31.0037C58.8262 28.6602 56.7648 26.881 54.4639 27.0441C52.1221 27.1971 50.3496 29.2194 50.5043 31.5611L51.4304 45.6661L47.0545 41.2001L45.4962 22.0377C45.3058 19.6977 43.2241 17.9898 40.918 18.1444C38.5779 18.3364 36.8378 20.3859 37.0264 22.726L37.7571 31.7107L31.8262 25.6574C30.1829 23.9835 27.4962 23.9546 25.8172 25.5962C24.1416 27.2396 24.1144 29.9297 25.756 31.6053L31.8976 37.8744L23.0268 37.1232C20.6612 36.9295 18.6322 38.6629 18.435 40.9995C18.2362 43.3379 19.9713 45.3942 22.3097 45.5913L41.0098 47.1734L45.5692 51.8264L31.6784 50.873C29.3689 50.7099 27.311 52.4806 27.1495 54.8224C26.9898 57.1608 28.7571 59.1898 31.0989 59.3513L54.5131 60.9572L76.3588 83.2515H45.593L27.9142 67.4795C26.1622 65.9143 23.4754 66.0707 21.9154 67.821C20.3537 69.5714 20.5066 72.2565 22.2587 73.8182L32.8306 83.2515H26.4936L12.1643 70.8681C10.3884 69.3352 7.70508 69.5306 6.17222 71.3048C4.63767 73.0807 4.8331 75.764 6.60897 77.2969L13.5 83.2515H4.90278C2.55592 83.2515 0.654297 85.1531 0.654297 87.5C0.654297 89.8469 2.55592 91.7485 4.90278 91.7485H13.5L6.60897 97.7049C4.8331 99.2394 4.63767 101.921 6.17222 103.697C7.01172 104.671 8.1962 105.169 9.38747 105.169C10.3714 105.169 11.3605 104.827 12.1643 104.134L26.4953 91.7485H32.8306L22.2587 101.182C20.5066 102.744 20.3537 105.429 21.9154 107.179C22.7549 108.12 23.919 108.6 25.0882 108.6C26.0925 108.6 27.1036 108.244 27.9142 107.521L45.593 91.7485H76.3588L54.5131 114.045L31.0989 115.649C28.7571 115.81 26.9898 117.839 27.1495 120.179C27.311 122.519 29.3332 124.28 31.6784 124.127L45.5675 123.174L41.0098 127.827L22.3097 129.409C19.9713 129.606 18.2362 131.662 18.435 134C18.6322 136.337 20.6918 138.074 23.0268 137.877L31.8976 137.126L25.756 143.395C24.1144 145.07 24.1416 147.76 25.8172 149.404C26.6465 150.213 27.7171 150.617 28.7911 150.617C29.894 150.617 30.9935 150.191 31.8262 149.343L37.7571 143.289L37.0264 152.274C36.8378 154.614 38.5779 156.664 40.918 156.856L41.2664 156.867C43.4569 156.867 45.316 155.185 45.4962 152.964L47.0545 133.8L51.4304 129.334L50.5043 143.439C50.3496 145.781 52.1221 147.803 54.4639 147.956L54.7476 147.966C56.9654 147.966 58.833 146.243 58.9808 143.996L60.5596 120.016L82.2251 97.9054V129.305L66.7352 147.388C65.2091 149.169 65.4164 151.851 67.1991 153.379C68.9784 154.906 71.6617 154.697 73.1878 152.915L82.2251 142.367V148.797L70.0592 163.456C68.562 165.262 68.8101 167.941 70.6166 169.44C71.4085 170.099 72.372 170.418 73.3271 170.418C74.5473 170.418 75.7589 169.895 76.5984 168.884L82.2251 162.103V170.752C82.2251 173.098 84.1267 175 86.4736 175C88.8188 175 90.7221 173.098 90.7221 170.752V162.102L96.3505 168.884C97.8459 170.687 100.528 170.938 102.334 169.44C104.139 167.941 104.389 165.262 102.89 163.456L90.7221 148.795V142.367L99.7578 152.915C100.597 153.897 101.787 154.4 102.985 154.4C103.964 154.4 104.948 154.065 105.746 153.379C107.529 151.851 107.736 149.169 106.21 147.388L90.7221 129.305V97.9105L112.389 120.026L113.968 143.996C114.116 146.243 115.984 147.966 118.203 147.966L118.487 147.956C120.827 147.803 122.599 145.781 122.446 143.439L121.518 129.342L125.896 133.81L127.449 152.964C127.629 155.185 129.489 156.867 131.679 156.867L132.028 156.856C134.366 156.664 136.109 154.614 135.919 152.276L135.19 143.296L141.114 149.343C141.947 150.191 143.048 150.617 144.149 150.617C145.223 150.617 146.296 150.213 147.123 149.404C148.799 147.76 148.826 145.07 147.184 143.395L141.041 137.124L149.92 137.877C152.264 138.077 154.313 136.339 154.512 134C154.709 131.662 152.974 129.606 150.636 129.409L131.931 127.825L127.373 123.174L141.264 124.127C143.624 124.275 145.631 122.519 145.793 120.179C145.954 117.839 144.187 115.81 141.845 115.649L118.427 114.045L96.5816 91.7485H127.354L145.036 107.521C145.845 108.244 146.856 108.6 147.862 108.6C149.03 108.6 150.196 108.12 151.034 107.179C152.597 105.429 152.442 102.744 150.692 101.182L140.118 91.7485H146.454L160.78 104.134C161.583 104.827 162.572 105.169 163.556 105.169C164.748 105.169 165.93 104.671 166.773 103.697C168.306 101.923 168.112 99.2394 166.337 97.7049L159.446 91.7485H168.044C170.39 91.7485 172.293 89.8469 172.293 87.5C172.293 85.1531 170.39 83.2515 168.044 83.2515Z"/>
</mask>
<path fill-rule="evenodd" clip-rule="evenodd" d="M168.044 83.2515H159.447L166.337 77.2969C168.112 75.7623 168.306 73.079 166.773 71.3048C165.235 69.5289 162.555 69.3352 160.78 70.8681L146.455 83.2515H140.118L150.692 73.8182C152.442 72.2565 152.597 69.5714 151.034 67.821C149.473 66.0707 146.787 65.9143 145.036 67.4795L127.354 83.2515H96.5816L118.426 60.9589L141.845 59.3513C144.187 59.1898 145.954 57.1608 145.793 54.8224C145.631 52.4806 143.59 50.715 141.264 50.873L127.373 51.8264L131.931 47.1751L150.636 45.5913C152.974 45.3942 154.709 43.3379 154.512 40.9995C154.313 38.6629 152.293 36.9295 149.92 37.1232L141.041 37.8761L147.184 31.6053C148.826 29.9297 148.799 27.2396 147.123 25.5962C145.444 23.9529 142.759 23.9835 141.114 25.6574L135.19 31.7039L135.919 22.7243C136.109 20.3859 134.366 18.3364 132.028 18.1444C129.728 17.9881 127.64 19.6977 127.449 22.0377L125.896 41.1899L121.518 45.6576L122.446 31.5611C122.599 29.2194 120.827 27.1971 118.487 27.0441C116.165 26.881 114.121 28.6602 113.968 31.0037L112.391 54.9736L90.7221 77.0895V45.695L106.21 27.6117C107.736 25.8308 107.529 23.1491 105.746 21.6214C103.969 20.0953 101.282 20.3026 99.7578 22.0853L90.7221 32.6334V26.2029L102.89 11.5389C104.389 9.73242 104.139 7.05418 102.334 5.55531C100.528 4.05475 97.8459 4.30626 96.3505 6.11101L90.7221 12.8967V4.24848C90.7221 1.90162 88.8188 0 86.4736 0C84.1267 0 82.2251 1.90162 82.2251 4.24848V12.895L76.5984 6.11271C75.0996 4.30456 72.4179 4.05475 70.6183 5.55531C68.8101 7.05248 68.562 9.73072 70.0592 11.5372L82.2251 26.2012V32.6334L73.1878 22.0853C71.6634 20.3009 68.9801 20.0919 67.1991 21.6214C65.4164 23.1491 65.2091 25.8308 66.7352 27.6117L82.2251 45.695V77.0946L60.5596 54.9838L58.9808 31.0037C58.8262 28.6602 56.7648 26.881 54.4639 27.0441C52.1221 27.1971 50.3496 29.2194 50.5043 31.5611L51.4304 45.6661L47.0545 41.2001L45.4962 22.0377C45.3058 19.6977 43.2241 17.9898 40.918 18.1444C38.5779 18.3364 36.8378 20.3859 37.0264 22.726L37.7571 31.7107L31.8262 25.6574C30.1829 23.9835 27.4962 23.9546 25.8172 25.5962C24.1416 27.2396 24.1144 29.9297 25.756 31.6053L31.8976 37.8744L23.0268 37.1232C20.6612 36.9295 18.6322 38.6629 18.435 40.9995C18.2362 43.3379 19.9713 45.3942 22.3097 45.5913L41.0098 47.1734L45.5692 51.8264L31.6784 50.873C29.3689 50.7099 27.311 52.4806 27.1495 54.8224C26.9898 57.1608 28.7571 59.1898 31.0989 59.3513L54.5131 60.9572L76.3588 83.2515H45.593L27.9142 67.4795C26.1622 65.9143 23.4754 66.0707 21.9154 67.821C20.3537 69.5714 20.5066 72.2565 22.2587 73.8182L32.8306 83.2515H26.4936L12.1643 70.8681C10.3884 69.3352 7.70508 69.5306 6.17222 71.3048C4.63767 73.0807 4.8331 75.764 6.60897 77.2969L13.5 83.2515H4.90278C2.55592 83.2515 0.654297 85.1531 0.654297 87.5C0.654297 89.8469 2.55592 91.7485 4.90278 91.7485H13.5L6.60897 97.7049C4.8331 99.2394 4.63767 101.921 6.17222 103.697C7.01172 104.671 8.1962 105.169 9.38747 105.169C10.3714 105.169 11.3605 104.827 12.1643 104.134L26.4953 91.7485H32.8306L22.2587 101.182C20.5066 102.744 20.3537 105.429 21.9154 107.179C22.7549 108.12 23.919 108.6 25.0882 108.6C26.0925 108.6 27.1036 108.244 27.9142 107.521L45.593 91.7485H76.3588L54.5131 114.045L31.0989 115.649C28.7571 115.81 26.9898 117.839 27.1495 120.179C27.311 122.519 29.3332 124.28 31.6784 124.127L45.5675 123.174L41.0098 127.827L22.3097 129.409C19.9713 129.606 18.2362 131.662 18.435 134C18.6322 136.337 20.6918 138.074 23.0268 137.877L31.8976 137.126L25.756 143.395C24.1144 145.07 24.1416 147.76 25.8172 149.404C26.6465 150.213 27.7171 150.617 28.7911 150.617C29.894 150.617 30.9935 150.191 31.8262 149.343L37.7571 143.289L37.0264 152.274C36.8378 154.614 38.5779 156.664 40.918 156.856L41.2664 156.867C43.4569 156.867 45.316 155.185 45.4962 152.964L47.0545 133.8L51.4304 129.334L50.5043 143.439C50.3496 145.781 52.1221 147.803 54.4639 147.956L54.7476 147.966C56.9654 147.966 58.833 146.243 58.9808 143.996L60.5596 120.016L82.2251 97.9054V129.305L66.7352 147.388C65.2091 149.169 65.4164 151.851 67.1991 153.379C68.9784 154.906 71.6617 154.697 73.1878 152.915L82.2251 142.367V148.797L70.0592 163.456C68.562 165.262 68.8101 167.941 70.6166 169.44C71.4085 170.099 72.372 170.418 73.3271 170.418C74.5473 170.418 75.7589 169.895 76.5984 168.884L82.2251 162.103V170.752C82.2251 173.098 84.1267 175 86.4736 175C88.8188 175 90.7221 173.098 90.7221 170.752V162.102L96.3505 168.884C97.8459 170.687 100.528 170.938 102.334 169.44C104.139 167.941 104.389 165.262 102.89 163.456L90.7221 148.795V142.367L99.7578 152.915C100.597 153.897 101.787 154.4 102.985 154.4C103.964 154.4 104.948 154.065 105.746 153.379C107.529 151.851 107.736 149.169 106.21 147.388L90.7221 129.305V97.9105L112.389 120.026L113.968 143.996C114.116 146.243 115.984 147.966 118.203 147.966L118.487 147.956C120.827 147.803 122.599 145.781 122.446 143.439L121.518 129.342L125.896 133.81L127.449 152.964C127.629 155.185 129.489 156.867 131.679 156.867L132.028 156.856C134.366 156.664 136.109 154.614 135.919 152.276L135.19 143.296L141.114 149.343C141.947 150.191 143.048 150.617 144.149 150.617C145.223 150.617 146.296 150.213 147.123 149.404C148.799 147.76 148.826 145.07 147.184 143.395L141.041 137.124L149.92 137.877C152.264 138.077 154.313 136.339 154.512 134C154.709 131.662 152.974 129.606 150.636 129.409L131.931 127.825L127.373 123.174L141.264 124.127C143.624 124.275 145.631 122.519 145.793 120.179C145.954 117.839 144.187 115.81 141.845 115.649L118.427 114.045L96.5816 91.7485H127.354L145.036 107.521C145.845 108.244 146.856 108.6 147.862 108.6C149.03 108.6 150.196 108.12 151.034 107.179C152.597 105.429 152.442 102.744 150.692 101.182L140.118 91.7485H146.454L160.78 104.134C161.583 104.827 162.572 105.169 163.556 105.169C164.748 105.169 165.93 104.671 166.773 103.697C168.306 101.923 168.112 99.2394 166.337 97.7049L159.446 91.7485H168.044C170.39 91.7485 172.293 89.8469 172.293 87.5C172.293 85.1531 170.39 83.2515 168.044 83.2515Z" fill="#FFFFFE" stroke="#DBDCD6" stroke-width="6" mask="url(#path-1-inside-1_1376_42)"/>
<path fill-rule="evenodd" clip-rule="evenodd" d="M168.044 83.2515H159.447L166.337 77.2969C168.112 75.7623 168.306 73.079 166.773 71.3048C165.235 69.5289 162.555 69.3352 160.78 70.8681L146.455 83.2515H140.118L150.692 73.8182C152.442 72.2565 152.597 69.5714 151.034 67.821C149.473 66.0707 146.787 65.9143 145.036 67.4795L127.354 83.2515H96.5816L118.426 60.9589L141.845 59.3513C144.187 59.1898 145.954 57.1608 145.793 54.8224C145.631 52.4806 143.59 50.715 141.264 50.873L127.373 51.8264L131.931 47.1751L150.636 45.5913C152.974 45.3942 154.709 43.3379 154.512 40.9995C154.313 38.6629 152.293 36.9295 149.92 37.1232L141.041 37.8761L147.184 31.6053C148.826 29.9297 148.799 27.2396 147.123 25.5962C145.444 23.9529 142.759 23.9835 141.114 25.6574L135.19 31.7039L135.919 22.7243C136.109 20.3859 134.366 18.3364 132.028 18.1444C129.728 17.9881 127.64 19.6977 127.449 22.0377L125.896 41.1899L121.519 45.6576L122.446 31.5611C122.599 29.2194 120.827 27.1971 118.487 27.0441C116.165 26.881 114.121 28.6602 113.968 31.0037L112.391 54.9736L90.7221 77.0895V45.695L106.21 27.6117C107.736 25.8308 107.529 23.1491 105.746 21.6214C103.969 20.0953 101.282 20.3026 99.7578 22.0853L90.7221 32.6334V26.2029L102.89 11.5389C104.389 9.73242 104.139 7.05418 102.334 5.55531C100.528 4.05475 97.846 4.30626 96.3505 6.11101L90.7221 12.8967V4.24848C90.7221 1.90162 88.8188 0 86.4736 0V175C88.8188 175 90.7221 173.098 90.7221 170.752V162.102L96.3505 168.884C97.846 170.687 100.528 170.938 102.334 169.44C104.139 167.941 104.389 165.262 102.89 163.456L90.7221 148.795V142.367L99.7578 152.915C100.597 153.897 101.787 154.4 102.985 154.4C103.964 154.4 104.948 154.065 105.746 153.379C107.529 151.851 107.736 149.169 106.21 147.388L90.7221 129.305V97.9105L112.389 120.026L113.968 143.996C114.116 146.243 115.984 147.966 118.203 147.966L118.487 147.956C120.827 147.803 122.599 145.781 122.446 143.439L121.519 129.342L125.896 133.81L127.449 152.964C127.63 155.185 129.489 156.867 131.679 156.867L132.028 156.856C134.366 156.664 136.109 154.614 135.919 152.276L135.19 143.296L141.114 149.343C141.947 150.191 143.048 150.617 144.149 150.617C145.223 150.617 146.296 150.213 147.123 149.404C148.799 147.76 148.826 145.07 147.184 143.395L141.041 137.124L149.92 137.877C152.264 138.077 154.313 136.339 154.512 134C154.709 131.662 152.974 129.606 150.636 129.409L131.931 127.825L127.373 123.174L141.264 124.127C143.624 124.275 145.631 122.519 145.793 120.179C145.954 117.839 144.187 115.81 141.845 115.649L118.427 114.045L96.5816 91.7485H127.354L145.036 107.521C145.845 108.244 146.856 108.6 147.862 108.6C149.03 108.6 150.196 108.12 151.034 107.179C152.597 105.429 152.442 102.744 150.692 101.182L140.118 91.7485H146.454L160.78 104.134C161.583 104.827 162.572 105.169 163.556 105.169C164.748 105.169 165.93 104.671 166.773 103.697C168.306 101.923 168.112 99.2394 166.337 97.7049L159.446 91.7485H168.044C170.39 91.7485 172.293 89.8469 172.293 87.5C172.293 85.1531 170.39 83.2515 168.044 83.2515Z" fill="#DBDCD6"/>
</svg>
