<svg width="13" height="12" viewBox="0 0 13 12" fill="none" xmlns="http://www.w3.org/2000/svg">
<g clip-path="url(#clip0_12586_12094)">
<path d="M12.4189 4.34167L8.77975 3.834L7.15419 0.670563C7.10693 0.593528 7.03955 0.529671 6.95869 0.485305C6.87784 0.440939 6.78633 0.417603 6.6932 0.417603C6.60007 0.417603 6.50856 0.440939 6.4277 0.485305C6.34685 0.529671 6.27946 0.593528 6.2322 0.670563L4.60356 3.834L0.964434 4.34167C0.869532 4.35482 0.780355 4.3932 0.706985 4.45246C0.633614 4.51172 0.578977 4.58951 0.549249 4.67702C0.519521 4.76453 0.51589 4.85828 0.538764 4.94767C0.561639 5.03706 0.610107 5.11853 0.67869 5.18286L3.31258 7.64671L2.69124 11.1264C2.67504 11.2171 2.68561 11.3104 2.72175 11.3957C2.75789 11.4809 2.81816 11.5548 2.89574 11.6089C2.97332 11.663 3.06512 11.6952 3.16077 11.7018C3.25641 11.7084 3.35207 11.6892 3.43695 11.6464L6.69166 10.004L9.94637 11.6464C10.0312 11.6892 10.1269 11.7084 10.2225 11.7018C10.3182 11.6952 10.41 11.663 10.4876 11.6089C10.5652 11.5548 10.6254 11.4809 10.6616 11.3957C10.6977 11.3104 10.7083 11.2171 10.6921 11.1264L10.0707 7.64671L12.7046 5.18286C12.7732 5.11859 12.8217 5.03721 12.8446 4.94789C12.8675 4.85857 12.864 4.76488 12.8344 4.67739C12.8048 4.5899 12.7503 4.51211 12.677 4.45278C12.6038 4.39346 12.5147 4.35498 12.4199 4.34167H12.4189Z" fill="#31465E"/>
</g>
<defs>
<clipPath id="clip0_12586_12094">
<rect width="12.3343" height="11.8407" fill="white" transform="translate(0.524414 0.126831)"/>
</clipPath>
</defs>
</svg>
