<svg width="177" height="175" viewBox="0 0 177 175" fill="none" xmlns="http://www.w3.org/2000/svg">
<path fill-rule="evenodd" clip-rule="evenodd" d="M22.5733 87.4991C22.5733 51.2866 51.9301 21.9299 88.1426 21.9299C124.355 21.9299 153.712 51.2866 153.712 87.4991C153.712 123.713 124.355 153.07 88.1426 153.07C51.9301 153.07 22.5733 123.713 22.5733 87.4991ZM16.9551 97.4345L5.12285 120.276L29.1258 129.527L29.2633 155.251L54.8159 152.287L66.8931 175L88.1426 160.501L109.392 175L121.467 152.287L147.022 155.251L147.159 129.527L171.162 120.276L159.33 97.4345L176.285 78.0873L155.194 63.3604L161.214 38.3508L135.695 35.1125L129.406 10.1699L105.304 19.1622L88.1426 0L70.9812 19.1622L46.8795 10.1699L40.5896 35.1125L15.0706 38.3508L21.0908 63.3604L0 78.0873L16.9551 97.4345Z" fill="#F0A64D"/>
<path fill-rule="evenodd" clip-rule="evenodd" d="M88.1423 30.2063C119.784 30.2063 145.435 55.8575 145.435 87.499C145.435 119.142 119.784 144.792 88.1423 144.792C56.5009 144.792 30.8496 119.142 30.8496 87.499C30.8496 55.8575 56.5009 30.2063 88.1423 30.2063Z" fill="#F0A64D"/>
<path fill-rule="evenodd" clip-rule="evenodd" d="M153.711 87.4991C153.711 51.2866 124.355 21.9299 88.1421 21.9299V0L105.303 19.1622L129.405 10.1699L135.695 35.1125L161.214 38.3508L155.194 63.3604L176.285 78.0873L159.33 97.4345L171.162 120.276L147.159 129.527L147.021 155.251L121.467 152.287L109.391 175L88.1421 160.501V153.07C124.355 153.07 153.711 123.713 153.711 87.4991Z" fill="#EB8C3C"/>
<path fill-rule="evenodd" clip-rule="evenodd" d="M145.435 87.499C145.435 119.142 119.784 144.792 88.1421 144.792V30.2063C119.784 30.2063 145.435 55.8575 145.435 87.499Z" fill="#EB8C3C"/>
</svg>
