<svg width="16" height="16" viewBox="0 0 16 16" fill="none" xmlns="http://www.w3.org/2000/svg">
<path fill-rule="evenodd" clip-rule="evenodd" d="M8 15.75C3.71979 15.75 0.25 12.2802 0.25 8C0.25 3.71979 3.71979 0.25 8 0.25C12.2802 0.25 15.75 3.71979 15.75 8C15.75 12.2802 12.2802 15.75 8 15.75ZM8 14.25C11.4518 14.25 14.25 11.4518 14.25 8C14.25 4.54822 11.4518 1.75 8 1.75C4.54822 1.75 1.75 4.54822 1.75 8C1.75 11.4518 4.54822 14.25 8 14.25ZM6.66967 4.96967C6.37678 5.26256 6.37678 5.73744 6.66967 6.03033L8.63934 8L6.66967 9.96967C6.37678 10.2626 6.37678 10.7374 6.66967 11.0303C6.96256 11.3232 7.43744 11.3232 7.73033 11.0303L10.2303 8.53033C10.5232 8.23744 10.5232 7.76256 10.2303 7.46967L7.73033 4.96967C7.43744 4.67678 6.96256 4.67678 6.66967 4.96967Z" fill="#6A7889"/>
</svg>
