<svg width="247" height="201" viewBox="0 0 247 201" fill="none" xmlns="http://www.w3.org/2000/svg">
<path d="M213.294 30.2646V31.7646H214.794H214.817C231.776 31.7646 245.497 44.7976 245.497 60.5312C245.497 76.2627 231.776 89.2958 214.817 89.2958H171.964H170.464V90.7958C170.464 106.527 156.742 119.56 139.784 119.56H65.3745C48.416 119.56 34.6944 106.527 34.6944 90.7958V89.2958H33.1944H32.9544C15.9959 89.2958 2.27429 76.2627 2.27429 60.5312C2.27429 44.7976 15.996 31.7646 32.9544 31.7646H76.0247H77.5247V30.2646C77.5247 14.5331 91.2463 1.5 108.205 1.5H182.614C199.573 1.5 213.294 14.5331 213.294 30.2646Z" fill="#FFFFFE" stroke="#DBDCD6" stroke-width="3"/>
<path fill-rule="evenodd" clip-rule="evenodd" d="M214.817 30.2646H214.794C214.794 13.6193 200.313 0 182.614 0H123.886V121.06H139.784C157.483 121.06 171.964 107.441 171.964 90.7958H214.817C232.516 90.7958 246.997 77.1765 246.997 60.5312C246.997 43.8839 232.516 30.2646 214.817 30.2646Z" fill="#DBDCD6"/>
<path fill-rule="evenodd" clip-rule="evenodd" d="M130.789 44.0055H178.799C181.069 44.0055 182.596 46.1936 181.691 48.1521L157.841 99.8308C156.935 101.789 158.462 103.977 160.733 103.977H173.286C175.702 103.977 177.221 106.43 176.028 108.407L120.765 199.989C119.576 201.964 116.365 200.804 116.884 198.588L132.657 131.306C133.091 129.456 131.593 127.703 129.577 127.703H112.886C110.875 127.703 109.379 125.957 109.804 124.11L127.708 46.3427C128.023 44.9788 129.306 44.0055 130.789 44.0055Z" fill="#F0A64D"/>
<path fill-rule="evenodd" clip-rule="evenodd" d="M181.691 48.1521C182.596 46.1936 181.069 44.0055 178.799 44.0055H145.842V158.429L176.028 108.407C177.221 106.43 175.702 103.977 173.286 103.977H160.733C158.462 103.977 156.935 101.789 157.84 99.8308L181.691 48.1521Z" fill="#EB8C3C"/>
</svg>
