<svg width="115" height="48" viewBox="0 0 115 48" fill="none" xmlns="http://www.w3.org/2000/svg">
<path d="M23.7563 0H24.2427C27.3624 0 30.4515 0.614474 33.3338 1.80834C36.216 3.0022 38.8349 4.75207 41.0409 6.95805C43.2468 9.16402 44.9967 11.7829 46.1906 14.6651C47.3845 17.5474 47.9989 20.6366 47.9989 23.7563V24.2427C47.9989 30.5432 45.496 36.5857 41.0409 41.0409C36.5857 45.496 30.5432 47.9989 24.2427 47.9989H0V23.7563C0 17.4557 2.50289 11.4132 6.95805 6.95805C11.4132 2.50288 17.4557 0 23.7563 0Z" fill="white"/>
<path d="M31.9278 15.5987C31.3041 14.9684 30.456 14.6113 29.5694 14.6056C29.1249 14.6015 28.6842 14.6873 28.2738 14.858C27.8634 15.0287 27.4917 15.2806 27.1812 15.5987C26.7117 16.0681 26.3919 16.6662 26.2623 17.3173C26.1327 17.9685 26.1992 18.6435 26.4532 19.2569C26.7072 19.8703 27.1375 20.3946 27.6895 20.7635C28.2415 21.1323 28.8905 21.3292 29.5545 21.3292C30.2184 21.3292 30.8674 21.1323 31.4195 20.7635C31.9715 20.3946 32.4017 19.8703 32.6558 19.2569C32.9098 18.6435 32.9762 17.9685 32.8467 17.3173C32.7171 16.6662 32.3973 16.0681 31.9278 15.5987ZM31.0926 19.51C30.7878 19.8178 30.3984 20.028 29.9739 20.114C29.5493 20.2 29.1088 20.1579 28.7083 19.9931C28.3077 19.8283 27.9652 19.5482 27.7241 19.1883C27.483 18.8284 27.3543 18.4051 27.3543 17.9719C27.3543 17.5388 27.483 17.1154 27.7241 16.7556C27.9652 16.3957 28.3077 16.1156 28.7083 15.9508C29.1088 15.786 29.5493 15.7439 29.9739 15.8299C30.3984 15.9159 30.7878 16.1261 31.0926 16.4338C31.4993 16.8424 31.7276 17.3954 31.7276 17.9719C31.7276 18.5484 31.4993 19.1015 31.0926 19.51ZM31.9278 15.5987C31.3041 14.9684 30.456 14.6113 29.5694 14.6056C29.1249 14.6015 28.6842 14.6873 28.2738 14.858C27.8634 15.0287 27.4917 15.2806 27.1812 15.5987C26.7117 16.0681 26.3919 16.6662 26.2623 17.3173C26.1327 17.9685 26.1992 18.6435 26.4532 19.2569C26.7072 19.8703 27.1375 20.3946 27.6895 20.7635C28.2415 21.1323 28.8905 21.3292 29.5545 21.3292C30.2184 21.3292 30.8674 21.1323 31.4195 20.7635C31.9715 20.3946 32.4017 19.8703 32.6558 19.2569C32.9098 18.6435 32.9762 17.9685 32.8467 17.3173C32.7171 16.6662 32.3973 16.0681 31.9278 15.5987ZM31.0926 19.51C30.7878 19.8178 30.3984 20.028 29.9739 20.114C29.5493 20.2 29.1088 20.1579 28.7083 19.9931C28.3077 19.8283 27.9652 19.5482 27.7241 19.1883C27.483 18.8284 27.3543 18.4051 27.3543 17.9719C27.3543 17.5388 27.483 17.1154 27.7241 16.7556C27.9652 16.3957 28.3077 16.1156 28.7083 15.9508C29.1088 15.786 29.5493 15.7439 29.9739 15.8299C30.3984 15.9159 30.7878 16.1261 31.0926 16.4338C31.4993 16.8424 31.7276 17.3954 31.7276 17.9719C31.7276 18.5484 31.4993 19.1015 31.0926 19.51ZM31.9278 15.5987C31.3041 14.9684 30.456 14.6113 29.5694 14.6056C29.1249 14.6015 28.6842 14.6873 28.2738 14.858C27.8634 15.0287 27.4917 15.2806 27.1812 15.5987C26.7117 16.0681 26.3919 16.6662 26.2623 17.3173C26.1327 17.9685 26.1992 18.6435 26.4532 19.2569C26.7072 19.8703 27.1375 20.3946 27.6895 20.7635C28.2415 21.1323 28.8905 21.3292 29.5545 21.3292C30.2184 21.3292 30.8674 21.1323 31.4195 20.7635C31.9715 20.3946 32.4017 19.8703 32.6558 19.2569C32.9098 18.6435 32.9762 17.9685 32.8467 17.3173C32.7171 16.6662 32.3973 16.0681 31.9278 15.5987ZM31.0926 19.51C30.7878 19.8178 30.3984 20.028 29.9739 20.114C29.5493 20.2 29.1088 20.1579 28.7083 19.9931C28.3077 19.8283 27.9652 19.5482 27.7241 19.1883C27.483 18.8284 27.3543 18.4051 27.3543 17.9719C27.3543 17.5388 27.483 17.1154 27.7241 16.7556C27.9652 16.3957 28.3077 16.1156 28.7083 15.9508C29.1088 15.786 29.5493 15.7439 29.9739 15.8299C30.3984 15.9159 30.7878 16.1261 31.0926 16.4338C31.4993 16.8424 31.7276 17.3954 31.7276 17.9719C31.7276 18.5484 31.4993 19.1015 31.0926 19.51ZM31.9278 15.5987C31.3041 14.9684 30.456 14.6113 29.5694 14.6056C29.1249 14.6015 28.6842 14.6873 28.2738 14.858C27.8634 15.0287 27.4917 15.2806 27.1812 15.5987C26.7117 16.0681 26.3919 16.6662 26.2623 17.3173C26.1327 17.9685 26.1992 18.6435 26.4532 19.2569C26.7072 19.8703 27.1375 20.3946 27.6895 20.7635C28.2415 21.1323 28.8905 21.3292 29.5545 21.3292C30.2184 21.3292 30.8674 21.1323 31.4195 20.7635C31.9715 20.3946 32.4017 19.8703 32.6558 19.2569C32.9098 18.6435 32.9762 17.9685 32.8467 17.3173C32.7171 16.6662 32.3973 16.0681 31.9278 15.5987ZM31.0926 19.51C30.7878 19.8178 30.3984 20.028 29.9739 20.114C29.5493 20.2 29.1088 20.1579 28.7083 19.9931C28.3077 19.8283 27.9652 19.5482 27.7241 19.1883C27.483 18.8284 27.3543 18.4051 27.3543 17.9719C27.3543 17.5388 27.483 17.1154 27.7241 16.7556C27.9652 16.3957 28.3077 16.1156 28.7083 15.9508C29.1088 15.786 29.5493 15.7439 29.9739 15.8299C30.3984 15.9159 30.7878 16.1261 31.0926 16.4338C31.4993 16.8424 31.7276 17.3954 31.7276 17.9719C31.7276 18.5484 31.4993 19.1015 31.0926 19.51ZM31.9278 15.5987C31.3041 14.9684 30.456 14.6113 29.5694 14.6056C29.1249 14.6015 28.6842 14.6873 28.2738 14.858C27.8634 15.0287 27.4917 15.2806 27.1812 15.5987C26.7117 16.0681 26.3919 16.6662 26.2623 17.3173C26.1327 17.9685 26.1992 18.6435 26.4532 19.2569C26.7072 19.8703 27.1375 20.3946 27.6895 20.7635C28.2415 21.1323 28.8905 21.3292 29.5545 21.3292C30.2184 21.3292 30.8674 21.1323 31.4195 20.7635C31.9715 20.3946 32.4017 19.8703 32.6558 19.2569C32.9098 18.6435 32.9762 17.9685 32.8467 17.3173C32.7171 16.6662 32.3973 16.0681 31.9278 15.5987ZM31.0926 19.51C30.7878 19.8178 30.3984 20.028 29.9739 20.114C29.5493 20.2 29.1088 20.1579 28.7083 19.9931C28.3077 19.8283 27.9652 19.5482 27.7241 19.1883C27.483 18.8284 27.3543 18.4051 27.3543 17.9719C27.3543 17.5388 27.483 17.1154 27.7241 16.7556C27.9652 16.3957 28.3077 16.1156 28.7083 15.9508C29.1088 15.786 29.5493 15.7439 29.9739 15.8299C30.3984 15.9159 30.7878 16.1261 31.0926 16.4338C31.4993 16.8424 31.7276 17.3954 31.7276 17.9719C31.7276 18.5484 31.4993 19.1015 31.0926 19.51ZM31.9278 15.5987C31.3041 14.9684 30.456 14.6113 29.5694 14.6056C29.1249 14.6015 28.6842 14.6873 28.2738 14.858C27.8634 15.0287 27.4917 15.2806 27.1812 15.5987C26.7117 16.0681 26.3919 16.6662 26.2623 17.3173C26.1327 17.9685 26.1992 18.6435 26.4532 19.2569C26.7072 19.8703 27.1375 20.3946 27.6895 20.7635C28.2415 21.1323 28.8905 21.3292 29.5545 21.3292C30.2184 21.3292 30.8674 21.1323 31.4195 20.7635C31.9715 20.3946 32.4017 19.8703 32.6558 19.2569C32.9098 18.6435 32.9762 17.9685 32.8467 17.3173C32.7171 16.6662 32.3973 16.0681 31.9278 15.5987ZM31.0926 19.51C30.7878 19.8178 30.3984 20.028 29.9739 20.114C29.5493 20.2 29.1088 20.1579 28.7083 19.9931C28.3077 19.8283 27.9652 19.5482 27.7241 19.1883C27.483 18.8284 27.3543 18.4051 27.3543 17.9719C27.3543 17.5388 27.483 17.1154 27.7241 16.7556C27.9652 16.3957 28.3077 16.1156 28.7083 15.9508C29.1088 15.786 29.5493 15.7439 29.9739 15.8299C30.3984 15.9159 30.7878 16.1261 31.0926 16.4338C31.4993 16.8424 31.7276 17.3954 31.7276 17.9719C31.7276 18.5484 31.4993 19.1015 31.0926 19.51ZM31.9278 15.5987C31.3041 14.9684 30.456 14.6113 29.5694 14.6056C29.1249 14.6015 28.6842 14.6873 28.2738 14.858C27.8634 15.0287 27.4917 15.2806 27.1812 15.5987C26.7117 16.0681 26.3919 16.6662 26.2623 17.3173C26.1327 17.9685 26.1992 18.6435 26.4532 19.2569C26.7072 19.8703 27.1375 20.3946 27.6895 20.7635C28.2415 21.1323 28.8905 21.3292 29.5545 21.3292C30.2184 21.3292 30.8674 21.1323 31.4195 20.7635C31.9715 20.3946 32.4017 19.8703 32.6558 19.2569C32.9098 18.6435 32.9762 17.9685 32.8467 17.3173C32.7171 16.6662 32.3973 16.0681 31.9278 15.5987ZM31.0926 19.51C30.7878 19.8178 30.3984 20.028 29.9739 20.114C29.5493 20.2 29.1088 20.1579 28.7083 19.9931C28.3077 19.8283 27.9652 19.5482 27.7241 19.1883C27.483 18.8284 27.3543 18.4051 27.3543 17.9719C27.3543 17.5388 27.483 17.1154 27.7241 16.7556C27.9652 16.3957 28.3077 16.1156 28.7083 15.9508C29.1088 15.786 29.5493 15.7439 29.9739 15.8299C30.3984 15.9159 30.7878 16.1261 31.0926 16.4338C31.4993 16.8424 31.7276 17.3954 31.7276 17.9719C31.7276 18.5484 31.4993 19.1015 31.0926 19.51ZM31.9278 15.5987C31.3041 14.9684 30.456 14.6113 29.5694 14.6056C29.1249 14.6015 28.6842 14.6873 28.2738 14.858C27.8634 15.0287 27.4917 15.2806 27.1812 15.5987C26.7117 16.0681 26.3919 16.6662 26.2623 17.3173C26.1327 17.9685 26.1992 18.6435 26.4532 19.2569C26.7072 19.8703 27.1375 20.3946 27.6895 20.7635C28.2415 21.1323 28.8905 21.3292 29.5545 21.3292C30.2184 21.3292 30.8674 21.1323 31.4195 20.7635C31.9715 20.3946 32.4017 19.8703 32.6558 19.2569C32.9098 18.6435 32.9762 17.9685 32.8467 17.3173C32.7171 16.6662 32.3973 16.0681 31.9278 15.5987ZM31.0926 19.51C30.7878 19.8178 30.3984 20.028 29.9739 20.114C29.5493 20.2 29.1088 20.1579 28.7083 19.9931C28.3077 19.8283 27.9652 19.5482 27.7241 19.1883C27.483 18.8284 27.3543 18.4051 27.3543 17.9719C27.3543 17.5388 27.483 17.1154 27.7241 16.7556C27.9652 16.3957 28.3077 16.1156 28.7083 15.9508C29.1088 15.786 29.5493 15.7439 29.9739 15.8299C30.3984 15.9159 30.7878 16.1261 31.0926 16.4338C31.4993 16.8424 31.7276 17.3954 31.7276 17.9719C31.7276 18.5484 31.4993 19.1015 31.0926 19.51ZM31.9278 15.5987C31.3041 14.9684 30.456 14.6113 29.5694 14.6056C29.1249 14.6015 28.6842 14.6873 28.2738 14.858C27.8634 15.0287 27.4917 15.2806 27.1812 15.5987C26.7117 16.0681 26.3919 16.6662 26.2623 17.3173C26.1327 17.9685 26.1992 18.6435 26.4532 19.2569C26.7072 19.8703 27.1375 20.3946 27.6895 20.7635C28.2415 21.1323 28.8905 21.3292 29.5545 21.3292C30.2184 21.3292 30.8674 21.1323 31.4195 20.7635C31.9715 20.3946 32.4017 19.8703 32.6558 19.2569C32.9098 18.6435 32.9762 17.9685 32.8467 17.3173C32.7171 16.6662 32.3973 16.0681 31.9278 15.5987ZM31.0926 19.51C30.7878 19.8178 30.3984 20.028 29.9739 20.114C29.5493 20.2 29.1088 20.1579 28.7083 19.9931C28.3077 19.8283 27.9652 19.5482 27.7241 19.1883C27.483 18.8284 27.3543 18.4051 27.3543 17.9719C27.3543 17.5388 27.483 17.1154 27.7241 16.7556C27.9652 16.3957 28.3077 16.1156 28.7083 15.9508C29.1088 15.786 29.5493 15.7439 29.9739 15.8299C30.3984 15.9159 30.7878 16.1261 31.0926 16.4338C31.4993 16.8424 31.7276 17.3954 31.7276 17.9719C31.7276 18.5484 31.4993 19.1015 31.0926 19.51ZM31.9278 15.5987C31.3041 14.9684 30.456 14.6113 29.5694 14.6056C29.1249 14.6015 28.6842 14.6873 28.2738 14.858C27.8634 15.0287 27.4917 15.2806 27.1812 15.5987C26.7117 16.0681 26.3919 16.6662 26.2623 17.3173C26.1327 17.9685 26.1992 18.6435 26.4532 19.2569C26.7072 19.8703 27.1375 20.3946 27.6895 20.7635C28.2415 21.1323 28.8905 21.3292 29.5545 21.3292C30.2184 21.3292 30.8674 21.1323 31.4195 20.7635C31.9715 20.3946 32.4017 19.8703 32.6558 19.2569C32.9098 18.6435 32.9762 17.9685 32.8467 17.3173C32.7171 16.6662 32.3973 16.0681 31.9278 15.5987ZM31.0926 19.51C30.7878 19.8178 30.3984 20.028 29.9739 20.114C29.5493 20.2 29.1088 20.1579 28.7083 19.9931C28.3077 19.8283 27.9652 19.5482 27.7241 19.1883C27.483 18.8284 27.3543 18.4051 27.3543 17.9719C27.3543 17.5388 27.483 17.1154 27.7241 16.7556C27.9652 16.3957 28.3077 16.1156 28.7083 15.9508C29.1088 15.786 29.5493 15.7439 29.9739 15.8299C30.3984 15.9159 30.7878 16.1261 31.0926 16.4338C31.4993 16.8424 31.7276 17.3954 31.7276 17.9719C31.7276 18.5484 31.4993 19.1015 31.0926 19.51ZM31.9278 15.5987C31.3041 14.9684 30.456 14.6113 29.5694 14.6056C29.1249 14.6015 28.6842 14.6873 28.2738 14.858C27.8634 15.0287 27.4917 15.2806 27.1812 15.5987C26.7117 16.0681 26.3919 16.6662 26.2623 17.3173C26.1327 17.9685 26.1992 18.6435 26.4532 19.2569C26.7072 19.8703 27.1375 20.3946 27.6895 20.7635C28.2415 21.1323 28.8905 21.3292 29.5545 21.3292C30.2184 21.3292 30.8674 21.1323 31.4195 20.7635C31.9715 20.3946 32.4017 19.8703 32.6558 19.2569C32.9098 18.6435 32.9762 17.9685 32.8467 17.3173C32.7171 16.6662 32.3973 16.0681 31.9278 15.5987ZM31.0926 19.51C30.7878 19.8178 30.3984 20.028 29.9739 20.114C29.5493 20.2 29.1088 20.1579 28.7083 19.9931C28.3077 19.8283 27.9652 19.5482 27.7241 19.1883C27.483 18.8284 27.3543 18.4051 27.3543 17.9719C27.3543 17.5388 27.483 17.1154 27.7241 16.7556C27.9652 16.3957 28.3077 16.1156 28.7083 15.9508C29.1088 15.786 29.5493 15.7439 29.9739 15.8299C30.3984 15.9159 30.7878 16.1261 31.0926 16.4338C31.4993 16.8424 31.7276 17.3954 31.7276 17.9719C31.7276 18.5484 31.4993 19.1015 31.0926 19.51ZM31.9278 15.5987C31.3041 14.9684 30.456 14.6113 29.5694 14.6056C29.1249 14.6015 28.6842 14.6873 28.2738 14.858C27.8634 15.0287 27.4917 15.2806 27.1812 15.5987C26.7117 16.0681 26.3919 16.6662 26.2623 17.3173C26.1327 17.9685 26.1992 18.6435 26.4532 19.2569C26.7072 19.8703 27.1375 20.3946 27.6895 20.7635C28.2415 21.1323 28.8905 21.3292 29.5545 21.3292C30.2184 21.3292 30.8674 21.1323 31.4195 20.7635C31.9715 20.3946 32.4017 19.8703 32.6558 19.2569C32.9098 18.6435 32.9762 17.9685 32.8467 17.3173C32.7171 16.6662 32.3973 16.0681 31.9278 15.5987ZM31.0926 19.51C30.7878 19.8178 30.3984 20.028 29.9739 20.114C29.5493 20.2 29.1088 20.1579 28.7083 19.9931C28.3077 19.8283 27.9652 19.5482 27.7241 19.1883C27.483 18.8284 27.3543 18.4051 27.3543 17.9719C27.3543 17.5388 27.483 17.1154 27.7241 16.7556C27.9652 16.3957 28.3077 16.1156 28.7083 15.9508C29.1088 15.786 29.5493 15.7439 29.9739 15.8299C30.3984 15.9159 30.7878 16.1261 31.0926 16.4338C31.4993 16.8424 31.7276 17.3954 31.7276 17.9719C31.7276 18.5484 31.4993 19.1015 31.0926 19.51ZM31.9278 15.5987C31.3041 14.9684 30.456 14.6113 29.5694 14.6056C29.1249 14.6015 28.6842 14.6873 28.2738 14.858C27.8634 15.0287 27.4917 15.2806 27.1812 15.5987C26.7117 16.0681 26.3919 16.6662 26.2623 17.3173C26.1327 17.9685 26.1992 18.6435 26.4532 19.2569C26.7072 19.8703 27.1375 20.3946 27.6895 20.7635C28.2415 21.1323 28.8905 21.3292 29.5545 21.3292C30.2184 21.3292 30.8674 21.1323 31.4195 20.7635C31.9715 20.3946 32.4017 19.8703 32.6558 19.2569C32.9098 18.6435 32.9762 17.9685 32.8467 17.3173C32.7171 16.6662 32.3973 16.0681 31.9278 15.5987ZM31.0926 19.51C30.7878 19.8178 30.3984 20.028 29.9739 20.114C29.5493 20.2 29.1088 20.1579 28.7083 19.9931C28.3077 19.8283 27.9652 19.5482 27.7241 19.1883C27.483 18.8284 27.3543 18.4051 27.3543 17.9719C27.3543 17.5388 27.483 17.1154 27.7241 16.7556C27.9652 16.3957 28.3077 16.1156 28.7083 15.9508C29.1088 15.786 29.5493 15.7439 29.9739 15.8299C30.3984 15.9159 30.7878 16.1261 31.0926 16.4338C31.4993 16.8424 31.7276 17.3954 31.7276 17.9719C31.7276 18.5484 31.4993 19.1015 31.0926 19.51ZM31.9278 15.5987C31.3041 14.9684 30.456 14.6113 29.5694 14.6056C29.1249 14.6015 28.6842 14.6873 28.2738 14.858C27.8634 15.0287 27.4917 15.2806 27.1812 15.5987C26.7117 16.0681 26.3919 16.6662 26.2623 17.3173C26.1327 17.9685 26.1992 18.6435 26.4532 19.2569C26.7072 19.8703 27.1375 20.3946 27.6895 20.7635C28.2415 21.1323 28.8905 21.3292 29.5545 21.3292C30.2184 21.3292 30.8674 21.1323 31.4195 20.7635C31.9715 20.3946 32.4017 19.8703 32.6558 19.2569C32.9098 18.6435 32.9762 17.9685 32.8467 17.3173C32.7171 16.6662 32.3973 16.0681 31.9278 15.5987ZM31.0926 19.51C30.7878 19.8178 30.3984 20.028 29.9739 20.114C29.5493 20.2 29.1088 20.1579 28.7083 19.9931C28.3077 19.8283 27.9652 19.5482 27.7241 19.1883C27.483 18.8284 27.3543 18.4051 27.3543 17.9719C27.3543 17.5388 27.483 17.1154 27.7241 16.7556C27.9652 16.3957 28.3077 16.1156 28.7083 15.9508C29.1088 15.786 29.5493 15.7439 29.9739 15.8299C30.3984 15.9159 30.7878 16.1261 31.0926 16.4338C31.4993 16.8424 31.7276 17.3954 31.7276 17.9719C31.7276 18.5484 31.4993 19.1015 31.0926 19.51ZM31.9278 15.5987C31.3041 14.9684 30.456 14.6113 29.5694 14.6056C29.1249 14.6015 28.6842 14.6873 28.2738 14.858C27.8634 15.0287 27.4917 15.2806 27.1812 15.5987C26.7117 16.0681 26.3919 16.6662 26.2623 17.3173C26.1327 17.9685 26.1992 18.6435 26.4532 19.2569C26.7072 19.8703 27.1375 20.3946 27.6895 20.7635C28.2415 21.1323 28.8905 21.3292 29.5545 21.3292C30.2184 21.3292 30.8674 21.1323 31.4195 20.7635C31.9715 20.3946 32.4017 19.8703 32.6558 19.2569C32.9098 18.6435 32.9762 17.9685 32.8467 17.3173C32.7171 16.6662 32.3973 16.0681 31.9278 15.5987ZM31.0926 19.51C30.7878 19.8178 30.3984 20.028 29.9739 20.114C29.5493 20.2 29.1088 20.1579 28.7083 19.9931C28.3077 19.8283 27.9652 19.5482 27.7241 19.1883C27.483 18.8284 27.3543 18.4051 27.3543 17.9719C27.3543 17.5388 27.483 17.1154 27.7241 16.7556C27.9652 16.3957 28.3077 16.1156 28.7083 15.9508C29.1088 15.786 29.5493 15.7439 29.9739 15.8299C30.3984 15.9159 30.7878 16.1261 31.0926 16.4338C31.4993 16.8424 31.7276 17.3954 31.7276 17.9719C31.7276 18.5484 31.4993 19.1015 31.0926 19.51Z" fill="#231F20"/>
<path d="M37.6705 9.99119C37.5302 9.84985 37.3587 9.74349 37.1697 9.68068C36.9807 9.61787 36.7796 9.60037 36.5826 9.6296L35.1106 9.89413C30.9581 10.6902 27.0159 12.3386 23.5328 14.7354C20.0497 17.1322 17.1014 20.2252 14.8742 23.8191C14.854 23.851 14.8359 23.8842 14.8198 23.9183C14.7868 23.9762 14.7589 24.0369 14.7366 24.0997C14.6417 24.3855 14.6577 24.7589 14.7793 25.1983C15.0012 26.0228 15.5804 27.0745 16.4337 28.1689C16.2022 27.8133 16.0226 27.4265 15.9004 27.0201C15.8264 26.8016 15.8175 26.5663 15.8748 26.3428C15.8885 26.3039 15.9052 26.2661 15.9249 26.2298C15.9289 26.2221 15.9344 26.2152 15.9409 26.2095C15.9567 26.1841 15.9757 26.1608 15.9974 26.1402C16.1819 25.9567 16.5019 25.9343 16.9062 26.0495C17.6667 26.2628 18.7259 26.9572 19.7253 27.9588C20.7248 28.9604 21.4138 30.0089 21.6293 30.7694C21.7488 31.1779 21.7264 31.5011 21.545 31.6856L21.5312 31.6974C21.5139 31.7137 21.4953 31.7287 21.4757 31.7422C21.4049 31.7889 21.3249 31.8198 21.241 31.8328C21.0351 31.8594 20.8259 31.8393 20.6288 31.7742C20.2327 31.6471 19.8553 31.4678 19.5067 31.2409C20.5819 32.0803 21.6133 32.6563 22.4346 32.8888C22.7539 32.9932 23.0923 33.0256 23.4255 32.9837C23.5598 32.9498 23.6877 32.8944 23.8042 32.8195L23.8948 32.7651C27.4531 30.5905 30.5185 27.6974 32.8951 24.2707C35.2717 20.8441 36.9072 16.9594 37.6972 12.8647L38.0247 11.1037V11.0813C38.0544 10.8846 38.0379 10.6836 37.9764 10.4944C37.915 10.3052 37.8102 10.1329 37.6705 9.99119ZM36.542 12.6439C35.0754 20.2736 30.0718 27.3348 23.5748 31.596C23.225 30.3662 21.9525 28.5241 20.3408 26.9124C18.7291 25.3007 17.3542 24.4591 16.1211 24.1135C20.4667 17.575 27.6057 12.5287 35.3367 11.0568L36.7564 10.7976C36.771 10.7971 36.7855 10.7995 36.7991 10.8049C36.8127 10.8102 36.825 10.8182 36.8354 10.8285C36.8448 10.8389 36.8521 10.851 36.8569 10.8641C36.8616 10.8773 36.8637 10.8913 36.8631 10.9053L36.542 12.6439Z" fill="#231F20"/>
<path d="M32.8035 27.7498C32.7816 27.5825 32.7092 27.4259 32.596 27.3009C32.4828 27.1758 32.3341 27.0883 32.1699 27.05C32.0126 27.0154 31.8485 27.0278 31.6983 27.0859C31.548 27.1439 31.4182 27.245 31.3251 27.3764C30.0233 28.9171 28.5715 30.3245 26.9913 31.5779L26.9775 31.5907C26.804 31.6648 26.6653 31.8023 26.5898 31.9752C26.5142 32.148 26.5075 32.3432 26.5711 32.5208L28.106 36.3426C28.1675 36.5414 28.2838 36.7189 28.4415 36.8548C28.5992 36.9906 28.7919 37.0793 28.9977 37.1106C29.0572 37.1209 29.1175 37.1259 29.1779 37.1255C29.3664 37.1255 29.5518 37.0788 29.7177 36.9894C29.8836 36.9 30.0247 36.7709 30.1283 36.6136L31.0094 35.34C32.5418 33.1261 33.1825 30.4155 32.8035 27.7498ZM30.0366 34.668L29.1961 35.884L27.8094 32.4355C29.2124 31.3133 30.5184 30.0748 31.7134 28.7332C31.8275 30.8426 31.2377 32.9302 30.0366 34.668Z" fill="#231F20"/>
<path d="M20.6139 15.5922C20.5751 15.4281 20.487 15.2799 20.3616 15.1672C20.2362 15.0546 20.0794 14.9829 19.9121 14.9618C17.246 14.5831 14.5353 15.2238 12.3208 16.7559L11.0888 17.6092C10.8983 17.7003 10.7391 17.846 10.6314 18.0277C10.5237 18.2095 10.4724 18.4191 10.484 18.63C10.5002 18.8491 10.5824 19.0582 10.7199 19.2296C10.8575 19.401 11.0437 19.5267 11.2541 19.59L15.0439 21.1121L15.077 21.1238C15.1494 21.1471 15.225 21.159 15.301 21.159C15.5114 21.15 15.7146 21.0795 15.8855 20.9563L15.9335 20.9243L16.0402 20.8177L16.0924 20.759C17.2316 19.2657 18.6023 17.8471 20.2843 16.4359C20.4155 16.3427 20.5166 16.2132 20.5752 16.0633C20.6337 15.9134 20.6472 15.7496 20.6139 15.5922ZM15.2466 19.9228L11.8152 18.5436L12.9885 17.7287C14.725 16.5271 16.8115 15.9365 18.9201 16.0498C17.5719 17.2176 16.3415 18.5148 15.2466 19.9228Z" fill="#231F20"/>
<path fill-rule="evenodd" clip-rule="evenodd" d="M7.68721 42.7062C7.67761 42.7393 7.66908 42.7724 7.66054 42.8065C7.60144 43.0403 7.56923 43.2801 7.56454 43.5212C7.56284 44.0265 7.61649 44.5304 7.72454 45.024C7.75867 45.1968 7.85573 45.4102 7.8568 45.5862C7.8568 45.5862 7.83333 43.4838 11.3959 41.9713C17.0843 39.5543 18.9744 35.7848 18.4454 33.0425C18.2395 33.4798 17.8672 33.8446 17.528 34.299C17.2025 34.7375 16.8177 35.1288 16.3846 35.4616C16.0133 35.7466 15.6089 35.9858 15.1804 36.1741C14.8285 36.3301 14.4614 36.4491 14.0849 36.5293C13.7244 36.605 13.3159 36.684 12.9543 36.5762C12.9431 36.5745 12.9325 36.5704 12.9231 36.5641C12.9137 36.5578 12.9058 36.5496 12.8999 36.54C12.8951 36.5251 12.8951 36.509 12.8999 36.4941C12.9281 36.338 12.9837 36.1882 13.0642 36.0514C13.1054 35.9805 13.1529 35.9134 13.206 35.8509C13.2583 35.7912 13.3244 35.7443 13.3756 35.6845C13.3319 35.6963 13.286 35.6931 13.2423 35.7016C13.1783 35.7144 13.1143 35.7293 13.0514 35.7453C12.8615 35.7933 12.6748 35.8531 12.4924 35.9245C12.0297 36.101 11.5997 36.3533 11.2199 36.6712C10.6003 37.2007 10.0229 37.7777 9.49303 38.397C9.49303 38.397 10.4135 33.3656 12.7367 31.2153C13.4143 30.5659 14.1932 30.0313 15.0428 29.6324C11.1453 29.018 6.93629 35.1736 5.18273 39.9095C2.90758 46.0566 0.000976562 48 0.000976562 48C0.622829 47.7077 1.18495 47.2619 1.73 46.8491C2.48732 46.2752 3.22331 45.6758 3.95289 45.0624C4.58719 44.5291 5.21402 43.9876 5.83338 43.4379C6.01898 43.2726 6.20457 43.1062 6.38483 42.9356C6.69944 42.6242 7.08159 42.3895 7.50161 42.2497C7.63418 42.2068 7.76964 42.1733 7.90694 42.1494C7.86747 42.1569 7.78961 42.4097 7.77361 42.4502C7.74054 42.5324 7.71174 42.6177 7.68721 42.7062Z" fill="#231F20"/>
<path d="M67.126 9.16888V11.1955H63.5901V21.9686H61.0302V11.1955H57.5103V9.16888H67.126Z" fill="white"/>
<path d="M77.8974 17.4374H70.5376C70.5738 18.332 70.8156 18.9908 71.2629 19.4139C71.4856 19.6241 71.7476 19.7883 72.0338 19.8972C72.3201 20.0061 72.625 20.0575 72.9311 20.0485C73.5227 20.0485 74.0152 19.9035 74.4084 19.6133C74.7981 19.3285 75.0668 18.908 75.1615 18.4347H77.8633C77.7358 19.1232 77.443 19.7703 77.0099 20.3205C76.5645 20.8851 75.9888 21.3331 75.3321 21.6261C74.5565 21.9613 73.7164 22.1213 72.8718 22.0948C72.0272 22.0682 71.1989 21.8558 70.4458 21.4725C69.6916 21.0634 69.0738 20.4423 68.6688 19.6859C68.2421 18.9129 68.0288 18.0002 68.0288 16.9478C68.0288 15.8954 68.2421 14.9798 68.6688 14.2012C69.0708 13.4435 69.689 12.8224 70.4448 12.4167C71.2496 11.9954 72.1476 11.7834 73.0559 11.8002C74.0465 11.8002 74.9136 12.0057 75.6574 12.4167C76.3804 12.8079 76.9777 13.3959 77.3801 14.1127C77.9353 15.1273 78.1183 16.3042 77.8974 17.4395V17.4374ZM74.7689 14.4433C74.3009 14.0191 73.6873 13.7918 73.0559 13.8087C72.416 13.791 71.7935 14.018 71.3151 14.4433C70.8437 14.87 70.5838 15.4925 70.5354 16.311H75.4132C75.4495 15.4925 75.2347 14.87 74.7689 14.4433Z" fill="white"/>
<path d="M85.911 12.3965C86.5037 12.7807 86.9555 13.3471 87.1984 14.0103V11.925H89.737V21.9707H87.1984V19.8672C86.9543 20.5323 86.503 21.1014 85.911 21.4907C85.3073 21.8946 84.582 22.0969 83.735 22.0976C82.9309 22.1093 82.1394 21.8957 81.4503 21.4811C80.7584 21.0537 80.207 20.4329 79.8642 19.6955C79.4831 18.9133 79.2925 17.9974 79.2925 16.9478C79.2925 15.8983 79.4831 14.9827 79.8642 14.2012C80.2079 13.4647 80.7591 12.8444 81.4503 12.4167C82.1396 12.0026 82.9309 11.7891 83.735 11.8002C84.582 11.7988 85.3073 11.9976 85.911 12.3965ZM82.6108 14.8082C82.1273 15.3287 81.8855 16.0419 81.8855 16.9478C81.8855 17.8538 82.1273 18.5649 82.6108 19.0811C83.0951 19.5938 83.735 19.8505 84.5308 19.8512C84.8873 19.8622 85.242 19.7976 85.5718 19.6617C85.9016 19.5259 86.1989 19.3218 86.4443 19.063C86.9421 18.5375 87.1927 17.8332 87.1963 16.95C87.1963 16.0561 86.9456 15.345 86.4443 14.8167C86.199 14.5577 85.9017 14.3535 85.5719 14.2175C85.2421 14.0815 84.8873 14.0167 84.5308 14.0274C83.7343 14.0281 83.0943 14.2883 82.6108 14.8082Z" fill="white"/>
<path d="M107.734 12.9137C108.441 13.6689 108.794 14.7416 108.794 16.1318V21.9706H106.256V16.4241C106.256 15.6511 106.06 15.0559 105.667 14.6385C105.275 14.2211 104.733 14.0124 104.044 14.0124C103.332 14.0124 102.764 14.236 102.337 14.6833C101.91 15.1306 101.699 15.7834 101.702 16.6416V21.9749H99.1637V16.4283C99.1637 15.6554 98.9674 15.0602 98.5749 14.6428C98.1824 14.2253 97.6412 14.0166 96.9515 14.0166C96.2404 14.0166 95.6715 14.2403 95.2449 14.6876C94.8182 15.1348 94.6049 15.7876 94.6049 16.6459V21.9791H92.0449V11.925H94.6049V13.8289C94.8498 13.201 95.2923 12.6697 95.8656 12.3153C96.4693 11.9513 97.164 11.7664 97.8688 11.782C98.6147 11.7645 99.3494 11.9663 99.9818 12.3623C100.596 12.7636 101.071 13.3457 101.341 14.0284C101.642 13.353 102.133 12.7801 102.755 12.3801C103.377 11.9802 104.102 11.7704 104.841 11.7767C106.063 11.7767 107.027 12.1557 107.734 12.9137Z" fill="white"/>
<path d="M66.7272 38.4087C66.3786 38.9783 65.8756 39.4373 65.2765 39.7324C64.6365 40.0652 63.8568 40.2312 62.9374 40.2305C62.1043 40.245 61.2772 40.0878 60.5076 39.7687C59.8269 39.4861 59.2348 39.0255 58.7935 38.4353C58.3604 37.8437 58.1057 37.1405 58.0596 36.4087H60.7795C60.8265 36.9018 61.0482 37.3618 61.4046 37.7058C61.7601 38.0506 62.2348 38.2227 62.8286 38.222C63.3598 38.222 63.7676 38.0798 64.052 37.7954C64.1938 37.6509 64.3048 37.4791 64.3781 37.2904C64.4514 37.1017 64.4857 36.9001 64.4787 36.6978C64.4919 36.337 64.3689 35.9844 64.1341 35.7101C63.892 35.4417 63.5952 35.2282 63.2638 35.084C62.9132 34.9275 62.4297 34.7462 61.8131 34.54C61.1419 34.3255 60.4874 34.0621 59.8548 33.7517C59.3375 33.4836 58.8925 33.0947 58.5577 32.6179C58.2022 32.1201 58.0244 31.4734 58.0244 30.6776C58.0244 29.5776 58.4201 28.7104 59.2116 28.0761C60.003 27.4418 61.0519 27.1243 62.3582 27.1236C63.7093 27.1236 64.788 27.45 65.5944 28.1028C66.4008 28.7556 66.8573 29.6259 66.9639 30.7139H64.2077C64.1487 30.2813 63.9441 29.8818 63.6275 29.5811C63.3125 29.2846 62.8833 29.1364 62.34 29.1364C61.8686 29.1364 61.4878 29.2604 61.1977 29.5086C60.9076 29.7568 60.7625 30.1162 60.7625 30.587C60.7505 30.9298 60.8703 31.2642 61.0974 31.5214C61.337 31.7803 61.6275 31.9869 61.9507 32.1283C62.4094 32.3292 62.8787 32.5047 63.3566 32.6541C64.0394 32.8874 64.7082 33.1598 65.3597 33.4701C65.8867 33.735 66.3388 34.1278 66.6749 34.6125C67.0375 35.1202 67.2189 35.7851 67.2189 36.6071C67.2225 37.2413 67.0524 37.8643 66.7272 38.4087Z" fill="white"/>
<path d="M77.3887 30.5497C78.0807 30.9776 78.6324 31.5986 78.9758 32.3363C79.357 33.1185 79.5472 34.034 79.5465 35.0829C79.5458 36.1317 79.3556 37.0476 78.9758 37.8306C78.6327 38.5681 78.0809 39.1889 77.3887 39.6161C76.6996 40.031 75.9082 40.2446 75.1039 40.2326C74.2584 40.2326 73.5363 40.0303 72.9376 39.6257C72.3493 39.2343 71.901 38.6657 71.6576 38.0023V44.8928H69.0977V30.0579H71.6576V32.1432C71.8998 31.4817 72.3486 30.9159 72.9376 30.5294C73.5356 30.1305 74.2577 29.931 75.1039 29.931C75.9083 29.9202 76.6997 30.1345 77.3887 30.5497ZM72.3936 32.9528C71.8958 33.479 71.6448 34.1901 71.6405 35.0861C71.6405 35.9693 71.8916 36.6736 72.3936 37.1991C72.6388 37.4579 72.9359 37.6619 73.2655 37.7978C73.5951 37.9336 73.9497 37.9982 74.3061 37.9873C75.1039 37.9873 75.7439 37.7306 76.226 37.2172C76.7082 36.7038 76.9499 35.9927 76.9513 35.084C76.9513 34.1773 76.7096 33.4641 76.226 32.9443C75.7425 32.4244 75.1025 32.1645 74.3061 32.1645C73.9499 32.1534 73.5954 32.2177 73.2658 32.3532C72.9362 32.4887 72.639 32.6923 72.3936 32.9507V32.9528Z" fill="white"/>
<path d="M87.4746 30.5294C88.0673 30.9136 88.5191 31.48 88.762 32.1432V30.0579H91.3007V40.1035H88.7546V38.0001C88.5104 38.6652 88.0591 39.2343 87.4672 39.6235C86.8634 40.0274 86.1381 40.2298 85.2912 40.2305C84.487 40.2421 83.6956 40.0286 83.0064 39.6139C82.3146 39.1866 81.7632 38.5658 81.4204 37.8284C81.0392 37.0462 80.8486 36.1303 80.8486 35.0807C80.8486 34.0311 81.0392 33.1156 81.4204 32.3341C81.7637 31.5967 82.315 30.9758 83.0064 30.5475C83.6958 30.1333 84.4871 29.9198 85.2912 29.931C86.1395 29.931 86.8673 30.1304 87.4746 30.5294ZM84.168 32.941C83.6845 33.4616 83.4427 34.1748 83.4427 35.0807C83.4427 35.9866 83.6845 36.6977 84.168 37.214C84.6516 37.7267 85.2916 37.9834 86.088 37.9841C86.4445 37.995 86.7993 37.9304 87.129 37.7946C87.4588 37.6588 87.7562 37.4547 88.0015 37.1959C88.5029 36.6704 88.7517 35.966 88.7482 35.0828C88.7482 34.189 88.4993 33.4779 88.0015 32.9496C87.7562 32.6906 87.4589 32.4864 87.1291 32.3504C86.7994 32.2143 86.4446 32.1495 86.088 32.1602C85.293 32.161 84.653 32.4212 84.168 32.941Z" fill="white"/>
<path d="M101.37 30.9827C102.234 31.6846 102.775 32.6396 102.992 33.8477H100.29C100.202 33.3514 99.9368 32.9038 99.5438 32.588C99.1563 32.2801 98.6667 32.1258 98.075 32.1251C97.7546 32.1188 97.4367 32.183 97.1438 32.3131C96.851 32.4432 96.5903 32.6361 96.3801 32.8781C95.9272 33.3795 95.7003 34.1137 95.6996 35.0808C95.6989 36.0478 95.9258 36.7824 96.3801 37.2844C96.591 37.5252 96.852 37.7168 97.1448 37.8458C97.4376 37.9748 97.7551 38.038 98.075 38.0311C98.6674 38.0311 99.157 37.8771 99.5438 37.5692C99.9371 37.2532 100.202 36.8052 100.29 36.3085H102.992C102.775 37.5173 102.234 38.4723 101.37 39.1735C100.506 39.8746 99.4268 40.2252 98.1326 40.2252C97.2233 40.2423 96.3245 40.0272 95.5215 39.6001C94.7675 39.1907 94.1498 38.5697 93.7445 37.8135C93.3178 37.0405 93.1045 36.1278 93.1045 35.0754C93.1045 34.023 93.3178 33.1075 93.7445 32.3288C94.1467 31.5704 94.7652 30.9485 95.5215 30.5422C96.3264 30.1209 97.2243 29.9089 98.1326 29.9257C99.4261 29.9292 100.505 30.2816 101.37 30.9827Z" fill="white"/>
<path d="M114.162 35.5703H106.802C106.838 36.4656 107.08 37.1244 107.527 37.5468C107.75 37.7579 108.012 37.9231 108.298 38.033C108.584 38.1428 108.889 38.195 109.196 38.1868C109.788 38.1868 110.281 38.0417 110.674 37.7516C111.06 37.4671 111.327 37.0487 111.421 36.5783H114.123C113.995 37.2668 113.702 37.9139 113.269 38.4641C112.824 39.0286 112.249 39.4766 111.592 39.7697C110.817 40.1048 109.976 40.2648 109.132 40.2383C108.287 40.2117 107.458 39.9993 106.705 39.6161C105.951 39.2067 105.333 38.5856 104.928 37.8295C104.501 37.0565 104.288 36.1438 104.288 35.0914C104.288 34.039 104.501 33.1234 104.928 32.3448C105.33 31.5864 105.949 30.9645 106.705 30.5582C107.51 30.1369 108.408 29.9248 109.316 29.9417C110.307 29.9417 111.174 30.1472 111.919 30.5582C112.642 30.9493 113.239 31.5374 113.641 32.2541C114.054 33.0052 114.263 33.8508 114.248 34.7074C114.246 34.9971 114.217 35.2859 114.162 35.5703ZM111.035 32.5837C110.567 32.1579 109.953 31.9287 109.321 31.9437C108.68 31.9275 108.057 32.1564 107.58 32.5837C107.108 33.0104 106.848 33.6329 106.8 34.4514H111.678C111.714 33.628 111.5 33.0029 111.035 32.5763V32.5837Z" fill="white"/>
</svg>
