<svg width="20" height="17" viewBox="0 0 20 17" fill="none" xmlns="http://www.w3.org/2000/svg">
<path d="M7.74262 2.40558C7.94502 2.2141 8.19459 2.07261 8.46914 1.9937C8.7437 1.91479 9.03473 1.9009 9.31637 1.95327C9.59801 2.00563 9.86152 2.12263 10.0835 2.29385C10.3055 2.46508 10.479 2.68524 10.5887 2.93475C10.6984 3.18426 10.7409 3.4554 10.7123 3.72406C10.6837 3.99272 10.585 4.25058 10.4249 4.47472C10.2649 4.69885 10.0484 4.88232 9.79476 5.00881C9.54113 5.1353 9.25819 5.20089 8.9711 5.19976H1.1297M10.3564 14.5492C10.5588 14.7407 10.8084 14.8821 11.0829 14.9611C11.3575 15.04 11.6485 15.0539 11.9302 15.0015C12.2118 14.9491 12.4753 14.8321 12.6973 14.6609C12.9193 14.4897 13.0928 14.2695 13.2025 14.02C13.3122 13.7705 13.3547 13.4994 13.3261 13.2307C13.2975 12.962 13.1988 12.7042 13.0387 12.48C12.8787 12.2559 12.6622 12.0724 12.4086 11.946C12.1549 11.8195 11.872 11.7539 11.5849 11.755H1.1297M14.8347 4.97852C15.0881 4.7408 15.3999 4.56547 15.7425 4.46804C16.0851 4.37061 16.448 4.35408 16.799 4.41992C17.15 4.48575 17.4783 4.63193 17.755 4.8455C18.0316 5.05908 18.2481 5.33348 18.3851 5.64444C18.5222 5.9554 18.5756 6.29333 18.5408 6.62835C18.5059 6.96336 18.3838 7.28514 18.1853 7.56522C17.9867 7.84529 17.7179 8.07504 17.4025 8.23414C17.087 8.39324 16.7348 8.47678 16.3769 8.47738H1.1297" stroke="black" stroke-opacity="0.3" stroke-width="2" stroke-linecap="round" stroke-linejoin="round"/>
</svg>
