<svg width="144" height="151" viewBox="0 0 144 151" fill="none" xmlns="http://www.w3.org/2000/svg">
<path d="M111.5 3.5L91.5 23.5L96 48L126 18C132.4 -2.8 119 -0.333333 111.5 3.5Z" fill="#ED2424" stroke="#ED2424"/>
<path d="M127 26.5869L107 46.5869L111.5 71.0869L141.5 41.0869C147.9 20.2869 134.5 22.7536 127 26.5869Z" fill="#ED2424" stroke="#ED2424"/>
<path d="M130.477 30.0327L115 45.7484L118.482 65L141.698 41.4266C146.651 25.0823 136.281 27.0206 130.477 30.0327Z" fill="#F04444"/>
<path d="M130.477 30.0327L115 45.7484L118.482 65L141.698 41.4266C146.651 25.0823 136.281 27.0206 130.477 30.0327Z" fill="#F04444"/>
<path d="M130.477 30.0327L115 45.7484L118.482 65L141.698 41.4266C146.651 25.0823 136.281 27.0206 130.477 30.0327Z" stroke="#ED2424"/>
<path d="M108.477 11.0327L93 26.7484L96.4824 46L119.698 22.4266C124.651 6.0823 114.281 8.02056 108.477 11.0327Z" fill="#F04444"/>
<path d="M108.477 11.0327L93 26.7484L96.4824 46L119.698 22.4266C124.651 6.0823 114.281 8.02056 108.477 11.0327Z" fill="#F04444"/>
<path d="M108.477 11.0327L93 26.7484L96.4824 46L119.698 22.4266C124.651 6.0823 114.281 8.02056 108.477 11.0327Z" stroke="#ED2424"/>
<path d="M138.056 67.6134C126.369 55.9263 118.375 41.9223 103.5 46C107.578 31.1244 95.1848 24.7416 83.4977 13.0548C81.9804 11.5375 79.5207 11.5375 78.0033 13.0548L8.08977 82.9684C-0.99523 92.0534 -1.47082 106.646 7.03683 116.273C11.1774 120.959 15.6951 125.768 20.5186 130.592C25.3421 135.416 30.1521 139.933 34.8377 144.074C44.4654 152.582 59.0577 152.106 68.1424 143.021L138.056 73.1078C139.574 71.5904 139.574 69.1307 138.056 67.6134Z" fill="url(#paint0_linear_6_83)"/>
<path d="M81.396 11.0317C75.7767 14.9548 79.855 12.1744 79.2154 12.8122C77.8826 14.1414 77.9572 16.4951 79.0851 19.5191C79.5567 20.783 79.3025 22.1514 78.4049 23.0465L69.3184 32.1085C68.0282 33.3951 68.1082 35.567 69.497 36.9596C70.8858 38.3521 73.0575 38.438 74.3476 37.1514L77.9387 33.57C80.8516 30.665 85.8464 31.169 88.6096 34.6393C89.6095 35.8949 90.6612 37.168 91.7551 38.4489C94.2487 41.3687 94.2227 45.55 91.7025 48.0634L76.3668 63.3576C75.0766 64.6442 75.1566 66.8162 76.5454 68.2087C77.9342 69.6013 80.1059 69.6872 81.396 68.4005L95.9473 53.8887C96.7807 53.0575 98.1837 53.1129 99.081 54.0126C99.9783 54.9123 100.03 56.3154 99.1964 57.1467L98.46 57.8812C97.1698 59.1678 97.2498 61.3398 98.6386 62.7323C100.027 64.1249 102.199 64.2107 103.489 62.9241L104.502 61.9142C107.414 59.0104 112.197 58.9188 115.671 61.673C117.3 62.9641 118.897 64.1649 120.442 65.2543C121.628 66.0904 121.846 67.7402 120.892 68.6917C119.602 69.9783 119.682 72.1503 121.07 73.5429C122.459 74.9354 124.631 75.0213 125.921 73.7346L125.935 73.7209C127.741 71.9194 130.351 71.1779 132.995 71.6054C134.715 71.8834 135.279 74.6314 136.179 73.7346C136.818 73.0968 134 78.5 141 70C124.921 56.6467 90.1786 12.8122 81.396 11.0317Z" fill="url(#paint1_linear_6_83)"/>
<path d="M83.4978 13.0548C81.9804 11.5375 79.5207 11.5375 78.0034 13.0548L8.09012 82.9681C-0.99929 92.0575 -1.46459 106.654 7.04835 116.286C10.0022 119.628 13.1478 123.033 16.4592 126.461L75.3078 67.6128C80.9487 61.9719 99.8209 50.968 107 49C111.077 34.1247 95.1845 24.7416 83.4978 13.0548Z" fill="url(#paint2_linear_6_83)"/>
<path d="M8.08977 82.9684C-0.99523 92.0534 -1.47082 106.646 7.03683 116.273C11.1774 120.959 15.6951 125.768 20.5189 130.592C25.3427 135.416 30.1524 139.933 34.838 144.074C44.4657 152.582 59.058 152.106 68.1427 143.021L8.08977 82.9684Z" fill="url(#paint3_linear_6_83)"/>
<g opacity="0.6">
<g opacity="0.6">
<path opacity="0.6" d="M45.0183 59.6316C46.2114 59.6316 47.1786 58.6644 47.1786 57.4713C47.1786 56.2782 46.2114 55.311 45.0183 55.311C43.8252 55.311 42.858 56.2782 42.858 57.4713C42.858 58.6644 43.8252 59.6316 45.0183 59.6316Z" fill="url(#paint4_linear_6_83)"/>
<path opacity="0.6" d="M45.8355 66.0049C46.7773 66.0049 47.5408 65.2414 47.5408 64.2996C47.5408 63.3578 46.7773 62.5943 45.8355 62.5943C44.8937 62.5943 44.1302 63.3578 44.1302 64.2996C44.1302 65.2414 44.8937 66.0049 45.8355 66.0049Z" fill="url(#paint5_linear_6_83)"/>
<path opacity="0.6" d="M52.2826 61.3604C52.8504 61.3604 53.3108 60.9001 53.3108 60.3322C53.3108 59.7643 52.8504 59.304 52.2826 59.304C51.7147 59.304 51.2543 59.7643 51.2543 60.3322C51.2543 60.9001 51.7147 61.3604 52.2826 61.3604Z" fill="url(#paint6_linear_6_83)"/>
</g>
<g opacity="0.6">
<path opacity="0.6" d="M54.5389 52.5508C55.4205 52.5508 56.1351 51.8361 56.1351 50.9546C56.1351 50.073 55.4205 49.3584 54.5389 49.3584C53.6574 49.3584 52.9428 50.073 52.9428 50.9546C52.9428 51.8361 53.6574 52.5508 54.5389 52.5508Z" fill="url(#paint7_linear_6_83)"/>
<path opacity="0.6" d="M51.1811 56.029C51.8771 56.029 52.4414 55.4648 52.4414 54.7687C52.4414 54.0727 51.8771 53.5084 51.1811 53.5084C50.485 53.5084 49.9208 54.0727 49.9208 54.7687C49.9208 55.4648 50.485 56.029 51.1811 56.029Z" fill="url(#paint8_linear_6_83)"/>
<path opacity="0.6" d="M56.5422 57.1243C56.9617 57.1243 57.3019 56.7841 57.3019 56.3646C57.3019 55.945 56.9617 55.6049 56.5422 55.6049C56.1226 55.6049 55.7824 55.945 55.7824 56.3646C55.7824 56.7841 56.1226 57.1243 56.5422 57.1243Z" fill="url(#paint9_linear_6_83)"/>
</g>
</g>
<g opacity="0.6">
<g opacity="0.6">
<path opacity="0.6" d="M36.4967 116.786C37.6898 116.786 38.657 115.819 38.657 114.626C38.657 113.433 37.6898 112.466 36.4967 112.466C35.3036 112.466 34.3364 113.433 34.3364 114.626C34.3364 115.819 35.3036 116.786 36.4967 116.786Z" fill="url(#paint10_linear_6_83)"/>
<path opacity="0.6" d="M32.4857 121.917C33.4275 121.917 34.191 121.154 34.191 120.212C34.191 119.27 33.4275 118.507 32.4857 118.507C31.5439 118.507 30.7804 119.27 30.7804 120.212C30.7804 121.154 31.5439 121.917 32.4857 121.917Z" fill="url(#paint11_linear_6_83)"/>
<path opacity="0.6" d="M39.9193 122.671C40.4871 122.671 40.9475 122.211 40.9475 121.643C40.9475 121.075 40.4871 120.615 39.9193 120.615C39.3514 120.615 38.891 121.075 38.891 121.643C38.891 122.211 39.3514 122.671 39.9193 122.671Z" fill="url(#paint12_linear_6_83)"/>
</g>
<g opacity="0.6">
<path opacity="0.6" d="M113.593 82.1087C114.786 82.1087 115.753 81.1415 115.753 79.9484C115.753 78.7553 114.786 77.7881 113.593 77.7881C112.4 77.7881 111.432 78.7553 111.432 79.9484C111.432 81.1415 112.4 82.1087 113.593 82.1087Z" fill="url(#paint13_linear_6_83)"/>
<path opacity="0.6" d="M109.582 87.2398C110.523 87.2398 111.287 86.4763 111.287 85.5345C111.287 84.5927 110.523 83.8292 109.582 83.8292C108.64 83.8292 107.876 84.5927 107.876 85.5345C107.876 86.4763 108.64 87.2398 109.582 87.2398Z" fill="url(#paint14_linear_6_83)"/>
<path opacity="0.6" d="M117.015 87.9937C117.583 87.9937 118.043 87.5333 118.043 86.9654C118.043 86.3976 117.583 85.9372 117.015 85.9372C116.447 85.9372 115.987 86.3976 115.987 86.9654C115.987 87.5333 116.447 87.9937 117.015 87.9937Z" fill="url(#paint15_linear_6_83)"/>
</g>
<g opacity="0.6">
<path opacity="0.6" d="M47.9189 117.85C48.8005 117.85 49.5151 117.136 49.5151 116.254C49.5151 115.372 48.8005 114.658 47.9189 114.658C47.0374 114.658 46.3227 115.372 46.3227 116.254C46.3227 117.136 47.0374 117.85 47.9189 117.85Z" fill="url(#paint16_linear_6_83)"/>
<path opacity="0.6" d="M42.8664 118.057C43.5624 118.057 44.1267 117.493 44.1267 116.797C44.1267 116.101 43.5624 115.537 42.8664 115.537C42.1704 115.537 41.6061 116.101 41.6061 116.797C41.6061 117.493 42.1704 118.057 42.8664 118.057Z" fill="url(#paint17_linear_6_83)"/>
<path opacity="0.6" d="M45.7405 122.356C46.1601 122.356 46.5002 122.016 46.5002 121.596C46.5002 121.176 46.1601 120.836 45.7405 120.836C45.3209 120.836 44.9808 121.176 44.9808 121.596C44.9808 122.016 45.3209 122.356 45.7405 122.356Z" fill="url(#paint18_linear_6_83)"/>
</g>
</g>
<path d="M90.9304 18.0469L76.3334 31.7196C73.9401 33.9614 73.3842 37.2564 75.0918 39.0794C76.7994 40.9025 80.1237 40.563 82.5171 38.3212L85.4743 35.5512C86.3035 34.7746 87.455 34.657 88.0466 35.2886C88.6382 35.9202 88.4456 37.0615 87.6165 37.8382L87.3758 38.0636C85.5398 39.7834 85.1133 42.3112 86.4233 43.7098C87.7333 45.1083 90.2836 44.8479 92.1196 43.1281L104 31L90.9304 18.0469Z" fill="url(#paint19_linear_6_83)"/>
<path d="M117.429 45L97.05 64.0887C93.7086 67.2185 92.4167 71.2681 94.1644 73.1339C95.9121 74.9997 100.037 73.9751 103.379 70.8453L107.507 66.9781C108.665 65.8937 110.094 65.5388 110.7 66.1852C111.305 66.8317 110.858 68.2344 109.7 69.3187L109.364 69.6334C106.801 72.0344 105.809 75.1411 107.15 76.5725C108.491 78.0038 111.656 77.2178 114.219 74.8168L130.805 59.2806L117.429 45Z" fill="url(#paint20_linear_6_83)"/>
<defs>
<linearGradient id="paint0_linear_6_83" x1="40.7104" y1="43.6192" x2="90.7502" y2="119.751" gradientUnits="userSpaceOnUse">
<stop stop-color="#FAA68E"/>
<stop offset="0.2061" stop-color="#FBA682"/>
<stop offset="0.5808" stop-color="#FDA861"/>
<stop offset="1" stop-color="#FFA936"/>
</linearGradient>
<linearGradient id="paint1_linear_6_83" x1="97.7545" y1="45.5396" x2="226.559" y2="1.19392" gradientUnits="userSpaceOnUse">
<stop stop-color="#FFC639"/>
<stop offset="1" stop-color="#C0272D"/>
</linearGradient>
<linearGradient id="paint2_linear_6_83" x1="44.7659" y1="62.2789" x2="81.9171" y2="132.518" gradientUnits="userSpaceOnUse">
<stop stop-color="#F82814" stop-opacity="0"/>
<stop offset="0.2454" stop-color="#F12817" stop-opacity="0.245"/>
<stop offset="0.6052" stop-color="#DD2820" stop-opacity="0.605"/>
<stop offset="1" stop-color="#C0272D"/>
</linearGradient>
<linearGradient id="paint3_linear_6_83" x1="31.463" y1="119.657" x2="16.8055" y2="134.314" gradientUnits="userSpaceOnUse">
<stop stop-color="#F82814" stop-opacity="0"/>
<stop offset="0.2454" stop-color="#F12817" stop-opacity="0.245"/>
<stop offset="0.6052" stop-color="#DD2820" stop-opacity="0.605"/>
<stop offset="1" stop-color="#C0272D"/>
</linearGradient>
<linearGradient id="paint4_linear_6_83" x1="48.317" y1="58.4263" x2="38.4355" y2="55.8086" gradientUnits="userSpaceOnUse">
<stop stop-color="#F82814" stop-opacity="0"/>
<stop offset="0.2454" stop-color="#F12817" stop-opacity="0.245"/>
<stop offset="0.6052" stop-color="#DD2820" stop-opacity="0.605"/>
<stop offset="1" stop-color="#C0272D"/>
</linearGradient>
<linearGradient id="paint5_linear_6_83" x1="48.4663" y1="65.0755" x2="40.6655" y2="63.0086" gradientUnits="userSpaceOnUse">
<stop stop-color="#F82814" stop-opacity="0"/>
<stop offset="0.2454" stop-color="#F12817" stop-opacity="0.245"/>
<stop offset="0.6052" stop-color="#DD2820" stop-opacity="0.605"/>
<stop offset="1" stop-color="#C0272D"/>
</linearGradient>
<linearGradient id="paint6_linear_6_83" x1="53.9143" y1="60.8438" x2="49.2113" y2="59.5976" gradientUnits="userSpaceOnUse">
<stop stop-color="#F82814" stop-opacity="0"/>
<stop offset="0.2454" stop-color="#F12817" stop-opacity="0.245"/>
<stop offset="0.6052" stop-color="#DD2820" stop-opacity="0.605"/>
<stop offset="1" stop-color="#C0272D"/>
</linearGradient>
<linearGradient id="paint7_linear_6_83" x1="55.736" y1="52.998" x2="52.3127" y2="46.2629" gradientUnits="userSpaceOnUse">
<stop stop-color="#F82814" stop-opacity="0"/>
<stop offset="0.2454" stop-color="#F12817" stop-opacity="0.245"/>
<stop offset="0.6052" stop-color="#DD2820" stop-opacity="0.605"/>
<stop offset="1" stop-color="#C0272D"/>
</linearGradient>
<linearGradient id="paint8_linear_6_83" x1="52.1451" y1="56.3544" x2="49.4428" y2="51.0375" gradientUnits="userSpaceOnUse">
<stop stop-color="#F82814" stop-opacity="0"/>
<stop offset="0.2454" stop-color="#F12817" stop-opacity="0.245"/>
<stop offset="0.6052" stop-color="#DD2820" stop-opacity="0.605"/>
<stop offset="1" stop-color="#C0272D"/>
</linearGradient>
<linearGradient id="paint9_linear_6_83" x1="57.1603" y1="57.2731" x2="55.5309" y2="54.0676" gradientUnits="userSpaceOnUse">
<stop stop-color="#F82814" stop-opacity="0"/>
<stop offset="0.2454" stop-color="#F12817" stop-opacity="0.245"/>
<stop offset="0.6052" stop-color="#DD2820" stop-opacity="0.605"/>
<stop offset="1" stop-color="#C0272D"/>
</linearGradient>
<linearGradient id="paint10_linear_6_83" x1="38.0789" y1="117.37" x2="32.5595" y2="108.756" gradientUnits="userSpaceOnUse">
<stop stop-color="#F82814" stop-opacity="0"/>
<stop offset="0.2454" stop-color="#F12817" stop-opacity="0.245"/>
<stop offset="0.6052" stop-color="#DD2820" stop-opacity="0.605"/>
<stop offset="1" stop-color="#C0272D"/>
</linearGradient>
<linearGradient id="paint11_linear_6_83" x1="33.6928" y1="122.376" x2="29.3355" y2="115.576" gradientUnits="userSpaceOnUse">
<stop stop-color="#F82814" stop-opacity="0"/>
<stop offset="0.2454" stop-color="#F12817" stop-opacity="0.245"/>
<stop offset="0.6052" stop-color="#DD2820" stop-opacity="0.605"/>
<stop offset="1" stop-color="#C0272D"/>
</linearGradient>
<linearGradient id="paint12_linear_6_83" x1="40.5738" y1="122.938" x2="37.947" y2="118.839" gradientUnits="userSpaceOnUse">
<stop stop-color="#F82814" stop-opacity="0"/>
<stop offset="0.2454" stop-color="#F12817" stop-opacity="0.245"/>
<stop offset="0.6052" stop-color="#DD2820" stop-opacity="0.605"/>
<stop offset="1" stop-color="#C0272D"/>
</linearGradient>
<linearGradient id="paint13_linear_6_83" x1="115.21" y1="82.6656" x2="109.691" y2="74.0522" gradientUnits="userSpaceOnUse">
<stop stop-color="#F82814" stop-opacity="0"/>
<stop offset="0.2454" stop-color="#F12817" stop-opacity="0.245"/>
<stop offset="0.6052" stop-color="#DD2820" stop-opacity="0.605"/>
<stop offset="1" stop-color="#C0272D"/>
</linearGradient>
<linearGradient id="paint14_linear_6_83" x1="110.825" y1="87.6717" x2="106.467" y2="80.8721" gradientUnits="userSpaceOnUse">
<stop stop-color="#F82814" stop-opacity="0"/>
<stop offset="0.2454" stop-color="#F12817" stop-opacity="0.245"/>
<stop offset="0.6052" stop-color="#DD2820" stop-opacity="0.605"/>
<stop offset="1" stop-color="#C0272D"/>
</linearGradient>
<linearGradient id="paint15_linear_6_83" x1="117.705" y1="88.2342" x2="115.078" y2="84.1348" gradientUnits="userSpaceOnUse">
<stop stop-color="#F82814" stop-opacity="0"/>
<stop offset="0.2454" stop-color="#F12817" stop-opacity="0.245"/>
<stop offset="0.6052" stop-color="#DD2820" stop-opacity="0.605"/>
<stop offset="1" stop-color="#C0272D"/>
</linearGradient>
<linearGradient id="paint16_linear_6_83" x1="47.1786" y1="118.564" x2="49.2018" y2="111.282" gradientUnits="userSpaceOnUse">
<stop stop-color="#F82814" stop-opacity="0"/>
<stop offset="0.2454" stop-color="#F12817" stop-opacity="0.245"/>
<stop offset="0.6052" stop-color="#DD2820" stop-opacity="0.605"/>
<stop offset="1" stop-color="#C0272D"/>
</linearGradient>
<linearGradient id="paint17_linear_6_83" x1="42.2618" y1="118.615" x2="43.8591" y2="112.867" gradientUnits="userSpaceOnUse">
<stop stop-color="#F82814" stop-opacity="0"/>
<stop offset="0.2454" stop-color="#F12817" stop-opacity="0.245"/>
<stop offset="0.6052" stop-color="#DD2820" stop-opacity="0.605"/>
<stop offset="1" stop-color="#C0272D"/>
</linearGradient>
<linearGradient id="paint18_linear_6_83" x1="45.3418" y1="122.681" x2="46.3046" y2="119.215" gradientUnits="userSpaceOnUse">
<stop stop-color="#F82814" stop-opacity="0"/>
<stop offset="0.2454" stop-color="#F12817" stop-opacity="0.245"/>
<stop offset="0.6052" stop-color="#DD2820" stop-opacity="0.605"/>
<stop offset="1" stop-color="#C0272D"/>
</linearGradient>
<linearGradient id="paint19_linear_6_83" x1="90.9902" y1="27.1841" x2="90.6256" y2="43.1491" gradientUnits="userSpaceOnUse">
<stop stop-color="#DB1010" stop-opacity="0.92"/>
<stop offset="0.3791" stop-color="#F46431"/>
<stop offset="0.7655" stop-color="#FA6A3F"/>
<stop offset="1" stop-color="#F76F49"/>
</linearGradient>
<linearGradient id="paint20_linear_6_83" x1="115.803" y1="55.9318" x2="118.203" y2="74.3626" gradientUnits="userSpaceOnUse">
<stop stop-color="#DB1010" stop-opacity="0.92"/>
<stop offset="0.3791" stop-color="#F46431"/>
<stop offset="0.7655" stop-color="#FA6A3F"/>
<stop offset="1" stop-color="#F76F49"/>
</linearGradient>
</defs>
</svg>
