<svg width="20" height="21" viewBox="0 0 20 21" fill="none" xmlns="http://www.w3.org/2000/svg">
<path d="M19 9.82559C19.0034 11.1455 18.695 12.4475 18.1 13.6256C17.3944 15.0373 16.3097 16.2248 14.9674 17.0549C13.6251 17.885 12.0782 18.325 10.5 18.3256C9.18012 18.329 7.8781 18.0207 6.69999 17.4256L1 19.3256L2.9 13.6256C2.30493 12.4475 1.99656 11.1455 2 9.82559C2.00061 8.24735 2.44061 6.70044 3.27072 5.35814C4.10082 4.01584 5.28825 2.93116 6.69999 2.22559C7.8781 1.63052 9.18012 1.32215 10.5 1.32559H11C13.0843 1.44058 15.053 2.32035 16.5291 3.79645C18.0052 5.27255 18.885 7.24124 19 9.32559V9.82559Z" stroke="#6A7889" stroke-width="2" stroke-linecap="round" stroke-linejoin="round"/>
</svg>

