<svg width="24" height="21" viewBox="0 0 24 21" fill="none" xmlns="http://www.w3.org/2000/svg">
<path d="M20.84 2.93556C20.3292 2.42456 19.7228 2.0192 19.0554 1.74264C18.3879 1.46608 17.6725 1.32373 16.95 1.32373C16.2275 1.32373 15.5121 1.46608 14.8446 1.74264C14.1772 2.0192 13.5708 2.42456 13.06 2.93556L12 3.99556L10.94 2.93556C9.9083 1.90386 8.50903 1.32427 7.05 1.32427C5.59096 1.32427 4.19169 1.90386 3.16 2.93556C2.1283 3.96725 1.54871 5.36652 1.54871 6.82556C1.54871 8.28459 2.1283 9.68386 3.16 10.7156L4.22 11.7756L12 19.5556L19.78 11.7756L20.84 10.7156C21.351 10.2048 21.7563 9.59837 22.0329 8.93091C22.3095 8.26345 22.4518 7.54804 22.4518 6.82556C22.4518 6.10307 22.3095 5.38766 22.0329 4.7202C21.7563 4.05274 21.351 3.44631 20.84 2.93556V2.93556Z" stroke="#6A7889" stroke-width="2" stroke-linecap="round" stroke-linejoin="round"/>
</svg>

