<svg width="162" height="68" viewBox="0 0 163 68" fill="none" xmlns="http://www.w3.org/2000/svg">
<path d="M33.654 0H34.343C43.2686 0 51.8286 3.54568 58.1399 9.85702C64.4513 16.1684 67.997 24.7284 67.997 33.654V34.343C67.997 43.2686 64.4513 51.8286 58.1399 58.1399C51.8286 64.4513 43.2686 67.997 34.343 67.997H0V33.654C0 24.7284 3.54567 16.1684 9.85702 9.85702C16.1684 3.54568 24.7284 0 33.654 0Z" fill="url(#paint0_linear_12558_4446)" fill-opacity="0.65"/>
<path d="M45.23 22.0975C44.3465 21.2047 43.145 20.6988 41.8891 20.6907C41.2594 20.6849 40.6351 20.8065 40.0536 21.0483C39.4722 21.29 38.9457 21.6469 38.5058 22.0975C37.8407 22.7625 37.3877 23.6098 37.2041 24.5323C37.0205 25.4547 37.1146 26.4109 37.4745 27.2799C37.8344 28.1488 38.4439 28.8916 39.2259 29.4141C40.0079 29.9367 40.9274 30.2156 41.8679 30.2156C42.8085 30.2156 43.7279 29.9367 44.5099 29.4141C45.2919 28.8916 45.9014 28.1488 46.2613 27.2799C46.6212 26.4109 46.7153 25.4547 46.5317 24.5323C46.3481 23.6098 45.8951 22.7625 45.23 22.0975ZM44.0453 27.6385C43.6135 28.0744 43.0619 28.3722 42.4605 28.4941C41.8591 28.6159 41.2351 28.5563 40.6676 28.3228C40.1002 28.0893 39.6149 27.6925 39.2734 27.1827C38.9319 26.6729 38.7496 26.0732 38.7496 25.4596C38.7496 24.846 38.9319 24.2462 39.2734 23.7364C39.6149 23.2266 40.1002 22.8298 40.6676 22.5963C41.2351 22.3629 41.8591 22.3033 42.4605 22.4251C43.0619 22.5469 43.6135 22.8447 44.0453 23.2807C44.6215 23.8595 44.9449 24.6429 44.9449 25.4596C44.9449 26.2763 44.6215 27.0597 44.0453 27.6385ZM45.2285 22.0975C44.345 21.2047 43.1435 20.6988 41.8875 20.6907C41.2579 20.6849 40.6336 20.8065 40.0521 21.0483C39.4707 21.29 38.9442 21.6469 38.5043 22.0975C37.8392 22.7625 37.3862 23.6098 37.2026 24.5323C37.019 25.4547 37.1131 26.4109 37.473 27.2799C37.8329 28.1488 38.4424 28.8916 39.2244 29.4141C40.0064 29.9367 40.9258 30.2156 41.8664 30.2156C42.8069 30.2156 43.7264 29.9367 44.5084 29.4141C45.2904 28.8916 45.8999 28.1488 46.2598 27.2799C46.6197 26.4109 46.7138 25.4547 46.5302 24.5323C46.3466 23.6098 45.8936 22.7625 45.2285 22.0975ZM44.0453 27.6385C43.6135 28.0744 43.0619 28.3722 42.4605 28.4941C41.8591 28.6159 41.2351 28.5563 40.6676 28.3228C40.1002 28.0893 39.6149 27.6925 39.2734 27.1827C38.9319 26.6729 38.7496 26.0732 38.7496 25.4596C38.7496 24.846 38.9319 24.2462 39.2734 23.7364C39.6149 23.2266 40.1002 22.8298 40.6676 22.5963C41.2351 22.3629 41.8591 22.3033 42.4605 22.4251C43.0619 22.5469 43.6135 22.8447 44.0453 23.2807C44.6215 23.8595 44.9449 24.6429 44.9449 25.4596C44.9449 26.2763 44.6215 27.0597 44.0453 27.6385ZM45.2285 22.0975C44.345 21.2047 43.1435 20.6988 41.8875 20.6907C41.2579 20.6849 40.6336 20.8065 40.0521 21.0483C39.4707 21.29 38.9442 21.6469 38.5043 22.0975C37.8392 22.7625 37.3862 23.6098 37.2026 24.5323C37.019 25.4547 37.1131 26.4109 37.473 27.2799C37.8329 28.1488 38.4424 28.8916 39.2244 29.4141C40.0064 29.9367 40.9258 30.2156 41.8664 30.2156C42.8069 30.2156 43.7264 29.9367 44.5084 29.4141C45.2904 28.8916 45.8999 28.1488 46.2598 27.2799C46.6197 26.4109 46.7138 25.4547 46.5302 24.5323C46.3466 23.6098 45.8936 22.7625 45.2285 22.0975ZM44.0453 27.6385C43.6135 28.0744 43.0619 28.3722 42.4605 28.4941C41.8591 28.6159 41.2351 28.5563 40.6676 28.3228C40.1002 28.0893 39.6149 27.6925 39.2734 27.1827C38.9319 26.6729 38.7496 26.0732 38.7496 25.4596C38.7496 24.846 38.9319 24.2462 39.2734 23.7364C39.6149 23.2266 40.1002 22.8298 40.6676 22.5963C41.2351 22.3629 41.8591 22.3033 42.4605 22.4251C43.0619 22.5469 43.6135 22.8447 44.0453 23.2807C44.6215 23.8595 44.9449 24.6429 44.9449 25.4596C44.9449 26.2763 44.6215 27.0597 44.0453 27.6385ZM45.2285 22.0975C44.345 21.2047 43.1435 20.6988 41.8875 20.6907C41.2579 20.6849 40.6336 20.8065 40.0521 21.0483C39.4707 21.29 38.9442 21.6469 38.5043 22.0975C37.8392 22.7625 37.3862 23.6098 37.2026 24.5323C37.019 25.4547 37.1131 26.4109 37.473 27.2799C37.8329 28.1488 38.4424 28.8916 39.2244 29.4141C40.0064 29.9367 40.9258 30.2156 41.8664 30.2156C42.8069 30.2156 43.7264 29.9367 44.5084 29.4141C45.2904 28.8916 45.8999 28.1488 46.2598 27.2799C46.6197 26.4109 46.7138 25.4547 46.5302 24.5323C46.3466 23.6098 45.8936 22.7625 45.2285 22.0975ZM44.0453 27.6385C43.6135 28.0744 43.0619 28.3722 42.4605 28.4941C41.8591 28.6159 41.2351 28.5563 40.6676 28.3228C40.1002 28.0893 39.6149 27.6925 39.2734 27.1827C38.9319 26.6729 38.7496 26.0732 38.7496 25.4596C38.7496 24.846 38.9319 24.2462 39.2734 23.7364C39.6149 23.2266 40.1002 22.8298 40.6676 22.5963C41.2351 22.3629 41.8591 22.3033 42.4605 22.4251C43.0619 22.5469 43.6135 22.8447 44.0453 23.2807C44.6215 23.8595 44.9449 24.6429 44.9449 25.4596C44.9449 26.2763 44.6215 27.0597 44.0453 27.6385ZM45.2285 22.0975C44.345 21.2047 43.1435 20.6988 41.8875 20.6907C41.2579 20.6849 40.6336 20.8065 40.0521 21.0483C39.4707 21.29 38.9442 21.6469 38.5043 22.0975C37.8392 22.7625 37.3862 23.6098 37.2026 24.5323C37.019 25.4547 37.1131 26.4109 37.473 27.2799C37.8329 28.1488 38.4424 28.8916 39.2244 29.4141C40.0064 29.9367 40.9258 30.2156 41.8664 30.2156C42.8069 30.2156 43.7264 29.9367 44.5084 29.4141C45.2904 28.8916 45.8999 28.1488 46.2598 27.2799C46.6197 26.4109 46.7138 25.4547 46.5302 24.5323C46.3466 23.6098 45.8936 22.7625 45.2285 22.0975ZM44.0453 27.6385C43.6135 28.0744 43.0619 28.3722 42.4605 28.4941C41.8591 28.6159 41.2351 28.5563 40.6676 28.3228C40.1002 28.0893 39.6149 27.6925 39.2734 27.1827C38.9319 26.6729 38.7496 26.0732 38.7496 25.4596C38.7496 24.846 38.9319 24.2462 39.2734 23.7364C39.6149 23.2266 40.1002 22.8298 40.6676 22.5963C41.2351 22.3629 41.8591 22.3033 42.4605 22.4251C43.0619 22.5469 43.6135 22.8447 44.0453 23.2807C44.6215 23.8595 44.9449 24.6429 44.9449 25.4596C44.9449 26.2763 44.6215 27.0597 44.0453 27.6385ZM45.2285 22.0975C44.345 21.2047 43.1435 20.6988 41.8875 20.6907C41.2579 20.6849 40.6336 20.8065 40.0521 21.0483C39.4707 21.29 38.9442 21.6469 38.5043 22.0975C37.8392 22.7625 37.3862 23.6098 37.2026 24.5323C37.019 25.4547 37.1131 26.4109 37.473 27.2799C37.8329 28.1488 38.4424 28.8916 39.2244 29.4141C40.0064 29.9367 40.9258 30.2156 41.8664 30.2156C42.8069 30.2156 43.7264 29.9367 44.5084 29.4141C45.2904 28.8916 45.8999 28.1488 46.2598 27.2799C46.6197 26.4109 46.7138 25.4547 46.5302 24.5323C46.3466 23.6098 45.8936 22.7625 45.2285 22.0975ZM44.0453 27.6385C43.6135 28.0744 43.0619 28.3722 42.4605 28.4941C41.8591 28.6159 41.2351 28.5563 40.6676 28.3228C40.1002 28.0893 39.6149 27.6925 39.2734 27.1827C38.9319 26.6729 38.7496 26.0732 38.7496 25.4596C38.7496 24.846 38.9319 24.2462 39.2734 23.7364C39.6149 23.2266 40.1002 22.8298 40.6676 22.5963C41.2351 22.3629 41.8591 22.3033 42.4605 22.4251C43.0619 22.5469 43.6135 22.8447 44.0453 23.2807C44.6215 23.8595 44.9449 24.6429 44.9449 25.4596C44.9449 26.2763 44.6215 27.0597 44.0453 27.6385ZM45.2285 22.0975C44.345 21.2047 43.1435 20.6988 41.8875 20.6907C41.2579 20.6849 40.6336 20.8065 40.0521 21.0483C39.4707 21.29 38.9442 21.6469 38.5043 22.0975C37.8392 22.7625 37.3862 23.6098 37.2026 24.5323C37.019 25.4547 37.1131 26.4109 37.473 27.2799C37.8329 28.1488 38.4424 28.8916 39.2244 29.4141C40.0064 29.9367 40.9258 30.2156 41.8664 30.2156C42.8069 30.2156 43.7264 29.9367 44.5084 29.4141C45.2904 28.8916 45.8999 28.1488 46.2598 27.2799C46.6197 26.4109 46.7138 25.4547 46.5302 24.5323C46.3466 23.6098 45.8936 22.7625 45.2285 22.0975ZM44.0453 27.6385C43.6135 28.0744 43.0619 28.3722 42.4605 28.4941C41.8591 28.6159 41.2351 28.5563 40.6676 28.3228C40.1002 28.0893 39.6149 27.6925 39.2734 27.1827C38.9319 26.6729 38.7496 26.0732 38.7496 25.4596C38.7496 24.846 38.9319 24.2462 39.2734 23.7364C39.6149 23.2266 40.1002 22.8298 40.6676 22.5963C41.2351 22.3629 41.8591 22.3033 42.4605 22.4251C43.0619 22.5469 43.6135 22.8447 44.0453 23.2807C44.6215 23.8595 44.9449 24.6429 44.9449 25.4596C44.9449 26.2763 44.6215 27.0597 44.0453 27.6385ZM45.2285 22.0975C44.345 21.2047 43.1435 20.6988 41.8875 20.6907C41.2579 20.6849 40.6336 20.8065 40.0521 21.0483C39.4707 21.29 38.9442 21.6469 38.5043 22.0975C37.8392 22.7625 37.3862 23.6098 37.2026 24.5323C37.019 25.4547 37.1131 26.4109 37.473 27.2799C37.8329 28.1488 38.4424 28.8916 39.2244 29.4141C40.0064 29.9367 40.9258 30.2156 41.8664 30.2156C42.8069 30.2156 43.7264 29.9367 44.5084 29.4141C45.2904 28.8916 45.8999 28.1488 46.2598 27.2799C46.6197 26.4109 46.7138 25.4547 46.5302 24.5323C46.3466 23.6098 45.8936 22.7625 45.2285 22.0975ZM44.0453 27.6385C43.6135 28.0744 43.0619 28.3722 42.4605 28.4941C41.8591 28.6159 41.2351 28.5563 40.6676 28.3228C40.1002 28.0893 39.6149 27.6925 39.2734 27.1827C38.9319 26.6729 38.7496 26.0732 38.7496 25.4596C38.7496 24.846 38.9319 24.2462 39.2734 23.7364C39.6149 23.2266 40.1002 22.8298 40.6676 22.5963C41.2351 22.3629 41.8591 22.3033 42.4605 22.4251C43.0619 22.5469 43.6135 22.8447 44.0453 23.2807C44.6215 23.8595 44.9449 24.6429 44.9449 25.4596C44.9449 26.2763 44.6215 27.0597 44.0453 27.6385ZM45.2285 22.0975C44.345 21.2047 43.1435 20.6988 41.8875 20.6907C41.2579 20.6849 40.6336 20.8065 40.0521 21.0483C39.4707 21.29 38.9442 21.6469 38.5043 22.0975C37.8392 22.7625 37.3862 23.6098 37.2026 24.5323C37.019 25.4547 37.1131 26.4109 37.473 27.2799C37.8329 28.1488 38.4424 28.8916 39.2244 29.4141C40.0064 29.9367 40.9258 30.2156 41.8664 30.2156C42.8069 30.2156 43.7264 29.9367 44.5084 29.4141C45.2904 28.8916 45.8999 28.1488 46.2598 27.2799C46.6197 26.4109 46.7138 25.4547 46.5302 24.5323C46.3466 23.6098 45.8936 22.7625 45.2285 22.0975ZM44.0453 27.6385C43.6135 28.0744 43.0619 28.3722 42.4605 28.4941C41.8591 28.6159 41.2351 28.5563 40.6676 28.3228C40.1002 28.0893 39.6149 27.6925 39.2734 27.1827C38.9319 26.6729 38.7496 26.0732 38.7496 25.4596C38.7496 24.846 38.9319 24.2462 39.2734 23.7364C39.6149 23.2266 40.1002 22.8298 40.6676 22.5963C41.2351 22.3629 41.8591 22.3033 42.4605 22.4251C43.0619 22.5469 43.6135 22.8447 44.0453 23.2807C44.6215 23.8595 44.9449 24.6429 44.9449 25.4596C44.9449 26.2763 44.6215 27.0597 44.0453 27.6385ZM45.2285 22.0975C44.345 21.2047 43.1435 20.6988 41.8875 20.6907C41.2579 20.6849 40.6336 20.8065 40.0521 21.0483C39.4707 21.29 38.9442 21.6469 38.5043 22.0975C37.8392 22.7625 37.3862 23.6098 37.2026 24.5323C37.019 25.4547 37.1131 26.4109 37.473 27.2799C37.8329 28.1488 38.4424 28.8916 39.2244 29.4141C40.0064 29.9367 40.9258 30.2156 41.8664 30.2156C42.8069 30.2156 43.7264 29.9367 44.5084 29.4141C45.2904 28.8916 45.8999 28.1488 46.2598 27.2799C46.6197 26.4109 46.7138 25.4547 46.5302 24.5323C46.3466 23.6098 45.8936 22.7625 45.2285 22.0975ZM44.0453 27.6385C43.6135 28.0744 43.0619 28.3722 42.4605 28.4941C41.8591 28.6159 41.2351 28.5563 40.6676 28.3228C40.1002 28.0893 39.6149 27.6925 39.2734 27.1827C38.9319 26.6729 38.7496 26.0732 38.7496 25.4596C38.7496 24.846 38.9319 24.2462 39.2734 23.7364C39.6149 23.2266 40.1002 22.8298 40.6676 22.5963C41.2351 22.3629 41.8591 22.3033 42.4605 22.4251C43.0619 22.5469 43.6135 22.8447 44.0453 23.2807C44.6215 23.8595 44.9449 24.6429 44.9449 25.4596C44.9449 26.2763 44.6215 27.0597 44.0453 27.6385ZM45.2285 22.0975C44.345 21.2047 43.1435 20.6988 41.8875 20.6907C41.2579 20.6849 40.6336 20.8065 40.0521 21.0483C39.4707 21.29 38.9442 21.6469 38.5043 22.0975C37.8392 22.7625 37.3862 23.6098 37.2026 24.5323C37.019 25.4547 37.1131 26.4109 37.473 27.2799C37.8329 28.1488 38.4424 28.8916 39.2244 29.4141C40.0064 29.9367 40.9258 30.2156 41.8664 30.2156C42.8069 30.2156 43.7264 29.9367 44.5084 29.4141C45.2904 28.8916 45.8999 28.1488 46.2598 27.2799C46.6197 26.4109 46.7138 25.4547 46.5302 24.5323C46.3466 23.6098 45.8936 22.7625 45.2285 22.0975ZM44.0453 27.6385C43.6135 28.0744 43.0619 28.3722 42.4605 28.4941C41.8591 28.6159 41.2351 28.5563 40.6676 28.3228C40.1002 28.0893 39.6149 27.6925 39.2734 27.1827C38.9319 26.6729 38.7496 26.0732 38.7496 25.4596C38.7496 24.846 38.9319 24.2462 39.2734 23.7364C39.6149 23.2266 40.1002 22.8298 40.6676 22.5963C41.2351 22.3629 41.8591 22.3033 42.4605 22.4251C43.0619 22.5469 43.6135 22.8447 44.0453 23.2807C44.6215 23.8595 44.9449 24.6429 44.9449 25.4596C44.9449 26.2763 44.6215 27.0597 44.0453 27.6385ZM45.2285 22.0975C44.345 21.2047 43.1435 20.6988 41.8875 20.6907C41.2579 20.6849 40.6336 20.8065 40.0521 21.0483C39.4707 21.29 38.9442 21.6469 38.5043 22.0975C37.8392 22.7625 37.3862 23.6098 37.2026 24.5323C37.019 25.4547 37.1131 26.4109 37.473 27.2799C37.8329 28.1488 38.4424 28.8916 39.2244 29.4141C40.0064 29.9367 40.9258 30.2156 41.8664 30.2156C42.8069 30.2156 43.7264 29.9367 44.5084 29.4141C45.2904 28.8916 45.8999 28.1488 46.2598 27.2799C46.6197 26.4109 46.7138 25.4547 46.5302 24.5323C46.3466 23.6098 45.8936 22.7625 45.2285 22.0975ZM44.0453 27.6385C43.6135 28.0744 43.0619 28.3722 42.4605 28.4941C41.8591 28.6159 41.2351 28.5563 40.6676 28.3228C40.1002 28.0893 39.6149 27.6925 39.2734 27.1827C38.9319 26.6729 38.7496 26.0732 38.7496 25.4596C38.7496 24.846 38.9319 24.2462 39.2734 23.7364C39.6149 23.2266 40.1002 22.8298 40.6676 22.5963C41.2351 22.3629 41.8591 22.3033 42.4605 22.4251C43.0619 22.5469 43.6135 22.8447 44.0453 23.2807C44.6215 23.8595 44.9449 24.6429 44.9449 25.4596C44.9449 26.2763 44.6215 27.0597 44.0453 27.6385ZM45.2285 22.0975C44.345 21.2047 43.1435 20.6988 41.8875 20.6907C41.2579 20.6849 40.6336 20.8065 40.0521 21.0483C39.4707 21.29 38.9442 21.6469 38.5043 22.0975C37.8392 22.7625 37.3862 23.6098 37.2026 24.5323C37.019 25.4547 37.1131 26.4109 37.473 27.2799C37.8329 28.1488 38.4424 28.8916 39.2244 29.4141C40.0064 29.9367 40.9258 30.2156 41.8664 30.2156C42.8069 30.2156 43.7264 29.9367 44.5084 29.4141C45.2904 28.8916 45.8999 28.1488 46.2598 27.2799C46.6197 26.4109 46.7138 25.4547 46.5302 24.5323C46.3466 23.6098 45.8936 22.7625 45.2285 22.0975ZM44.0453 27.6385C43.6135 28.0744 43.0619 28.3722 42.4605 28.4941C41.8591 28.6159 41.2351 28.5563 40.6676 28.3228C40.1002 28.0893 39.6149 27.6925 39.2734 27.1827C38.9319 26.6729 38.7496 26.0732 38.7496 25.4596C38.7496 24.846 38.9319 24.2462 39.2734 23.7364C39.6149 23.2266 40.1002 22.8298 40.6676 22.5963C41.2351 22.3629 41.8591 22.3033 42.4605 22.4251C43.0619 22.5469 43.6135 22.8447 44.0453 23.2807C44.6215 23.8595 44.9449 24.6429 44.9449 25.4596C44.9449 26.2763 44.6215 27.0597 44.0453 27.6385ZM45.2285 22.0975C44.345 21.2047 43.1435 20.6988 41.8875 20.6907C41.2579 20.6849 40.6336 20.8065 40.0521 21.0483C39.4707 21.29 38.9442 21.6469 38.5043 22.0975C37.8392 22.7625 37.3862 23.6098 37.2026 24.5323C37.019 25.4547 37.1131 26.4109 37.473 27.2799C37.8329 28.1488 38.4424 28.8916 39.2244 29.4141C40.0064 29.9367 40.9258 30.2156 41.8664 30.2156C42.8069 30.2156 43.7264 29.9367 44.5084 29.4141C45.2904 28.8916 45.8999 28.1488 46.2598 27.2799C46.6197 26.4109 46.7138 25.4547 46.5302 24.5323C46.3466 23.6098 45.8936 22.7625 45.2285 22.0975ZM44.0453 27.6385C43.6135 28.0744 43.0619 28.3722 42.4605 28.4941C41.8591 28.6159 41.2351 28.5563 40.6676 28.3228C40.1002 28.0893 39.6149 27.6925 39.2734 27.1827C38.9319 26.6729 38.7496 26.0732 38.7496 25.4596C38.7496 24.846 38.9319 24.2462 39.2734 23.7364C39.6149 23.2266 40.1002 22.8298 40.6676 22.5963C41.2351 22.3629 41.8591 22.3033 42.4605 22.4251C43.0619 22.5469 43.6135 22.8447 44.0453 23.2807C44.6215 23.8595 44.9449 24.6429 44.9449 25.4596C44.9449 26.2763 44.6215 27.0597 44.0453 27.6385ZM45.2285 22.0975C44.345 21.2047 43.1435 20.6988 41.8875 20.6907C41.2579 20.6849 40.6336 20.8065 40.0521 21.0483C39.4707 21.29 38.9442 21.6469 38.5043 22.0975C37.8392 22.7625 37.3862 23.6098 37.2026 24.5323C37.019 25.4547 37.1131 26.4109 37.473 27.2799C37.8329 28.1488 38.4424 28.8916 39.2244 29.4141C40.0064 29.9367 40.9258 30.2156 41.8664 30.2156C42.8069 30.2156 43.7264 29.9367 44.5084 29.4141C45.2904 28.8916 45.8999 28.1488 46.2598 27.2799C46.6197 26.4109 46.7138 25.4547 46.5302 24.5323C46.3466 23.6098 45.8936 22.7625 45.2285 22.0975ZM44.0453 27.6385C43.6135 28.0744 43.0619 28.3722 42.4605 28.4941C41.8591 28.6159 41.2351 28.5563 40.6676 28.3228C40.1002 28.0893 39.6149 27.6925 39.2734 27.1827C38.9319 26.6729 38.7496 26.0732 38.7496 25.4596C38.7496 24.846 38.9319 24.2462 39.2734 23.7364C39.6149 23.2266 40.1002 22.8298 40.6676 22.5963C41.2351 22.3629 41.8591 22.3033 42.4605 22.4251C43.0619 22.5469 43.6135 22.8447 44.0453 23.2807C44.6215 23.8595 44.9449 24.6429 44.9449 25.4596C44.9449 26.2763 44.6215 27.0597 44.0453 27.6385Z" fill="#231F20"/>
<path d="M53.3581 14.154C53.1594 13.9535 52.9164 13.8025 52.6487 13.7133C52.381 13.624 52.096 13.599 51.8168 13.6402L49.7451 14.0165C43.8626 15.1442 38.2779 17.4794 33.3436 20.8748C28.4093 24.2702 24.2327 28.6519 21.0776 33.7431C21.0487 33.7881 21.0229 33.8351 21.0006 33.8836C20.9537 33.9656 20.9143 34.0516 20.8827 34.1405C20.7482 34.5455 20.7709 35.0743 20.9431 35.6969C21.2574 36.8649 22.0779 38.3548 23.2868 39.9052C22.9562 39.4018 22.6993 38.8538 22.5237 38.2778C22.419 37.9682 22.4064 37.6349 22.4874 37.3183C22.5069 37.2631 22.5306 37.2095 22.5584 37.1581C22.5642 37.1472 22.5719 37.1375 22.5811 37.1294C22.6035 37.0933 22.6304 37.0603 22.6612 37.0312C22.9226 36.7713 23.3759 36.7395 23.9486 36.9027C25.026 37.2049 26.5264 38.1886 27.9423 39.6075C29.3581 41.0264 30.3343 42.5117 30.6395 43.5891C30.8087 44.1678 30.777 44.6257 30.5201 44.8871L30.5005 44.9037C30.476 44.9268 30.4497 44.9481 30.4219 44.9672C30.3216 45.0334 30.2082 45.0772 30.0895 45.0956C29.7978 45.1332 29.5014 45.1048 29.2222 45.0125C28.661 44.8325 28.1264 44.5784 27.6325 44.257C29.1557 45.4446 30.6168 46.2621 31.7803 46.5915C32.2326 46.7394 32.712 46.7854 33.1841 46.726C33.3741 46.6772 33.5551 46.5987 33.7205 46.4933L33.849 46.4162C38.8903 43.3361 43.2333 39.2378 46.6004 34.3835C49.9675 29.5292 52.2846 24.0256 53.4034 18.2247L53.8673 15.73V15.6982C53.9085 15.419 53.8839 15.1339 53.7955 14.8658C53.7071 14.5977 53.5573 14.354 53.3581 14.154ZM51.7594 17.9119C49.6817 28.7204 42.5934 38.7235 33.3896 44.7601C32.894 43.0179 31.0913 40.4068 28.8081 38.1236C26.5249 35.8404 24.5772 34.6482 22.8304 34.1587C28.9864 24.8975 39.0998 17.7487 50.0519 15.6635L52.0631 15.2963C52.0837 15.2956 52.1043 15.2991 52.1235 15.3066C52.1428 15.3142 52.1602 15.3256 52.1749 15.3401C52.1883 15.3548 52.1986 15.3719 52.2054 15.3906C52.2121 15.4093 52.2151 15.4291 52.2142 15.4489L51.7594 17.9119Z" fill="#231F20"/>
<path d="M46.4709 39.3113C46.4399 39.0744 46.3374 38.8525 46.177 38.6754C46.0167 38.4983 45.8061 38.3743 45.5734 38.3201C45.3505 38.2709 45.1181 38.2886 44.9053 38.3708C44.6924 38.4531 44.5085 38.5962 44.3766 38.7824C42.5324 40.9649 40.4758 42.9587 38.2372 44.7344L38.2176 44.7526C37.9718 44.8575 37.7753 45.0523 37.6684 45.2972C37.5614 45.5421 37.5519 45.8186 37.6419 46.0702L39.8148 51.4843C39.9019 51.7659 40.0666 52.0174 40.29 52.2098C40.5134 52.4022 40.7865 52.5278 41.078 52.5722C41.1623 52.5868 41.2478 52.5938 41.3334 52.5934C41.6003 52.5934 41.863 52.5271 42.098 52.4005C42.333 52.2739 42.5329 52.091 42.6797 51.8681L43.9278 50.0639C46.0992 46.9278 47.0074 43.0879 46.4709 39.3113ZM42.5513 49.1119L41.3606 50.8345L39.3962 45.9493C41.383 44.3613 43.2325 42.6089 44.9251 40.7105C45.0859 43.6966 44.2509 46.6515 42.5513 49.1119Z" fill="#231F20"/>
<path d="M29.2028 22.0884C29.1479 21.8559 29.0233 21.6458 28.8455 21.4861C28.6678 21.3265 28.4455 21.2251 28.2085 21.1954C24.4307 20.6576 20.5891 21.5653 17.4514 23.737L15.7061 24.9458C15.4362 25.0749 15.2107 25.2813 15.0581 25.5387C14.9056 25.7962 14.833 26.0931 14.8494 26.3919C14.8719 26.7024 14.9882 26.9988 15.1831 27.2417C15.3779 27.4846 15.642 27.6625 15.9404 27.7518L21.3091 29.9096L21.3559 29.9262C21.4585 29.9592 21.5655 29.9761 21.6733 29.9761C21.9714 29.9633 22.2592 29.8635 22.5013 29.689L22.5708 29.6436L22.7219 29.4925L22.796 29.4094C24.4098 27.2864 26.3514 25.2843 28.7344 23.2852C28.9208 23.1532 29.0644 22.9696 29.1477 22.7569C29.2309 22.5442 29.2501 22.3118 29.2028 22.0884ZM21.5992 28.2293L16.7382 26.2649L18.4003 25.1105C20.8607 23.4093 23.8163 22.5733 26.8032 22.7336C24.8929 24.3908 23.1498 26.2315 21.5992 28.2293Z" fill="#231F20"/>
<path fill-rule="evenodd" clip-rule="evenodd" d="M10.8901 60.4962C10.8765 60.543 10.8644 60.5899 10.8523 60.6382C10.7686 60.9694 10.723 61.3091 10.7163 61.6506C10.7139 62.3665 10.7899 63.0804 10.943 63.7797C10.9913 64.0245 11.1288 64.3267 11.1303 64.576C11.1303 64.576 11.0971 61.5977 16.144 59.4551C24.2024 56.031 26.8724 50.691 26.1305 46.8061C25.8388 47.4256 25.3115 47.9424 24.831 48.5861C23.9727 49.7456 22.8269 50.6612 21.5067 51.2426C21.0079 51.4628 20.4879 51.6314 19.9548 51.7457C19.4441 51.853 18.8654 51.9648 18.3531 51.8122C18.3374 51.8095 18.3224 51.8036 18.3091 51.7948C18.2958 51.7859 18.2846 51.7743 18.2761 51.7608C18.2693 51.7397 18.2693 51.717 18.2761 51.6959C18.3161 51.4748 18.3948 51.2625 18.5088 51.0688C18.5672 50.9683 18.6345 50.8733 18.7097 50.7847C18.7838 50.7001 18.8775 50.6336 18.95 50.549C18.888 50.5656 18.8231 50.5596 18.7611 50.5732C18.6705 50.5913 18.5798 50.6124 18.4906 50.6351C18.2216 50.703 17.9572 50.7878 17.6989 50.889C17.0431 51.1383 16.4338 51.4959 15.8962 51.9467C15.0184 52.6968 14.2004 53.5142 13.4498 54.3916C13.4498 54.3916 14.7538 47.2625 18.0449 44.2177C19.0042 43.2997 20.1066 42.5438 21.3087 41.9798C15.7874 41.1095 9.82481 49.8373 7.34065 56.5388C4.1176 65.2469 0 68 0 68C0.880938 67.586 1.67726 66.9544 2.4494 66.3696C3.52224 65.5567 4.56486 64.7075 5.59842 63.8386C6.49799 63.0831 7.38598 62.3155 8.26239 61.5358C8.52531 61.3016 8.78823 61.0673 9.04359 60.8256C9.48927 60.3844 10.0306 60.052 10.6257 59.854C10.8135 59.7932 11.0054 59.7457 11.1999 59.7119C11.1439 59.7225 11.0336 60.0806 11.011 60.1381C10.9656 60.2529 10.9248 60.3738 10.8901 60.4962Z" fill="#231F20"/>
<path d="M95.2559 12.0778V14.9488H90.2468V30.2103H86.6203V14.9488H81.6339V12.0778H95.2559Z" fill="#333333"/>
<path d="M110.515 23.7914H100.089C100.14 25.0586 100.482 25.992 101.116 26.5913C101.431 26.8905 101.802 27.1245 102.207 27.2801C102.613 27.4357 103.045 27.5097 103.479 27.498C104.317 27.498 105.015 27.2925 105.572 26.8815C106.123 26.4798 106.503 25.887 106.639 25.2193H110.466C110.286 26.1946 109.871 27.1114 109.258 27.8908C108.627 28.6906 107.811 29.3252 106.881 29.7404C105.782 30.2152 104.592 30.4419 103.395 30.4043C102.199 30.3667 101.025 30.0657 99.9586 29.5228C98.8902 28.9432 98.015 28.0633 97.4412 26.9918C96.8368 25.8968 96.5371 24.6038 96.5421 23.1129C96.5472 21.622 96.8469 20.325 97.4412 19.222C98.0071 18.1423 98.8819 17.2559 99.9541 16.6759C101.094 16.079 102.366 15.7787 103.653 15.8025C105.056 15.8025 106.285 16.0936 107.339 16.6759C108.363 17.23 109.209 18.063 109.779 19.0784C110.565 20.5158 110.825 22.183 110.512 23.7914H110.515ZM106.083 19.5605C105.421 18.9568 104.552 18.632 103.656 18.6538C102.749 18.6309 101.867 18.9551 101.19 19.5605C100.522 20.1649 100.154 21.0468 100.086 22.2063H106.996C107.047 21.0378 106.743 20.1533 106.083 19.5529V19.5605Z" fill="#333333"/>
<path d="M121.864 16.6502C122.704 17.1946 123.344 17.9969 123.688 18.9364V15.9899H127.284V30.2209H123.688V27.2336C123.342 28.1758 122.703 28.982 121.864 29.5334C121.009 30.1056 119.981 30.3922 118.782 30.3932C117.642 30.4097 116.521 30.1072 115.545 29.5198C114.565 28.9144 113.784 28.035 113.298 26.9903C112.758 25.8822 112.488 24.5847 112.488 23.0978C112.488 21.611 112.758 20.314 113.298 19.2069C113.784 18.1623 114.565 17.2826 115.545 16.6759C116.522 16.0892 117.643 15.7867 118.782 15.8025C119.983 15.8025 121.011 16.0851 121.864 16.6502ZM117.192 20.0697C116.507 20.8071 116.165 21.8175 116.165 23.1009C116.165 24.3843 116.507 25.3916 117.192 26.123C117.878 26.8503 118.785 27.2139 119.912 27.2139C120.417 27.2294 120.92 27.1379 121.387 26.9454C121.854 26.753 122.275 26.464 122.623 26.0973C123.333 25.3518 123.686 24.354 123.681 23.1039C123.681 21.8376 123.328 20.8303 122.623 20.0818C122.275 19.7149 121.854 19.4256 121.387 19.2329C120.92 19.0402 120.417 18.9485 119.912 18.9636C118.784 18.9626 117.877 19.3313 117.192 20.0697Z" fill="#333333"/>
<path d="M152.783 17.3831C153.786 18.4529 154.286 19.9725 154.285 21.9419V30.2134H150.689V22.3559C150.689 21.2609 150.411 20.4178 149.855 19.8265C149.299 19.2351 148.531 18.9385 147.552 18.9364C146.545 18.9364 145.739 19.2533 145.134 19.8869C144.53 20.5205 144.228 21.4453 144.228 22.6612V30.2164H140.631V22.359C140.631 21.264 140.353 20.4208 139.797 19.8295C139.241 19.2381 138.475 18.9425 137.498 18.9425C136.49 18.9425 135.684 19.2593 135.08 19.8929C134.475 20.5266 134.173 21.4513 134.173 22.6672V30.2224H130.547V15.9899H134.173V18.6796C134.521 17.7903 135.147 17.0378 135.959 16.5354C136.814 16.0197 137.799 15.7577 138.797 15.7799C139.86 15.7488 140.908 16.0321 141.81 16.5943C142.677 17.1655 143.345 17.9911 143.723 18.9576C144.15 18.0019 144.846 17.1915 145.727 16.6257C146.608 16.0599 147.634 15.7634 148.681 15.7723C150.414 15.7753 151.782 16.3123 152.783 17.3831Z" fill="#333333"/>
<path d="M94.691 53.5C94.1972 54.3069 93.4846 54.9572 92.6359 55.3752C91.7293 55.8446 90.6247 56.0798 89.3222 56.0808C88.1421 56.1014 86.9704 55.8787 85.8801 55.4265C84.9158 55.0262 84.0771 54.3738 83.4518 53.5377C82.8383 52.6996 82.4776 51.7034 82.4122 50.6668H86.2654C86.3319 51.3653 86.6459 52.017 87.1509 52.5042C87.6545 52.9928 88.3269 53.2365 89.1681 53.2355C89.9206 53.2355 90.4983 53.0341 90.9013 52.6311C91.1021 52.4264 91.2593 52.1831 91.3632 51.9158C91.4671 51.6485 91.5156 51.3628 91.5057 51.0762C91.5246 50.5651 91.3503 50.0655 91.0176 49.677C90.675 49.2963 90.2545 48.9938 89.7846 48.79C89.288 48.5684 88.603 48.3115 87.7296 48.0194C86.7787 47.7156 85.8515 47.3424 84.9553 46.9027C84.2225 46.523 83.5922 45.972 83.1179 45.2965C82.6142 44.5913 82.3624 43.6752 82.3624 42.5479C82.3624 40.9905 82.9229 39.7621 84.0441 38.8625C85.1653 37.9629 86.6512 37.5131 88.5017 37.5131C90.4157 37.5131 91.9439 37.9755 93.0862 38.9003C94.2286 39.825 94.8753 41.058 95.0264 42.5993H91.1219C91.0383 41.9865 90.7484 41.4205 90.2999 40.9946C89.8546 40.5745 89.2467 40.3645 88.476 40.3645C87.8082 40.3645 87.2687 40.5403 86.8577 40.8918C86.4467 41.2434 86.2412 41.7526 86.2412 42.4195C86.2242 42.9052 86.394 43.3789 86.7157 43.7432C87.0551 44.11 87.4666 44.4027 87.9245 44.6029C88.5745 44.8868 89.2393 45.1355 89.9161 45.3479C90.8834 45.6783 91.8309 46.0643 92.7538 46.5038C93.5003 46.8791 94.1409 47.4355 94.6169 48.1222C95.1307 48.8414 95.3876 49.7833 95.3876 50.9478C95.3926 51.8462 95.1517 52.7288 94.691 53.5Z" fill="#333333"/>
<path d="M109.794 42.3636C110.775 42.9698 111.556 43.8496 112.043 44.8946C112.583 46.0027 112.852 47.2997 112.851 48.7856C112.85 50.2714 112.581 51.5689 112.043 52.678C111.557 53.7229 110.775 54.6023 109.794 55.2075C108.819 55.7951 107.698 56.0976 106.559 56.0809C105.359 56.0809 104.336 55.7943 103.489 55.2211C102.656 54.6661 102.021 53.8607 101.675 52.9213V62.6811H98.0488V41.6776H101.675V44.6317C102.019 43.6949 102.655 42.8934 103.489 42.3455C104.336 41.7804 105.359 41.4978 106.559 41.4978C107.697 41.4795 108.817 41.7794 109.794 42.3636ZM102.718 45.768C102.008 46.5134 101.652 47.5208 101.651 48.7901C101.651 50.0412 102.007 51.039 102.718 51.7835C103.065 52.1501 103.486 52.4392 103.953 52.6316C104.42 52.8241 104.922 52.9156 105.427 52.9001C106.559 52.9001 107.465 52.5365 108.147 51.8092C108.829 51.0818 109.171 50.0745 109.173 48.7871C109.173 47.5027 108.831 46.4923 108.147 45.7559C107.463 45.0195 106.556 44.6513 105.427 44.6513C104.922 44.636 104.42 44.7276 103.953 44.92C103.486 45.1124 103.065 45.4014 102.718 45.768Z" fill="#333333"/>
<path d="M124.077 42.3379C124.916 42.8823 125.556 43.6846 125.9 44.6241V41.6776H129.497V55.9086H125.9V52.9288C125.555 53.871 124.915 54.6772 124.077 55.2286C123.221 55.8008 122.194 56.0874 120.994 56.0884C119.855 56.1049 118.734 55.8024 117.757 55.215C116.779 54.6064 116 53.7244 115.518 52.678C114.979 51.5699 114.709 50.2724 114.708 48.7855C114.707 47.2987 114.977 46.0017 115.518 44.8946C116.004 43.85 116.785 42.9703 117.765 42.3636C118.742 41.7769 119.863 41.4744 121.002 41.4902C122.195 41.4902 123.22 41.7728 124.077 42.3379ZM119.401 45.7574C118.717 46.4948 118.375 47.5052 118.374 48.7886C118.373 50.0719 118.715 51.0793 119.401 51.8106C120.087 52.537 120.994 52.9006 122.121 52.9016C122.626 52.9171 123.129 52.8256 123.596 52.6331C124.063 52.4407 124.485 52.1516 124.832 51.785C125.537 51.0405 125.89 50.0427 125.89 48.7916C125.89 47.5253 125.537 46.518 124.832 45.7695C124.485 45.4026 124.063 45.1133 123.596 44.9206C123.129 44.7279 122.626 44.6362 122.121 44.6513C120.993 44.6503 120.086 45.019 119.401 45.7574Z" fill="#333333"/>
<path d="M143.775 42.9801C144.999 43.9744 145.765 45.3273 146.073 47.0388H142.245C142.12 46.3357 141.744 45.7017 141.188 45.2543C140.641 44.8171 139.947 44.5985 139.107 44.5985C138.653 44.5897 138.203 44.6806 137.788 44.865C137.373 45.0493 137.004 45.3225 136.706 45.6653C136.064 46.3704 135.743 47.4105 135.742 48.7856C135.741 50.1606 136.062 51.2012 136.706 51.9074C137.005 52.2482 137.374 52.5196 137.789 52.7023C138.204 52.885 138.654 52.9747 139.107 52.9651C139.947 52.9651 140.641 52.747 141.188 52.3108C141.745 51.8631 142.121 51.2285 142.245 50.5248H146.073C145.765 52.2373 144.999 53.5902 143.775 54.5835C142.551 55.5767 141.022 56.0733 139.189 56.0733C137.9 56.0976 136.627 55.7928 135.49 55.1879C134.422 54.6075 133.547 53.7278 132.972 52.6569C132.374 51.5619 132.072 50.2689 132.066 48.778C132.059 47.2871 132.362 45.9901 132.972 44.8871C133.542 43.8126 134.418 42.9317 135.49 42.3561C136.63 41.7592 137.902 41.4589 139.189 41.4827C141.017 41.4877 142.546 41.9869 143.775 42.9801Z" fill="#333333"/>
<path d="M161.889 49.4791H151.463C151.514 50.7464 151.857 51.6797 152.49 52.2791C152.806 52.5768 153.177 52.8095 153.582 52.9637C153.988 53.118 154.42 53.1908 154.853 53.1782C155.693 53.1782 156.391 52.9727 156.948 52.5617C157.495 52.1586 157.872 51.5659 158.006 50.8995H161.833C161.652 51.8747 161.237 52.7915 160.624 53.571C159.994 54.3707 159.179 55.0054 158.249 55.4205C157.15 55.8953 155.959 56.122 154.763 56.0844C153.566 56.0467 152.392 55.7458 151.325 55.203C150.257 54.6226 149.382 53.7429 148.808 52.672C148.203 51.577 147.904 50.284 147.909 48.7931C147.914 47.3022 148.213 46.0052 148.808 44.9022C149.378 43.8277 150.254 42.9468 151.325 42.3712C152.465 41.7743 153.737 41.474 155.024 41.4978C156.427 41.4978 157.656 41.7889 158.711 42.3712C159.735 42.9253 160.581 43.7583 161.151 44.7737C161.735 45.8377 162.032 47.0356 162.011 48.2491C162.008 48.662 161.967 49.0737 161.889 49.4791ZM157.459 45.2406C156.795 44.6402 155.925 44.3182 155.03 44.3416C154.124 44.3165 153.242 44.6381 152.564 45.2406C151.896 45.8451 151.528 46.727 151.46 47.8865H158.37C158.421 46.722 158.117 45.84 157.459 45.2406Z" fill="#333333"/>
<defs>
<linearGradient id="paint0_linear_12558_4446" x1="33.9985" y1="0" x2="33.9985" y2="67.997" gradientUnits="userSpaceOnUse">
<stop stop-color="#6E44FF"/>
<stop offset="1" stop-color="#72DDF7"/>
</linearGradient>
</defs>
</svg>
