<svg class="sourcery-logo" width="152" height="45" viewBox="0 0 152 45"><g fill="none"><polygon fill="#9154FF" points="19.8 0 0 10.137 0 12.663 19.8 22.8 19.8 19.611 3.762 11.401 19.8 3.188"></polygon><polygon fill="#161922" class="sourcery-logo__stroke" points="19.8 0 19.8 3.19 35.838 11.4 19.8 19.611 19.8 22.8 39.6 12.663 39.6 10.137"></polygon><polygon fill="#FB5873" points="0 34.37 19.832 45 39.7 34.37 39.7 12.6 36.854 14.047 36.854 32.684 19.834 41.789 2.846 32.684 2.846 14.047 0 12.6"></polygon><path class="sourcery-logo__stroke" fill="#161922" d="M147.144,7.336 L147.144,7.912 L146.128,7.912 L146.128,10.632 L145.48,10.632 L145.48,7.912 L144.448,7.912 L144.448,7.336 L147.144,7.336 Z M148.752,7.336 L149.656,9.672 L150.56,7.336 L151.496,7.336 L151.496,10.632 L150.84,10.632 L150.84,8.176 L150.824,8.176 L149.872,10.632 L149.432,10.632 L148.472,8.176 L148.456,8.176 L148.456,10.632 L147.808,10.632 L147.808,7.336 L148.752,7.336 Z M54.223,10.6 C54.3,10.766 54.442,10.922 54.647,11.067 C54.852,11.212 55.135,11.345 55.495,11.467 C55.855,11.59 56.313,11.717 56.868,11.851 C57.478,12.007 58.018,12.18 58.489,12.369 C58.961,12.559 59.351,12.789 59.662,13.061 C59.972,13.334 60.208,13.651 60.369,14.013 C60.529,14.375 60.61,14.8 60.61,15.29 C60.61,15.846 60.509,16.342 60.305,16.776 C60.1082583,17.2015434 59.8188668,17.5777182 59.458,17.877 C59.096,18.177 58.661,18.406 58.153,18.562 C57.6096917,18.722481 57.0454821,18.801012 56.479,18.795 C55.601344,18.7981632 54.7303427,18.6426636 53.908,18.336 C53.0669669,18.016024 52.295295,17.5373361 51.635,16.926 L52.862,15.456 C53.426,15.946 53.996,16.322 54.572,16.584 C55.146,16.845 55.799,16.976 56.529,16.976 C57.159,16.976 57.659,16.842 58.03,16.576 C58.4,16.308 58.586,15.946 58.586,15.49 C58.586,15.279 58.55,15.09 58.478,14.923 C58.3889797,14.7361441 58.2506844,14.5771045 58.078,14.463 C57.8305206,14.2975927 57.5621762,14.1657744 57.28,14.071 C56.942,13.949 56.501,13.821 55.958,13.687 C55.3968465,13.5600802 54.8441162,13.3984358 54.303,13.203 C53.8641764,13.0494566 53.453921,12.8240527 53.089,12.536 C52.7670686,12.2759419 52.5105465,11.9440729 52.34,11.567 C52.169,11.189 52.083,10.727 52.083,10.182 C52.083,9.67 52.181,9.206 52.379,8.788 C52.576,8.371 52.848,8.012 53.193,7.711 C53.5585151,7.39970634 53.9824529,7.16444978 54.44,7.019 C54.9538924,6.85340081 55.4911108,6.77168689 56.031,6.777 C56.883,6.777 57.649,6.902 58.329,7.152 C59.0227354,7.41041919 59.6698433,7.77990563 60.245,8.246 L59.15,9.798 C58.6648526,9.43441253 58.1352294,9.1343151 57.574,8.905 C57.0730786,8.70277651 56.5381971,8.59790444 55.998,8.596 C55.401,8.596 54.936,8.733 54.604,9.006 C54.273,9.278 54.107,9.609 54.107,9.998 C54.107,10.232 54.145,10.432 54.223,10.599 M71.32,11.192 C71.1358373,10.7017733 70.8595314,10.2513336 70.506,9.865 C70.1533936,9.48339825 69.7276109,9.17664424 69.254,8.963 C68.7534271,8.73780587 68.2098641,8.6241797 67.661,8.63 C67.086,8.63 66.558,8.738 66.077,8.955 C65.6089003,9.16252239 65.1882587,9.4637099 64.841,9.84 C64.4909192,10.2242414 64.2176643,10.6719722 64.036,11.159 C63.8411833,11.6732763 63.7428728,12.2190692 63.7458586,12.769 C63.7458586,13.337 63.842,13.874 64.036,14.38 C64.229,14.887 64.5,15.329 64.849,15.707 C65.197,16.086 65.614,16.387 66.101,16.608 C66.6014258,16.8337523 67.1450398,16.9477303 67.694,16.942 C68.269,16.942 68.797,16.834 69.278,16.617 C69.7460012,16.4093053 70.1666099,16.1081413 70.514,15.732 C70.857,15.359 71.125,14.92 71.319,14.413 C71.512,13.907 71.609,13.37 71.609,12.803 C71.609,12.235 71.512,11.698 71.319,11.192 M73.302,15.106 C73.0129307,15.8255399 72.5843706,16.4807848 72.041,17.034 C71.4899646,17.5908978 70.8362529,18.0357614 70.116,18.344 C69.376,18.667 68.556,18.829 67.661,18.829 C66.765,18.829 65.946,18.67 65.205,18.353 C64.4895127,18.0529484 63.8411636,17.6130094 63.298,17.059 C62.7618977,16.5062061 62.338974,15.8539865 62.053,15.139 C61.7529032,14.3969567 61.6007176,13.6034174 61.6048277,12.803 C61.6048277,11.979 61.755,11.2 62.053,10.466 C62.3419517,9.74639886 62.7705261,9.09113206 63.314,8.538 C63.8651165,7.98119965 64.5188081,7.53634982 65.239,7.228 C65.979,6.905 66.799,6.743 67.694,6.743 C68.59,6.743 69.408,6.902 70.149,7.219 C70.8647542,7.51910143 71.5134216,7.95902572 72.057,8.513 C72.5930014,9.06587432 73.0159114,9.71807284 73.302,10.433 C73.6,11.167 73.75,11.946 73.75,12.769 C73.75,13.593 73.6,14.372 73.302,15.106 M85.213,13.57 C85.213,14.439 85.094,15.201 84.857,15.857 C84.619,16.514 84.284,17.062 83.853,17.502 C83.421,17.942 82.899,18.269 82.285,18.486 C81.671,18.703 80.983,18.812 80.22,18.812 C79.467,18.812 78.787,18.703 78.179,18.486 C77.5919624,18.2826587 77.0586155,17.948975 76.619,17.51 C76.1732921,17.0527841 75.8336009,16.503133 75.624,15.9 C75.392,15.26 75.276,14.517 75.276,13.67 L75.276,6.945 L77.3,6.945 L77.3,13.588 C77.3,14.678 77.561,15.508 78.084,16.075 C78.607,16.643 79.329,16.927 80.253,16.927 C81.165,16.927 81.883,16.654 82.405,16.109 C82.928,15.564 83.189,14.751 83.189,13.672 L83.189,6.944 L85.213,6.944 L85.213,13.571 L85.213,13.57 Z M93.888,9.291 C93.467,8.961 92.873,8.796 92.108,8.796 L89.128,8.796 L89.128,12.736 L92.124,12.736 C92.856,12.736 93.439,12.557 93.871,12.2 C94.304,11.842 94.521,11.361 94.521,10.758 C94.521,10.11 94.309,9.621 93.888,9.291 Z M94.553,18.628 L91.691,14.555 L89.128,14.555 L89.128,18.628 L87.104,18.628 L87.104,6.944 L92.281,6.944 C92.890822,6.93614089 93.4981331,7.02352622 94.081,7.203 C94.617,7.375 95.071,7.62 95.441,7.937 C95.811,8.254 96.096,8.644 96.296,9.105 C96.495,9.567 96.594,10.082 96.594,10.649 C96.594,11.139 96.525,11.576 96.387,11.959 C96.248,12.344 96.057,12.683 95.814,12.978 C95.5680708,13.2752562 95.2739839,13.5291174 94.944,13.729 C94.606,13.935 94.233,14.094 93.824,14.205 L96.959,18.628 L94.553,18.628 Z M107.396,17.618 C107.067674,17.869698 106.714905,18.087792 106.343,18.269 C105.949785,18.4586992 105.534641,18.5990958 105.107,18.687 C104.618223,18.7854315 104.120573,18.8330183 103.622,18.829 C102.812779,18.8373266 102.010602,18.6779807 101.266,18.361 C100.565892,18.062519 99.9317262,17.6285264 99.4,17.084 C98.8674785,16.5335727 98.4476153,15.8844153 98.164,15.173 C97.861632,14.419748 97.7094443,13.6146477 97.716,12.803 C97.716,11.968 97.862,11.183 98.156,10.449 C98.4375884,9.73173616 98.8571815,9.07669526 99.391,8.521 C99.9287139,7.96538847 100.571955,7.52273532 101.283,7.219 C102.013,6.902 102.82,6.743 103.705,6.743 C104.235,6.743 104.72,6.788 105.156,6.877 C105.954277,7.03054969 106.709891,7.35496887 107.371,7.828 C107.681,8.051 107.974,8.296 108.251,8.563 L106.94,10.082 C106.498939,9.66440849 106.001823,9.31033498 105.463,9.03 C104.943,8.763 104.352,8.63 103.688,8.63 C103.135,8.63 102.624,8.738 102.153,8.955 C101.683,9.172 101.277,9.467 100.934,9.84 C100.591,10.213 100.326,10.65 100.138,11.15 C99.95,11.651 99.856,12.19 99.856,12.77 C99.856,13.348 99.95,13.89 100.138,14.397 C100.326,14.903 100.591,15.346 100.934,15.724 C101.277,16.102 101.684,16.4 102.154,16.617 C102.624,16.834 103.135,16.942 103.688,16.942 C104.396,16.942 105.004,16.806 105.513,16.534 C106.062648,16.2315308 106.570301,15.8583553 107.023,15.424 L108.333,16.759 C108.045614,17.071714 107.732151,17.3594176 107.396,17.619 M118.3,8.796 L111.731,8.796 L111.731,11.801 L117.554,11.801 L117.554,13.654 L111.731,13.654 L111.731,16.776 L118.384,16.776 L118.384,18.628 L109.707,18.628 L109.707,6.944 L118.301,6.944 L118.3,8.796 Z M126.843,9.291 C126.421,8.961 125.828,8.796 125.063,8.796 L122.083,8.796 L122.083,12.736 L125.079,12.736 C125.811,12.736 126.393,12.557 126.826,12.2 C127.259,11.842 127.476,11.361 127.476,10.758 C127.476,10.11 127.264,9.621 126.843,9.291 Z M127.508,18.628 L124.646,14.555 L122.083,14.555 L122.083,18.628 L120.059,18.628 L120.059,6.944 L125.236,6.944 C125.899,6.944 126.499,7.03 127.036,7.203 C127.572,7.375 128.026,7.62 128.396,7.937 C128.766,8.254 129.051,8.644 129.25,9.105 C129.45,9.567 129.55,10.082 129.55,10.649 C129.55,11.139 129.48,11.576 129.342,11.959 C129.203,12.344 129.012,12.683 128.77,12.978 C128.523471,13.2754286 128.228697,13.5292993 127.898,13.729 C127.561,13.935 127.188,14.094 126.778,14.205 L129.914,18.628 L127.508,18.628 Z M136.333,18.628 L134.276,18.628 L134.276,14.021 L129.664,6.944 L132.069,6.944 L135.321,12.118 L138.606,6.944 L140.945,6.944 L136.333,13.971 L136.333,18.628 Z M57.656,27.095 L55.67,31.758 L59.659,31.758 L57.656,27.095 Z M63.73,36.387 L61.578,36.387 L60.403,33.573 L54.925,33.573 L53.734,36.387 L51.648,36.387 L56.746,24.647 L58.633,24.647 L63.73,36.387 Z M74.501,35.38 C74.176,35.63 73.825,35.846 73.451,36.029 C73.0587446,36.2180241 72.6445941,36.3577537 72.218,36.445 C71.771,36.539 71.277,36.587 70.736,36.587 C69.9288368,36.5951312 69.1287249,36.4361303 68.386,36.12 C67.6877259,35.822206 67.0552542,35.3892297 66.525,34.846 C65.9933361,34.2971953 65.5741349,33.6497096 65.291,32.94 C64.9897333,32.1882348 64.8382293,31.384856 64.845,30.575 C64.845,29.743 64.991,28.96 65.283,28.227 C65.5642692,27.5115248 65.9831812,26.8581852 66.516,26.304 C67.0523283,25.7497878 67.6938529,25.3081659 68.403,25.005 C69.131,24.689 69.936,24.531 70.819,24.531 C71.349,24.531 71.831,24.575 72.267,24.664 C73.0635704,24.8175403 73.8174866,25.1416219 74.477,25.614 C74.785,25.835 75.077,26.079 75.354,26.346 L74.046,27.861 C73.6063428,27.4447762 73.1109297,27.0917271 72.574,26.812 C72.054,26.546 71.464,26.412 70.803,26.412 C70.251,26.412 69.74,26.521 69.272,26.737 C68.802,26.954 68.397,27.247 68.055,27.62 C67.7079664,27.9999691 67.4382768,28.4439039 67.261,28.927 C67.0699905,29.4438183 66.9744397,29.9910327 66.979,30.542 C66.979,31.119 67.073,31.661 67.261,32.166 C67.448,32.671 67.713,33.112 68.055,33.489 C68.397,33.867 68.803,34.164 69.272,34.38 C69.74,34.597 70.251,34.705 70.802,34.705 C71.509,34.705 72.116,34.569 72.623,34.297 C73.17117,33.9953211 73.6774744,33.6231571 74.129,33.19 L75.437,34.522 C75.139,34.844 74.827,35.13 74.501,35.379 M82.94,27.095 L80.953,31.758 L84.942,31.758 L82.94,27.095 Z M89.014,36.387 L86.862,36.387 L85.687,33.573 L80.209,33.573 L79.017,36.387 L76.932,36.387 L82.029,24.647 L83.916,24.647 L89.014,36.387 Z M99.403,28.979 C99.2186855,28.5081247 98.9422926,28.0787469 98.59,27.716 C98.2300519,27.3517361 97.7977609,27.0669487 97.321,26.88 C96.7922067,26.6737265 96.2285519,26.5715217 95.661,26.579 L93.371,26.579 L93.371,34.539 L95.661,34.539 C96.27,34.539 96.823,34.441 97.321,34.246 C97.819,34.051 98.241,33.778 98.591,33.426 C98.939,33.076 99.21,32.657 99.403,32.173 C99.597,31.687 99.693,31.155 99.693,30.576 C99.6993286,30.0300214 99.6008837,29.4878956 99.403,28.979 M101.382,32.849 C101.094367,33.5493551 100.663089,34.181623 100.116,34.705 C99.5510501,35.2384261 98.8877314,35.6568637 98.163,35.937 C97.407,36.237 96.577,36.387 95.673,36.387 L91.353,36.387 L91.353,24.73 L95.673,24.73 C96.577,24.73 97.407,24.877 98.163,25.17 C98.8883959,25.4455814 99.5521292,25.8619015 100.116,26.395 C100.661675,26.9164664 101.092821,27.5458168 101.382,28.243 C101.68,28.953 101.829,29.72 101.829,30.541 C101.829,31.363 101.679,32.131 101.382,32.847 M113.22,26.579 L106.667,26.579 L106.667,29.576 L112.477,29.576 L112.477,31.425 L106.667,31.425 L106.667,34.538 L113.304,34.538 L113.304,36.387 L104.648,36.387 L104.648,24.73 L113.221,24.73 L113.22,26.579 Z M121.976,33.523 L121.91,33.523 L118.285,28.061 L118.285,36.387 L116.266,36.387 L116.266,24.73 L118.435,24.73 L121.96,30.241 L125.485,24.73 L127.653,24.73 L127.653,36.386 L125.633,36.386 L125.633,28.026 L121.976,33.523 Z M136.27,36.387 L134.218,36.387 L134.218,31.79 L129.617,24.73 L132.017,24.73 L135.261,29.892 L138.537,24.73 L140.871,24.73 L136.271,31.74 L136.27,36.387 Z"></path></g></svg>
