<svg width="24" height="24" viewBox="0 0 24 24" fill="none" xmlns="http://www.w3.org/2000/svg">
<path d="M12.5908 22C18.1137 22 22.5908 17.5228 22.5908 12C22.5908 6.47715 18.1137 2 12.5908 2C7.06797 2 2.59082 6.47715 2.59082 12C2.59082 17.5228 7.06797 22 12.5908 22Z" stroke="#25282B" stroke-width="2" stroke-linecap="round" stroke-linejoin="round"/>
<path d="M9.68085 8.99996C9.91595 8.33163 10.38 7.76807 10.9908 7.40909C11.6016 7.05012 12.3197 6.9189 13.018 7.03867C13.7163 7.15844 14.3497 7.52148 14.8059 8.06349C15.2622 8.60549 15.5119 9.29148 15.5108 9.99996C15.5108 12 12.5108 13 12.5108 13" stroke="#25282B" stroke-width="2" stroke-linecap="round" stroke-linejoin="round"/>
<path d="M12.5908 17H12.6008" stroke="#25282B" stroke-width="2" stroke-linecap="round" stroke-linejoin="round"/>
</svg>
